<mxfile host="Electron" modified="2024-03-13T00:45:22.570Z" agent="Mozilla/5.0 (Macintosh; Intel Mac OS X 10_15_7) AppleWebKit/537.36 (KHTML, like Gecko) draw.io/24.0.4 Chrome/120.0.6099.109 Electron/28.1.0 Safari/537.36" etag="LHe3ca53K834LujoMZ0c" version="24.0.4" type="device">
  <diagram name="페이지-1" id="TwOqjUEA0QU6yMv_qlRV">
    <mxGraphModel dx="1434" dy="854" grid="1" gridSize="10" guides="1" tooltips="1" connect="1" arrows="1" fold="1" page="1" pageScale="1" pageWidth="1600" pageHeight="900" math="0" shadow="0">
      <root>
        <mxCell id="0" />
        <mxCell id="1" parent="0" />
        <mxCell id="1Rwb4ythUnEx5mFGbX7C-1" value="" style="shape=image;verticalLabelPosition=bottom;labelBackgroundColor=default;verticalAlign=top;aspect=fixed;imageAspect=0;image=data:image/png,iVBORw0KGgoAAAANSUhEUgAAAhIAAAHeCAYAAADO/+LtAAAAAXNSR0IArs4c6QAAIABJREFUeF7snQm4VdP7x9/bTJOiwZQSKSVFZChFkqGkpAwNRCipaKCBJEmhpJIp0kQaVKJBKJQoSSIi1I80aS6N9/6fz2Kf/z7nnukedM+9fd/n6enec9bea+3P2ve83/W+79onZerUqWklSpSw0qVLW8GCBS0tLc1kIiACIiACIiACIhCJQI4cOWz79u22Zs0aS/n000/TKleubPny5TPekImACIiACIiACIhALAKpqam2d+9eS/n999/TihcvLhERi5jeFwEREAEREAERCCKAmEjZuXNnWoECBYRGBERABERABERABDJMQEIiw8h0gAiIgAiIgAiIgEdAQkL3ggiIgAiIgAiIQMIEJCQSRqcDRUAEREAEREAEJCR0D4iACIiACIiACCRMQEIiYXQ6UAREQAREQAREQEJC94AIiIAIiIAIiEDCBCQkEkanA0VABERABERABCQkdA+IgAiIgAiIgAgkTEBCImF0OlAEREAEREAEREBCQveACIiACIiACIhAwgQkJBJGpwNFQAREQAREQAQkJHQPiIAIiIAIiIAIJExAQiJhdDpQBERABERABERAQkL3gAiIgAiIgAiIQMIEJCQSRqcDRUAEREAEREAEJCR0D4iACIiACIiACCRMQEIiYXQ6UAREQAREQAREQEJC94AIiIAIiIAIiEDCBCQkEkanA0VABERABERABCQkdA+IgAiIgAiIgAgkTEBCImF0OlAEREAEREAEREBCQveACIiACIiACIhAwgQkJBJGpwNFQAREQAREQAQkJHQPiIAIiIAIiIAIJExAQiJhdDpQBERABERABERAQkL3gAiIgAiIgAiIQMIEJCQSRqcDRUAEREAEREAEJCR0D4iACIiACIiACCRMQEIiYXQ6UAREQAREQAREQEJC94AIiIAIiIAIiEDCBCQkEkanA0VABERABERABCQkdA+IgAiIgAiIgAgkTEBCImF0OlAEREAEREAEREBCQveACIiACIiACIhAwgQkJBJGpwNFQAREQAREQAQkJHQPiIAIiIAIiIAIJExAQiJhdDpQBERABERABERAQkL3gAiIgAiIgAiIQMIEJCQSRqcDRUAEREAEREAEJCR0D4iACIiACIiACCRMQEIiYXQ6UAREQAREQAREQEJC94AIiIAIiIAIiEDCBCQkEkanA0VABERABERABCQkdA+IgAiIgAiIgAgkTEBCIgPo/ve//9nYsWPdEa1bt7YSJUpk4Oh/3vSpp56yvXv3Wq1ataxmzZr//IQZOMOOHTts+/btlj9/fitatGgGjozcdPDgwfbnn3+667n44ov/lXPqJCIgAiIgAoeXgISEj/e2bdvs888/t1WrVln58uXtvPPOs8KFCwdazJs3zy699FL3+1dffWWVK1eOOFuTJ0+2Jk2auPd3795tRx99dNi2CIP3338/4nlwsMccc4x7v1ChQrZz50576KGH7NFHH414zA8//GDlypVz73/99ddWqVKlf3xXeX1zorS0tIjno7/XX389an+33HKLVaxYMe7r+ceD1wlEQAREQAT+MwJJJyT27duXzkFXqVLFzj//fDv33HPdSjxnzpxBQHBMS5YsCXqtTJkyxr9bb73VqlevHhPgpEmT7IYbbkjXbvr06dagQQP3ekaERMeOHe3ZZ591x/3666924oknhh3Dd999ZxUqVIg4vsWLF1u1atUyJCQQJpdffrk75o033rBmzZrFvP5YDVJSUgJNNmzYYMWLFw97yMSJE61p06ZRTzdt2jS79tprJSRiQdf7IiACIpAFCCSdkGCFftRRR0VE16pVK3v55ZctV65cgTY1atSwBQsWRDzmiSeesAceeCDi+3PmzLF69eq593GQRCI++ugjt/r3BATh94wICZz3m2++6Y7nXJFSEX4hQZvjjz8+aJz9+vWz0047LUNC4sUXX7S77rrLHfPYY49Zz549/9Gt+M4771j9+vUD5+jWrZsNGDAg7DmJhsydO9e999Zbb9l7773nfiayguDDYH3qqadKSPyjWdHBIiACIpAcBJJaSFxwwQXWpk0b+/LLL23q1KluZY8RORg3bpzlzp3b/e4XEh9++KGRz//iiy8C4X/Ewbp169JFMrwpuOOOO2zkyJEuHbBo0SIrUqSIbd682UUyfvrpJ2vfvr0NHTo0biGxcePGoPqJu+++20aMGBF2xv1CgmusU6dOoB2Rlz/++MPWr1/vXkPgYNFSG6QdGDeRDIxr+uabb4KEV0ZuvQ8++MCuu+66gKjyjn3yySetc+fO5o9UhJ530KBBrg3Wq1cv69u3r5vL/v37u9eIXsS6noyMVW1FQAREQAQOP4GkFhI33nhjIN+OEGDFjmPHPvnkk0CBnickChYs6ESEZ6yAx48f73795Zdf7JRTTglLuGzZsu689913n+H8PGvXrp0TAGeeeaZzxvFEJA4dOmTNmzd3KQW/cSxRjVCLltpo2LChqyV4/PHHgw6LJiSee+45u+eee4Lac3z37t3jvruIxFAr8sILLwScPWKMyESnTp0C0Z9zzjnHHnzwQSfkQiMpBw8etDPOOCMwX8wN14qQ8Ec3JCTinhY1FAEREIGkJJBlhAT0/CmIZ555xqhDwMIJiV27drmaCgoncWJbtmyJuCqnKJLiSMLvOHzSJgcOHDAiIkuXLrUWLVrY6NGjYwoJ+mBM3s4OnPeYMWMCkRTqMK6//vqgGyFUSPhrD66++mo3JqIvGGOL5Hhx3DDp2rWra3PZZZfZcccdF0iv9OnTx6V38ubNG/VGZBcFu1G8tA6NEQyMgQJUXieC46VtvJMRAaKdZ4gyxuO32rVrO6GGqMMaN24c8XqS8q9FgxIBERABEUhHIEsJid9//91OOOEEdxH+aIU/tYGjJhXgr5nA6YUrpPRojBo1ym677Tb3K86OnRmIFu8cXsFiuIgEqQTSCLNmzTK2Z3oOmP447vvvv3epBu91HDzC5Morr7SSJUu6VbpXbEmRJO97hjhgy+Wxxx7rXgq3a2P16tWubyIR3377rWtH/QERBUQDURDEkPc60YqrrroqaoEnO0J69+7t2rVs2dIVT+bIkSPo5iEF9NJLL9mMGTNcxIaUEkaNBGkMT2gMHDjQRSaIrnjGWNu2basaCX0giYAIiEA2IJClhAS8vZy8l27gtWjFlqzwEQo4xUiGGKAg0cvd+9uxkn/44YfdS+GERGpqqp111lkBJ0472vfo0SOw+l+5cqV77gTO17Phw4cbqZOFCxcGPUOBCASig+gGNSGs8lntRxIS9957rw0bNixw3kaNGjlRgUjBtm7davfff79j4BkiJzSi4L/m/fv3O85eDUq0+xx2RDG87a1EgTzhgiiaOXOm5cmTx6WIiIhwbexmYdzxbmfNBn9nugQREAERyLYEspSQYNuh5yBZJU+YMMFNjF9IUMDHFlKeZ8CuAVIbWOhqP9yMfvzxx26HxfLly40tp6zmL7rookDTSDUSU6ZMcSkNajKINlDXEGrUTtCO8SEMqLnIly9fUEQi3Jj8gimc40Vs0AZxcNNNNwW2fYaei+gK9SKkWhAvkZ4tgejwUikZueuJOsCOayMl8/TTTzse/mJMIkXPP/+8i1iQPpKQyAhhtRUBERCB5CSQpYSE//kIOCqcnl9IhBZb+h/MRCidlXo0W7NmjfEPJ+cXEN4x8RRbxjPNrOI9B7tnz55AxIFdGqQQSEnwICxEk/9BVpEcr/98sfqP1dbbwRLrPKHvk04hzYIR0SAKgf38888uKkFdBAWt1K5QmIn4gTF1F2z3jfTAroyOQ+1FQAREQAQOL4EsIyQI0VO/QLQAmz9/vl1yySVRhQSPtC5VqpRrc80117h8fjR75JFHjFRGqCAJJyT+rSdGeufetGmTGyPG1spwOzwOxwqep3vi7EONiAepGVJFXqrF3wYRFLpzgxQPWz6jWYcOHYxHZYfWYBzePwP1JgIiIAIikCiBpBYS5NiJOiAe2AnhFRPyQCOejujtQPDv2li2bJlLbZCnf+211wIPRCKk7j2kKRKsWEKC4kciCBhOHaNYcvbs2Qnxp8DTOw/bW72nX5L+8B6v7T8xqRpW+xRn8nhu6g2ofaBOI6N2xRVXRC24DD0fKRvmgBoOtt7GsrVr1wa22zJfPIvDuz6ejUH6xKvbiCftFKs/vS8CIiACIpA5BJJaSIRDUrduXfdwKn8oPNaTLXmQE89AKFasWFTKsYREuINxrjjZRMz/bIt4hERoH6QNSCkkYozbe9JkPMdnVEggFHieBoa4O/vss4O6IepB5AfzHlYVzzjURgREQAREILkIJJ2QIJpAEaLfyKcT6ue5DqzUQ/PppDgolPQbIXh2ELCVk4coxbMDwV8YSBolmhHqZ9cFWz+9os+MTi2hfy8iwZeAUeDpWbT+2QKLo2ZlH26nSTzjQBiEOvdox2VUSPhFDnPBrhUeCEYKhG28jN8rhCWiQ4REJgIiIAIikPUIJJ2QyEyEFGSSAonHyO0PGTIknqZxtVmxYoXbRhqP4ZjZwXI4LaNCgrHxnRukk7ynkYaOl4gEW0H5YjWZCIiACIhA1iQgIeGbt99++y3wFMpY04kz59tF/y2j/iJcEWO487MjomrVqv9W13Gdh/oMalSoc8io42cnDFtDKX6lqJInZxKd4JHn8USK4hqgGomACIiACGQKAQmJTMGuTkVABERABEQgexCQkMge86irEAEREAEREIFMISAhkSnY1akIiIAIiIAIZA8CEhLZYx51FSIgAiIgAiKQKQQkJDIFuzoVAREQAREQgexBQEIie8yjrkIEREAEREAEMoWAhESmYFenIiACIiACIpA9CEhIZI951FWIgAiIgAiIQKYQkJDIFOzqVAREQAREQASyBwEJiewxj7oKERABERABEcgUAhISmYJdnYqACIiACIhA9iAgIZE95lFXIQIiIAIiIAKZQkBCIlOwq1MREAEREAERyB4EJCSyxzzqKkRABERABEQgUwhISGQKdnUqAiIgAiIgAtmDgIRE9phHXYUIiIAIiIAIZAoBCYlMwa5ORUAEREAERCB7EJCQyB7zqKsQAREQAREQgUwhICGRKdjVqQiIgAiIgAhkDwISEtljHnUVIiACIiACIpApBCQkMgW7OhUBERABERCB7EFAQiJ7zKOuQgREQAREQAQyhYCERKZgV6ciIAIiIAIikD0ISEhkj3nUVYiACIiACIhAphCQkMgU7OpUBERABERABLIHAQmJ7DGPugoREAEREAERyBQCEhKZgl2dioAIiIAIiED2ICAhkT3mUVchAiIgAiIgAplCQEIiU7CrUxEQAREQARHIHgQkJLLHPOoqREAEREAERCBTCEhIZAp2dSoCIiACIiAC2YOAhET2mEddhQiIgAiIgAhkCgEJiUzBrk5FQAREQAREIHsQkJDIHvOoqxABERABERCBTCEgIZEp2NWpCIiACIiACGQPAhIS2WMedRUiIAIiIAIikCkEJCQyBbs6FQEREAEREIHsQUBCInvMo65CBERABERABDKFgIREpmBXpyIgAiIgAiKQPQhISGSPedRViIAIiIAIiECmEDjihcQXX3xh27dvt8suu+w/m4D33nvPjjvuOKtatWrCfRw8eNB27twZ9fiCBQtarly5Eu4jIwf+73//s2XLltmll15qBQoUCDr0nXfesf3791ujRo0Cr//444+2cuVKu/LKKy137txxdfXLL7/Y8uXL7YorrrB8+fLFPGbevHnu+mvUqBGzrRqIgAiIgAj8OwSSRkj88ccf7opSUlKsaNGiYa9uz5499ueffwbaFSpUKC7HuWbNGvvss89s165dzpn7HXrbtm3tm2++sY8++ihsn5s3b7Zq1arZU089ZU2aNEnXhvFMnTo13eunnXaanXfeee71c8891y655BIbPHhw2D4QGm3atLGFCxfaCSecELYNTvLWW2+NOus48IoVK8Z1Z5QuXdq1+/777y1v3rzpjhk/frytX7/eCYJPP/3UMfN4d+jQwSZPnmydO3e2Dz74wE499VT77bffAkIHsYDNmjXL/c9xb7/9tvXv39+++uorK1y4sHt969attmnTJitbtqzlzJkz3RjeeOMNe/DBB23BggV24oknGvcIYwq1k046yZ2zfv36VqRIERszZkxcDNRIBERABETgnxNICiHBahvH61n+/PntoosushtvvNHq1KkTeP3ZZ5+1QYMGBV312WefbQ8//LBz1uFs9uzZdtddd7m3OO/u3bud0+7Ro4cTLbGExIoVK5yDqlevnr3wwgvputi4caOdf/757tzHHnts4P2mTZta+/bt3e+xhMSjjz5qr7zyir355pvuXOFsy5YttnTp0rDv8fpzzz1n8QqJtLQ0K1OmjDsXgiAcO8ZEFIGIDcwwxBDXOWLEiHRCgmudMWNG2PER7alevXo6IfHiiy/a448/HiQu/CcIFRKjR492cx1qnOPmm2+WkPjnnwc6gwiIgAhkmEBSCQlEwZ133mk4b1b5v//+uz3//PMuHI55QuKJJ56wkiVLulD5gAEDnHNjpRsa1j906JBVrlzZOO/IkSNdePyZZ56xIUOG2MyZM61ChQoxhYTnvDjHtGnTIgqJvn37WosWLcJOQCwhgbAhKvHAAw+48YQzVuW33HKLnX766YEVfWi7gQMHuuhALIMpDLHy5csb0YdIUSAvEsIYe/bsaaQbiAqMGzfORRm8iATRor1797rfmQvESqVKlVxaIk+ePK49EQmiMkRDiHAkKiS8VJF3nUcddZSbW0UkYs283hcBERCBf59AUgmJq666yq12MULl1157rQtnf/fdd85ReEKCkDkOEMP5TpgwwebOnRsU1eC91atXu4gGUYzGjRu79uvWrXPRDm8VGy0iQbSBMXlpF8SIP0LC+byIBD/j5D3r1auXtWrVKvA79QLhUhukDW666SbXDkGEkwyX3pg0aZJ16dLFateu7cYfzi6++OKIqQ0c+7fffhuIXCBKYNKyZUuXeujatauLujAGv3Xr1s1FSkqVKuXE19ChQ52488wTEvzONY8dO9ZFLnLkyGGIECIzCByiOQgJDIFB9CJRIbF48WIrVqxYOgQSEv/+B4TOKAIiIAKxCCStkGDgRA/4RySAiIBfSJAKISJBBIM8Piv20IK8ffv22RlnnOFqG6hxwN566y277777AmmESEKCc7dr184JBcL/OMklS5Y4MXDddde5tIhfSOBo77nnngBvCv6oP8Bat27tCg9DhQSOmf4RRcOHD3fCCaeOo+Z6/fbDDz+ETa342yAMIokMGDB+0i/UNiBeuAbOSzTFqxHxp0fmzJnj+FKbMWrUKCeqEGBHH320Y0J6yBMSRH+odbj++uvt6aefdsN66KGHXL0CfZC6QUiQhqGegZqI/0JIEM3iWol4IJZkIiACIiAC/y2BpBYS7777rnPmOCAcX7gaCfDg5FiphzNW0Dg2HDNOFMdXs2ZNe/XVV10qJFRIUBPw8ssvu9U37fkZp8TODtpSEMmKmpw8/7wIBw70tttuc8WgO3bscK97K+TQ1MaUKVOcg/3yyy/duemDvoi8cA5SOpdffrkTIAgDrpsdEvEY9QjNmzdP15R0A8KqSpUqLtUQahSkfv31127M1EQQxSECc8EFF7jUB2MmIuJFTYik+IstOR/RBwpXiW4QkSCFdPzxx7vogxeR8Bdb/ldComHDhq7ug2iLTAREQARE4L8lkNRCgjqJTp06BVITnpDAgeGgKAZEbKxduzYQtQiHi4LL+fPnOweJg2nWrFlgp0KokMARUjiIMCA1wZZKz0gP4BQJ9eNgiUDg9C+88MJ03RKheOmll1xEJFRIUHfBeXC8RCr8OxYQIoiMiRMnWr9+/VzxJWmbX3/9Na47gfQKKQ6/IVhIM8Rj7HpAiHD9iBIKVb1Iz08//eTqIjp27Jiu2JJzb9u2zYkHog5EKBAttCUNQUSCAs7/Wkho10Y8s6w2IiACIvDvEUhqIUEhJTUTXk1EuBoJVvEUY+L0+/TpE5YM6QmeR4DzD33mQaxdG7FQ4zDZUYGRKsDpEvpnRe5ZrGLLWH3wPgzgEc2IvhAtCTWOJWrjt0WLFrlfYeI3tlKSBuK6EDjsqEGEILB4dgRRDUQSIoFCViIp/iLX7t27u+2yCBG/cY7p06c7cURxJEaKiVQTKRK4EclBFCJYOHe5cuWCtn969wP3BP3yXA22kHIMtSsUg0pIxHM3qY0IiIAI/HsEklZI4LiuueaaoB0Z4YQEq21W9aQZyN+HM+85DaymzzrrrKAm1CaQhsDB/ROLFqZH6PBMCWoRErUNGzbYqlWrwh5OSoKCxkhbOcMd1Lt3b6OAE87RjPQA9ROkjqiBwBjHxx9/bKQQiED4jedYUL8S+oAv6jM4xh+RYHuvJ2gQBqRN2NHB8URiSCdRTOs9R8ITHqHjpcaEdAo1KKFCgogRogiBJBMBERABEfj3CSSVkMAhEO7H2RDOJxXhd46ekMBpsP2TXQikNnAWpAOofciokAhtzxZOHlwVj91///2BPmPl+73zsX0ShxivkR7hqZiIoHvvvTfqYf+2kCAygCAgyuA9i8MbAAICx+05ee91hAQFo+ecc07QWBEfFF36hUQsBqHPkSDtw9wQKeEfD9LyF9iG7togesI4uI8QTKE7UmL1r/dFQAREQARiE0gqIeENlzw/RYbsjvA/hXLYsGGB3Re0ZRWL42JnQbTHIlM0SDSAav5QB+f1SdSAZymwY+LAgQOxyZlZ3bp1A9tQqZdgxwMih1VxqOH4qM3gSY44yHiNHRPUaXjPsyB94T1MKvQc1CKUKFEirlPHE5EgdUAEB4FHXQrRAupEfv75Z/ccClJGbMUkleMXEtSMhBZ8UrzKNt1/IiRiXViokEhNTXXRKgQFNSmH6/Hhscap90VABEQgOxFICiHxXwMlunHHHXc44RFpVcrOCXLyiZr3vAWKQMN9lwSrZ1IsiRpPriR9Ec2IpsSbPolHSNAX2ymJingRIq9/RBS7OCgm9Rv1IN5zN8KN9XAKiURZ6zgREAEREIH4CRwRQiJ+HEdOS1IEPI2yePHicV00dQbULBBZIXXhPUcjroMTbMSTMomKECkK910coacl2kPUIVxEKMEh6DAREAEREIEYBCQkdIuIgAiIgAiIgAgkTEBCImF0OlAEREAEREAEREBCQveACIiACIiACIhAwgQkJBJGpwNFQAREQAREQAQkJHQPiIAIiIAIiIAIJExAQiJhdDpQBERABERABERAQkL3gAiIgAiIgAiIQMIEJCQSRqcDRUAEREAEREAEJCR0D4iACIiACIiACCRMQEIiYXQ6UAREQAREQAREQEJC94AIiIAIiIAIiEDCBJJCSKxcvz/hC9CBIiACIiACInAkE6hQMk+mXn7SCImShTMXRKbOgjoXAREQAREQgQQIrN++3yQkzIyIhIREAneQDhEBERABETiiCUhI/D39EhJH9N+BLl4EREAERCBBAhISEhIJ3jo6TAREQAREQATMJCQkJPR3IAIiIAIiIAIJE5CQkJBI+ObRgSIgAiIgAiIgISEhob8CERABERABEUiYgISEhETCN48OFAEREAEREAEJCQkJ/RWIgAiIgAiIQMIEJCQkJBK+eXSgCIiACIiACEhISEjor0AEREAEREAEEiYgISEhkfDNowNFQAREQAREQEJCQkJ/BSIgAiIgAiKQMAEJCQmJhG8eHSgCIiACIiACEhISEvorEAEREAEREIGECUhISEgkfPPoQBEQAREQARGQkJCQ0F+BCIiACIiACCRMQEJCQiLhm0cHioAIiIAIiICExL8kJF4a8azd0up2m/j6WDu9XHm7qGatqHfXt998bdOnvGkPPtTXtdu9a1e69jlz5bJ8+fJZ29ub24BBw6xQ4WNi3rED+z1i9Rs2tjMrVU7Xlj4OHjyY7vVChQvbu2+/ZXv27LEbbmye7n2O2blzhx1zTBFLSUkJO4a9f/5p97VvY88+/6rlzp3btZkzc4Zt2bLZbrzl1pjj/nTBR7bqu2+t1e13p2t76NAhO3Qo/bhz585jP63+wcaPfsUeevSJiH0sXfK5TZn4uj02YHCgzbDBA+3CGrXs3POqB16b9/6ciOc4p9r5/5j/2jW/2KaNGyL2cWrZ06xI0WMjvh/tHvti8Wc25c3x1u/JIVGvMdLJ3546yVIPpVrD65tGnauvv/rSZr073bp27x1zTtVABETgyCAgIZFBIbHw4/m24utlhlPASp1S2i6qUcu6dmxr4yfPsJdGDLVKlc+2qxs0CtxBq39cZa1vaWLzP1seeO2LzxfZiyOetRdeHe9ea3VjI+cs/7d2jfv95FKn2Gnlytsj/Z60WtUr25R33rdjjyvm3jtw4IANe2agzXl3hp1Vpaq179jVSpUu495DdLS+s52dV/2idHfw4Cf72dRJEwLnp69yZ1Sw4S+PtjfGvubEwj0duwSOW7Z0iY0YOsj+2LzJihQp6pzg2edUsw73PxAYy7wP3rNf166xXTt32OtjR1nL1nda3rz57JTSZezXX/9nG9f/bh27dI/513TfPXcYDt/PyDvo+WGDbe7sdwNOuFjxEu6tESPH2ob1v9sTfR+ysRPfTtfH8CFP2f79+2z+++/Z1q1b7LomzVyby6+42saMesnNUe3L6rrXUlNT7dILq1jTm1vaUUcdHXSuia+PsUHDXrIKFSv9I/7vvzfLvlq6xJ3jvVnv2J49u61m7TpW9G/xUP+66918ZOQee6RnV9u3b687BvMEbKPrb7RJb44LusYZUycb4vSq+g3TsRr18gjbv3+/3dmuoxObzEdaWlpQO0TiZ59+YuNeG2nDXnwt5pyqgQiIwJFBQELi73leuX6/lSycJ+asr/p+pXOcfXp1c217PzbQypU/09q0bBZRSHy/8hu789abogoOC951AAAgAElEQVQJr2NEA87kpdF/OXyM196cNsuOK1bCcubMaaxMf1j1nd3frZd9OHe2zXpnuo0cO9Fy5coVVUhwrp5dO1q9qxvYueddYFfXucg+/HSZ5ciRw0a/8mKQkFj7y892120322MDnwms2okMTBj3mrF6HT/5HRed+PKLz23jhg1OBG1Yv95KlCxpOXPmshIlj7eV366IS0hs+WOz3dKkgXOsOGx/lMA/IbPffdse79PTcWQsREGWf7XUnn36CXt9yrvp5o6x7d+33375ebXt2rXTSp96mh1T+Bg75dSyNrBf77BCYsbcT6xgwUJB52p+QwPr+Uj/gJD4J/w90dKzW0fn/Nvf1y1dFCgj99jPP6227du22pdfLHbzRzSsXPkKVqxYcevdo4tdfMmlVqfulS7S8eJzQyxv3rxhoz5+IXFg/367vGY1e2XcJDv66PwBFsefcKIROZKQiPkxoQYicEQRkJDIoJDw7o6rLr3QfShPnTXPvcTvkSISy5Yuto5tbw84bdqHRiR47c8/99iVtS9wq/+Jb78XSBEgJDDCzoiHJg3q2oDBw63saeXcqvHm669xDp/fo0UkMiIk3nx9jP3y02rr1vORoD8I+mt01aX29LAXXX8YwuK5IU8bjub3db/Zfd162hVX1XcRCtI3997/gFU997x0K33EwIKPPrRBAx6z65vd4tIxvbp1clGNaxvfYPnzFwjqm7TNO9On2PCXRtu+vXvtqScetXW//erahItkIDQ6trvdcUTYwLxz94etZq3L7N67brXly5a6PolsBCISN7WwPHnzBvU75c3XgyISifLnelcsX2avvPic5cmT2zp26WHt27S0WnXq2vVNb3HRLb/Fc4/t2L7NWja7zi6qWdtd46x3prlUEvfKdVfWdpEY0jKDh7+cYSHx7vsLLX+B4DmQkDii/IMuVgTiIiAh8Q+EBCtoz4Hh7K+5trFzdA/06hOU2iA/P+Sp/jZ6wlQ7pfSprsdQIUE4uf+jvSzfUUfZ9m3b3KqYlAA1Ev7UBs6xXu3qNvfjJZY7z18RFKIMda+8xmrXuSKikMCJIQ6eHzrISA1Uv6iGEequccmlVq36hbZzx46giASr+aef6GsjXhkXtEL3oiuz53/uxrZ3716rV+t8G/X6W1bm1LLmvf/+gqU28Y2xrj+c2q23321Fjz0ucFNu3fKH3Xx9fTut3BlOOHipGFJGr4183q3W+zz+lJ1/4cXuGBwY47n9rvY28oVh9tSzz1vpMmWdY46U2lj82UInUrzoycwZU13dBk61a8e77ZJLL7c6V1wVWHXP/3BuIJzfu3tn15eXMnI1EoUKuyhIIvy5hgfvb2+7d+9y90bFSpXt6QGP2eNPDrFJE8a6VMe1jZta05taBBghJGLdY59/usBIWXkRmZkzprkI1ZARI63bfe2Coi4ZjUhEEhJcB2mYi2vWdmk9mQiIwJFNQEIiASHhnMFlf9UgeLULOPs2bTu4tINfSLDSbdmsoRUsVNhOP6O8iyiEConNmzdZp7atnYN//KlnXY56wGO97X9rfrFXx092uXuvH2/lPG3WfDumSBF3LlbXOOpzz78gakQC4WApKW41fNTR+a1AgQJ27LHFrHiJkvbB3Fm2a9eugCOjH+oj3hw/2tUW0O6rL7+wJZ9/an36Px2oLUCg1L+8hotC1Kh1qUu1vPTcszbl3Q9swvjRUVMbRGBC6xG8P0dqG0iRkMp5YfgzNvPtqdZ3wGA76+yqNm3ym0bdBDl76gMiCQm4trjhWruxeSsrXuJ4V4zIGCno9DtZUisfz/sg6JNg0MDHrHHTm63038KPN6lHQbwwHxnlj+Das3tXoFj1px9/sPvvvdOmzvww0C/RHgpqSVHFe4/t2rnT7m59s5U9/QwXEaKWhBoZxMp/KSQGDn7OTipVyk48qdSR/QmqqxcBETAJiQSEBDli8v8URG7csN569O7nnGm41Aa55wUfzbMnBg2z5jdca90f7utWwv6IBA5k6eLP7JzzqgftiqDIkQJLCuqokvfCzO3vbGXXNmpiV1zVwHCW119TJyA0YqU2WHWzyyGcXV7v6qB8PYWMTRvWc6t/Igjbtm61V18aYTM//DTo8G9XLLeRLwy3Nb/85KISd7TtYGeUP9OlNiIVWxIpWLrks8B5/EWm3ouIDGpFiCyUO+NMK3zMX7tWCOev+eVnO7Xs6bZt2xab/e4M5zzDGdewaMHHtmPHdld7QoSD2g6/k4XhB+/NivlxUOWcau4cifCfM/Ntt6PHM1IOFK9yPr917/2Yu66M3GOcZ8nniyx//vxW9vRyAecO/6rnVLPyZ/5VJBoakUCwbli/zgk2UiJesaVXIxEakUBcqtgy5m2iBiJwxBGQkMigkGA1zGp1zJvTrUjRota9871WvkJFe2f6W0FC4qr619nQwQPdSvqFUa+7/Ddb9O5v38ZFJU46uVTQrg0vsrB508awN+GIkeMCEYiV36xw57myfkNbvGiB1bniarutTVt3XCwhwUp/z+496fqYMP41Fwnx79rwhISXviFtgagJLWwksjB18pt2U/PgbZ7RhAQh+4MHDgTGMWnCeLf9s0fvx4LG5t/yinNlB0WJ40+wAgUK2rrf/mfHFClqXbo/HKjXCL0wnB81HAs+nmfrfv2fS8Ugdtj6ye4FLyKCYyf6EskaXNfETjjxJPd2ovyJfHy5dIkrfoxm8d5j3s6gGdOmuEhR5wcfCjrtIz26WoNGTQLRI6/WhqgKEQ8ECD+z5Xfz5o0BIeGlqy68+BLLkyePS3l521bv6dRVxZZHnJvQBYtAdAISEhkUEuSyTzy5lJ1Z8Sx3JB+6bH1s0bRhuojEpAnj7MKLawaFf71to5s2rE8nJMi/p6alppsxcuX+7Z80+O3Xtfb5ooVu9Uq4n50X8QgJcujscjj2uP+vV/A6RJg0b3WHiyz8uOp7VzhJqubhvgP+dqBfu7oH73d2fpBeIXLS+Jo66QoeidawykU0xbK3Jr1hP3z/XbriTu84rpeaionT57hUjGeM55P5H7qagHDGsyGeefJxlzIqdUoZS7M0+3n1j/bAffe450qQDsIQQ4sXLQx7jmcHDbBefR63KuecF3g/Ef7R6jn8HWfkHuM4hMTwZ54M1HN45/ru2xVBaSjEErUwFAnny3eUFSxUKHDf+HdtECGjQDglJYdLLdGWeSY6RkSCiNbQF0a5bkitPNi5vbXr0Dnss0tizbveFwERyPoEJCQyKCQiTXm0XRvhjgm3ayPSuUOfIxHttosVkUDcvD9npvV9YlC60xDyx1nw0KFFCz+OeXdf2+gGt1OA8HjThle63RThrELFs5xDimaxhASRmuvrX269+vS36hde7CIJGzeudzsg9u3bF/SwKX8/pHIGD3jM1VeUPrWspaWmGs/16NGlY5CQiDY2tvbe06lLkJCI1D4a/88WfuJSKpE4nVGhYmCnTrjzR7rHEBKffjLfiBb4jTqbRjfcGIhIRLtGv5CI1i501wbRii4d7rb2nbo6QSsTARE48ghISPxLQgKHdcFFNd2OAhxCrPA1hYvjRo80itZiGdv4Xn19itsWGsuoqKe40L969h8z5tWX7OXnh4b90CdXHmllH61fdpnc3uIGO7vquWGbkXqIVFTpHUCkhKdU+lMroSdjhc2zJHhwFc+tQKDwDI+r61+XbpuidyypDaISPI2R4lXGccJJJ9slteu4nS6RntTp7xvn3/K2O61S5Sqx8LudGZH4E3FhZ06ZsqeFPQ/OONqTLSPdYws/mW8TxoUXcbffdY9VrnJOzHGT1tl/YL+LSEUzBDAPuur/1NCY51QDERCBI4OAhMS/JCSOjNtFVykCIiACIiACwQQkJCQk9DchAiIgAiIgAgkTkJCQkEj45tGBIiACIiACIiAhISGhvwIREAEREAERSJiAhISERMI3jw4UAREQAREQAQkJCQn9FYiACIiACIhAwgQkJCQkEr55dKAIiIAIiIAISEhISOivQAREQAREQAQSJiAhISGR8M2jA0VABERABERAQkJCQn8FIiACIiACIpAwAQkJCYmEbx4dKAIiIAIiIAISEhIS+isQAREQAREQgYQJSEhISCR88+hAERABERABEZCQkJDQX4EIiIAIiIAIJExAQkJCIuGbRweKgAiIgAiIgISEhIT+CkRABERABEQgYQISEhISCd88OlAEREAEREAEJCQkJPRXIAIiIAIiIAIJE5CQ8AmJhCnqQBEQAREQARE4gglUKJknU68+ZefOnWkFChTI1EGocxEQAREQAREQgaxJQEIia86bRi0CIiACIiACSUFAQiIppkGDEAEREAEREIGsSUBCImvOm0YtAiIgAiIgAklBQEIiKaZBgxABERABERCBrElAQiJrzptGLQIiIAIiIAJJQUBCIimmQYMQAREQAREQgaxJQEIia86bRi0CIiACIiACSUFAQiIppkGDEAEREAEREIGsSSAphMT3339vKSkpcRNMS0uzM844I+72aigCIiACIiACIvDfEEgKIfHjjz/aaaedFvcVZrR93CdWQxEQAREQAREQgQwRyHZCIjU11Q4dOpQOQq5cuWzGjBn2xx9/2K233hoR0tq1a+3TTz+1Zs2a2d133219+/a1YsWKZQhquMarV6+2jz/+OKjviRMnurHeeOON7pDff//dZs6cGbGv1q1bZ3gcjzzyiDVu3NgqV64cOPZ///ufff7557Z+/XrbvXu3lSxZ0i644AIrV65cuvNPmTLFatSoYcWLF3ftP/zwQ7vpppvs9ttvt8GDB1uhQoUyPKZEDjhw4IDlzp07cCi/33bbbfbCCy9Y/vz5051y69atli9fPjvqqKMy1N3bb79t27ZtsxYtWqQ7jrnatGmT4xXOvvzyS+NfODvhhBPsyiuvjHsszz77rGM8duxYK1++vNWqVSvqsV9//bW9+eab7n7Fdu3aFfZvACbNmze3YcOG2THHHBPUpl27dtamTRurWrWqe/2HH36wF1980Z588smY42Y+WrVqZa+88orjHs169uzp7qFKlSrFPK8aiIAIJD+BbCckJk2a5D4kt2zZ4ugXLVrU/f/UU0/ZihUrnLPu3r27e40UydChQ+29996za6+91n2ILl261IYMGWKvvfaaXXjhhcb5TjzxxKCZRGx07Ngx8BoiAStbtqz7v3DhwjZq1KigYxYuXGjPPfeccwye8fv+/futU6dO7iUc2FdffZXursEpMObly5eHvaP4EB84cKATSjiBrl27WpkyZVxbnAYO4qKLLnK/f/bZZ66/li1buvRQzpw57bfffnPj4sM91IE2atTI+vTp44TIt99+636eMGGC+x1RceyxxwaNiWvo3bu3e433zj77bNe3J8b87yMMjj/+eKtXr15Ep4Jjx6lu2LDBXRuOslSpUrZv3z4777zzbMGCBVawYMF0XBhfw4YNA47V36Bbt242a9asIAHCNXHekSNHOrHw4IMPpjvnJ5984lhGmodffvnF1qxZk+445hR2zz//fLr35s+fb8uWLTOOxUqXLu1EQ9u2bd18cn/CkHnwbNWqVdakSZOgcSxatMhxGj9+vGtG+4MHDwbGc8oppzhBgiiAzfvvv+/mhP65xzF+xugfgYiYxukzB9jevXvtnnvuceINYe43bz64z/nunmnTphki1G+MuUGDBu68nTt3tvPPPz/s/awXRUAEshaBbCckQj9svQ82Xse54wRwEjg5BMSrr77qfn/44YedA+ZDMJaQYGW6c+fOwExfcsklVqFCBfcBi1HvgZjAODcf8qHC5uWXX7Y5c+YECQmEDmImNDKAUEBweB/4obcYDuS7776zXr162ezZs2369OlGtIMP+1AhMWDAAOdgcBB+w1kgJnCoGCIKI2KBserHARCtiSYk1q1b51beTz/9tBEV+Oijj5yAw8GxKvfex0FiCDfmgGsLvW5qZ4geMW+kvrim0aNH27vvvhtVSBCVqlKlil1++eU2aNCgdH+RXbp0cc4SpxZq0YTEW2+95UQSkSVvfv3Hc41cC9fpN+bvzDPPdPMTaitXrnTOHnGDIQhpC+tIQuKbb75xos8vaEKFhNcPooF705tXXuc1hFSJEiXcfbxx40Y3RwgUohTVq1d3QoK5v+uuu9z9hFjjvkEULlmyxPLkCf62wVAhgWjavHmzixp5xjk8gSIhke5W0AsikGUJZFshMW7cOMNp8sHshZRxSDgWPlifeeYZt9qrXbu2XXHFFTZ58mT3QcrqOJaQ8M/2zz//7Fa+RD74cI4U1mV1RprB/+EfGpFgRXjvvfe6cYezmjVrOqETanXr1rXhw4c7R0yU5ZprrnHXx++hQsJbzbJCve6665zYIErBapt+r7rqqsDpibzwHhEZhAVOL1ZEwhMKnA+ngVN/4IEHbMeOHU5ohb5PZ1dffbUTDE2bNg26NEL1rNYff/xx9zoCjqjEBx984BxbpIgEouTRRx914od5DXXsRBUYHykbjLRNxYoVnZjhGm+++eZ0EQmc6g033ODEEat9z/H7B4xoROSEmz+iLwibSAbfvHnz2rx581wTfo8kJBYvXuzSHrDJkSOHax9OSOzZs8elrLg3Ec1eashLc8EbcYP44f5EWHlzjmj66aef3P1DpI37kghCRoQEEQwv2ua/bkUksqy/0MBFICyBbCkkKMYkRM+HPUKCVMe5557rVrb+1AYOo0ePHi6sjsPkA/XOO+90To0PO1Zx1CyEpjY8kjhlQr3t27d3uXHO3b9//0A6xU/8jTfecA4xmpBgBTd37tyItyqCKDSv/eeff7oVpH+VSNoFMYFAChUSnJyw80MPPeREAY4IJ0KYm/SPZ+THSX+w8sVJ4UAuu+wyV8+BGLv//vvDpjbCCQW/46POgutAdGG8x1jCRSS4JiJFsEOUUNfBtZHOYJUfKiQQGkQtPCHIuMeMGePGe9ZZZwWu7b777jNPSPEiYuq4444zWJLj59z+1AbOld9xqPQPlzp16ri59wtHREi41BR9sIKnViWakECsePcHzp72zA3z5E9tvP766+4+mzp1qp166qlhhQTRA0QCNSKkk+BHeozx+lMbHMzfAfc89wuGuCaihPDwpzZIsf0bQgLhiCDjPmDuPTGkz2gREIGsSSDbCQmcP6txPviJFJDH54OYD9Vff/01SEjccccdLud9zjnnuBA8H8w4Xj5UiRbwXjghQRqBEDvn5oO2fv36buXNipvX+R1B4i/SpHCTNAvFa6wSMX9EAodBuiOW4SRPP/30QDMvjE80o0iRIu51xk9/9OMXEvRBLp5QNakWr+jUq+fgd1bFOEgiHEcffbQLTSNwWK2+9NJLAafDMeFqJMIJCeobiJp44gEHwiqZcDjOk9QQIiu0cJNrY3XPeImuINzI8RNJCK2R8CIqjPmxxx4LMCJlw7mpM+B1BANjQRQQIWDVDAuiF6zy/akNhAnzS5QBscj9gtOjhoKIBwWO3COs7Ik2IXSiGfUoXr2Bv53noHnNq13A2Xfo0MHVPfiFBEy4r0mtUPPgpUv8EQnGR2EuqQuOR1SQkmHuidCQ9vH6oU8iP8wt4pM0C0Kc1xCT/4WQQBQhSIi6XHzxxRna+h3r70Pvi4AIHH4C2U5IkOvFIVE4h5ED5oOVoj4cOSF2b3XXr18/O+mkk1y1OY4Tx4GTipXaoDiR3D4rN0LsOBVC7jhb+mLFzIeyF0pGpFAkSF6YfqhFwBGEpjZw2DjLcIYDI/IQ7nkbjN8rZKN/Vsueo/ALCVa7Xq1GpFuNfnDsI0aMcOPHeXJOilEROlxrPDUSXmqDfnC4t9xyi4s+sGsGIeG9T4QCB8+ceSmM0LFxDNEeBBRCBwsVEowRoYhgCF3hEmnAyXNd8KM2BYdJOyIFRHlY2ZPeCK2RwEFTlOqJNP/YcLScwyuyJRXA9YQz5pvzhzP65L4lSsLx3Jfch+FSG8wL6Q+ibMwJ9xWCyC8kSG8RYQu9X2CEuKUWCGHhT5MhCkmFkOYhekPkgkgMKQ6vsDhcRGL79u3GLiBqWEh9eDVJ1EiES20ghIhyqUbi8H/Yq0cR+K8IZDshASg+SElTEB3AARDeZaVMKJx0hxcpYLcFjpYPZFa9hNdZPccSEqGTQXqkWrVqYUPXrMJZUXrpFULSfNiScuHD279rg/GQyw41VpREMnDEniP1t/GKNFmpImIIHVP1j4WmNjgXQoZUDI6CEDNiiPoLoihe6gSnyKoWQYRTYhVPm4zWSDAGBBMREwRIuIgFUR8iD159QOj1Ew0gR+9/CFmsXRux/mCobWFMoVuBoxVbxjon4oi5CDUcLSKHnUChxsofIcX9R5SG60Rw4MD9QoJ6Fu4ZomakNtjdwbxQnEtUAuHs37VBP1wbhZThjBoivzgiOkBUwhPgHMNOE0SNF0XxRCqCB9HNvcP9iJAiUoSw9oQE4pZ7jJojhBwCFuYIGP42JSRi3U16XwSyDoFsKSRYeRMWRhgQysZwoHxgswqjat8zKuDZicBqlfB5PNs/EQf+Z1WQe6bOglW3Z/TLCg3HS6oDoeGJHJwG7dlh4RcS5NgRDOGEBE4vkpCgPaKAD3FW7URHvFV5qJDAgbzzzjuuHsIrQiRKgyPnmp544olA90QBqFOgRoT0TzzbPz2hQEEkK1jGTb7dS+n4hQROiJ0ZOCucUaSIBJEe3vPXOTBIVtCkMjAcMqvdaEao/9JLL3VNWMEj7vzbcXmdegJqJBCb0Woe/P0QAaI9jp9IUKghTonuhBMSzAXO27s2VvHMB6IwNCLB3CHm/M7e2zZKJCNUSODAwzFBNPhTG4yX13g+hv+5G97OJE9IcC76o6aEdqSDPP6huzaI2vGPdA7Xzt8d/L3dP34hQZ0E1x9abJt1PkY1UhE4sglkSyHB6o9VOZEF8sGEr1kVEg3AkUR7IFU8QoLwsl9I8DMhc39I/eSTT3bOIJqFpjZYkeN0eT2c8UHvfyhTPLduqJCgToIVIY4Z580HPc6dfglrU9wYyTIiJDgHToMQPatpcuGYJyS8PkgtkS9H+EV6uBX1AhRIeg9K8o+PlTlRFJxsuAeR+duS3iKygiEGiU4RtQo1GBMVQGR+8cUXMTGz0wUhgRjzHswUehDOF0cab2FhtF0b4QYUaftnuLahxZaekKC2yF9YjMjjtXB1HaHnDRUS0aCF7tqgngkh4RfiMaGrgQiIQNIQyJZCArrk5XEufBgSjSAcS/Ehq57QPfD+2SBcyzG0pe6AVWukJxn+01mkYJGxUYeAsWOD3RCkYMIZe/oz+hAf0gKEmb1zkvYhIoJooaiOFSVFe2yJpXYkXOrEGwurdaI9RG+IEnipo3/KIdbxMGHc4cbGfBItyajheEnlIDhDjRRDuO2dsfqgfoQ0Dc+BCGeItdBdN5HOyb1A9IH7D1ET66mYCB7SMpFEqL8fUhAISu9hbbyHUCMSEmpErbynZUa7fgQUIo3CVC9KEak99zHFwOGEYSzGel8ERCD5CCSFkNCXdiXfjaERiYAIiIAIiEA8BJJCSMQzULURAREQAREQARFIPgISEsk3JxqRCIiACIiACGQZAhISWWaqNFAREAEREAERSD4CEhLJNycakQiIgAiIgAhkGQISEllmqjRQERABERABEUg+AhISyTcnGpEIiIAIiIAIZBkCEhJZZqo0UBEQAREQARFIPgISEsk3JxqRCIiACIiACGQZAhISWWaqNFAREAEREAERSD4CEhLJNycakQiIgAiIgAhkGQISEllmqjRQERABERABEUg+AkkhJPhmTr49M17jC5z4dk2ZCIiACIiACIhA5hJICiHB134XPuaYYBJpZhZBW2zfts34+mmZCIiACIiACIhA5hJIPiHxt4A4dPCg5cyVy9FJS01zXyOdI2cO93s8QmLt2rX2xBNPBH2tMudo0aKFe61QoUJhyW/atMneeecdu/XWW+3ee++1nj17ZuhrxPn68jfffDPw1cuc79ChQ0F95cqVy4477jibNm2a++pmxhRqW7ZssYIFC1ru3Lldm5w5c9pXX31lfF0zX+3MV6Q/8sgjgcM2btxoXHPp0qXduT2DQZ06dSJ+NXmk2++xxx6za665JuirnhkvX+XNV1rD8qmnnnJfe87XY/Na5cqVM/duVu8iIAIiIAKHnUBSCQkEg1mapeT4SzA4EZGWFkh7eD9HExJz5sxxDvWbb76x999/3zp06ODOgzPFyZ599tn2wQcfOGc7duxY++OPP2zp0qV2+umnO8d97rnn2oABA+ztt9+2unXr2ksvveSOC2erVq2yJk2a2PLlywNvL1q0yJ599lkbP368e+2+++4zxITXBmdbrFgxGzx4sI0cOdK99+CDD6Y7/V133WW33XabXXDBBc5RH3/88bZnzx4nJC6++GLr16+fTZgwwR33zDPP2NSpU61atWq2ZMkSa968ud1xxx3uPc5zww032OWXXx7Ux86dO+2KK65wr+3evdv9nz9/fjvzzDPduFq1amW33367XXLJJTZ58mTbsGGDPf/8867d3XffbWXKlLEHHnjAFi9e7K7x5ptvtho1ahz2G1gdioAIiIAIZC6BpBIS4VCkHjpkOXLmdG+lHkq1lBwptmP79oipjc8//9w5vT///NN++OEHq1SpkuXIkcMJBJyxX0gsWLDAcKjdunVzTvDaa691AqNPnz5xCQnEyk033RRVSHjXhChhXAiKbdu2uSgDIgXnHUlIlCpVyk499VSbNWuW1atXzwmJrVu3OiExZMgQJyR+++03J2ZoU7hwYSdMEE0DBw60okWLOkExaNCgdELCzxpxw/UTqfHMLyQ+++wz1++aNWucqPOiHkRtJCQy9w9YvYuACIhAZhNIKiFBxAHDWaWlIhr+ikz4X+f3WKmNSZMmuVV8kSJF3Ap+2LBhNnToUPviiy/c6tuLSHjwcaSs8Bs0aELSjGsAACAASURBVGBEGTp37hyXkMCJsmpftmyZEytYaESC1/bt2xdILcybN8+ImuD4iYSwko8kJBARZcuWdW0vu+wyJySIdniGKOEf6RciKB4rxFK5cuWsYsWK9tZbb0UVEqmpqValShWXliBCE05I7N2710U2MHgSuYEp4swzRIgiEpn956z+RUAERODwE0g+IZFmLupA9MGriXBC4u/XYwkJz2njQHHCo0aNshUrVrh8PufxRyQ4l+dIu3TpYi1btnRCghU+4XtC+dOnT4+Y2nj99detf//+Lq2A0w8nJKiP6Nu3r3PAFIiyuidaULx48X8ltXHw4EEXSaldu7aLVMydO9e+/fZbe+ONN5wgi5Ta8G61V1991QkVIjOdOnUKpDv8EQmiPAgzIiAwpHaCa0AEKSJx+P9o1aMIiIAIJBOBpBIS4cAECYrUVMIVUVMbONaaNWu60D8rZiIRhPsprkQk4Pj8EYkvv/zS1QOwgp84caJLhyAkcP4PPfRQRCGBAGnYsKFLJ5QvX9569eqVTkjs2rXLFW0ec8wxribi6KOPdit5RM7s2bNdBCBSjQR1B0Q3KG5EHFHUuH379rA1EqQdiMKsXr3a1Xo0bdrURQ2wSEKC1Mrw4cPd9VEDgZCgLZEPIiRt2rQJ1EgwRsQK7yOIXnnlFTd+IhASEsn056yxiIAIiMDhJ5B0QoKUBmLBe65EaIojxVJs+/bo2z/nz5/vCiZxsBQPIgrY/UDdRP369QNCAjHQvn17JzxIDSAMqlatGldqY8SIEUaaAmGAk6UPChpDUxsIFcbgFTQyxQiMAgUKuFQLEQt2PMRjH330kYugEP0gCuIVknIs14zVqlUr6FREEbgmhJLfqNN44YUXnGCglsIbF+ch4uCPSPAetRiffPKJS+FQgElE5dFHH3VpFcahYst4ZlBtREAERCD7EUg+IcEuDTj7HlD1V2rj/3dzxKqR4HB2bFBoWaJEicCs+VMb1E8QcWC7JivyX375xe68804XjWC1HWnXBucgrI8jJ7VB4SHpChwyUQkKJP27Nuh8xowZrgaDnQ5+W7dunRMR4WokaIdQQbCEM4QB4sUzBA3na9y4cVBzCi1bt24dsdiSbaQIiauuuirouFAhwZtEMUiZrFy50r7//nsXnYAxx1JMmpGHimW/PyVdkQiIgAgcmQSSTkgwDW6nBsWLKSmWN+2Q7UvJGbQNNB4h0axZM+vatavbEuk3TyCQMnj55ZetUaNGgecurF+/3qUaevToEbXYEudLFAPR4BlCBOMc4YQEK/0nn3wyaCxjxoxxK/1IQoKUBs471IhysEXT2/7J+wgJhAeFk36jZgKBE7r902vDcyZKlizpUjB+o7AzT548xjMvPIPn/v37jXoSnmVBG4QY9SSkafQciSPzQ0RXLQIicGQTSBohUahwYbdTg62eQc+OOHDQUnL/5cwQGOzkiLb905tOnFq7du3ccxhCjSgCdQvhLCO7NsIdH27XBhEJ/pEG8Bu1EjjjSEIi0q3pL3702iAkqKGgYNRviAgeeBVJSLA9FLGAGAg1IhV+scQ4ETbUa1A4Sl0FQoIiTaIz7BKRiYAIiIAIHFkEkkZIpHtEtjcPYR6VHU9EwnOQ4QTDLbfcYmeddVbYmcY5suKnDoC8P7UWGfleD+oeiBb4n8mwcOFC91o445kP9JMRY8snO0r8fUyZMsU9kTOctW3bNl1kxmvHORAmRCVCjWJVHmblGbUdpDY+/fRT+/33311UokKFCm63SDjBlpFrUlsREAEREIGsSSAphIS+tCtr3jwatQiIgAiIgAgkhZDQNIiACIiACIiACGRNAhISWXPeNGoREAEREAERSAoCEhJJMQ0ahAiIgAiIgAhkTQISEllz3jRqERABERABEUgKAhISSTENGoQIiIAIiIAIZE0CEhJZc940ahEQAREQARFICgISEkkxDRqECIiACIiACGRNAhISWXPeNGoREAEREAERSAoCEhJJMQ0ahAiIgAiIgAhkTQISEllz3jRqERABERABEUgKAhISSTENGoQIiIAIiIAIZE0CSSEk9F0bWfPm0ahFQAREQAREICmExK+//mrpvv0zzLd+etMVz7d/ampFQAREQAREQAT+ewLJJyT+FhCHDh60nLlyOQJpqWmWlpZmOXLmcL9HExKpqal26NChdORy5cplM2bMsD/++MNuvfXWiGTXrl3rvia7WbNmdvfdd1vfvn2tWLFi/3gmVq9ebR9//HFQ3xMnTnRjvfHGG935+WrumTNnRuyrdevWMcfB9fXs2dN9zXg4++WXX4xrDGd85XrlypVj9uE14CvFL730UpswYYLxleN8nXgsa968uQ0bNsz8X+/+2Wef2fjx423IkCGBwwcOHGi1atWy6tWrxzqlTZo0yZj3pk2bRm3L18NPnz7devfuHfOcaiACIiACIhAfgaQSEggGszRLyfGXYMAQECkpKUE/RxMSOBUc1ZYtW9wxRYsWdf8/9dRTtmLFCuesu3fvHjjf0KFD7b333rNrr73W2rRpY0uXLnUO7bXXXrMLL7zQOakTTzwxiCaOuGPHjoHXEAlY2bJl3f+FCxe2UaNGBR2zcOFCe+6552zs2LGB1/l9//791qlTJ/fatm3b7Kuvvko3c7t27XJjXr58ecxZXbRokd155532+eefW758+dK1f/HFF+3999+3atWqpXvv5JNPDoga/5sfffSRffHFF8Z15s6d20qVKmVXXHGF9evXzx588EEbM2aM1alTx6688kp3GG0HDx5sGzZsMIRDq1atAqdDqNA/4qxr1662d+9emz9/vnsf4YAhrMaNG2eNGjWyunXrutcmT55siMGGDRumG/eIESMcR+bk4MGDdscdd7j7xm+vvvqqffLJJzZy5Eg3tzIREAEREIF/h0BSCYlwl5R66JDlyJnTvZV6KNVScqTYju3b7aSTTopKYNWqVdakSRPDgRcoUMC1xbnjjHF+xx57rBMQOBh+f/jhh51jo20sIUEUYefOnYH+L7nkEqtQoYK98MIL7jWED2IC49w491Bh8/LLL9ucOXOChARCBzFTrly5oGs7cOCAa4eoiWaM65577nHX3LZtW/cv1BASe/bsCYiXeG6j77//3kUxOnfu7Jo//fTTVrFiRevSpUs6IYEYuuqqq+zRRx91wqp9+/b2wAMPBESCX0ggTLZu3WqLFy+2HTt2WPny5R3H4sWLu3MT7UCcMFfMSd68eV2UKNT8QgJOiCRY5c+fP9AUMYggkpCIZ8bVRgREQATiJ5BUQsJbReKI01IRDX9FJvyv83s8NRKsaAcMGGCEyL2VMkJi0KBBzlk988wzRjSidu3abnXNihfxUa9evZhCwo/3559/dqtkIh+zZs0KGwWg/ZQpU+yRRx4JiiqERiRYmd97771u3OGsZs2aAVEU+j4ihKjL0Ucf7aIXd911l5133nnu/xNOOCHQnJTNypUrrUWLFk4c4MArVark3i9SpIhbzUcyRADigGthTog2hEYkPvzwQ8eSqBA2depUF6EgRYT5hQSi47rrrnNzcPzxx9u0adNc6ocUBa8hvs4//3xDdGVUSPgFpHc9EhLxfzCopQiIgAjESyD5hESauagD0QevJsIJib9fj0dI/Pjjj85RduvWzQkJnBo5fISEP7Vx8803W48ePZwjJU9PdIK0AM4Mh0vun5qF0NSGBxfhQQSAVTf5d87dv3//QDrFPwnUEzz++ONRhcTmzZtt7ty5EecOQeSvLfAa4tBxuoz7+uuvt5w5czqBwPW+/vrrjkW7du1cc2ok1qxZ436mLoF6EAQVhghBfEQTEggm+iH6snv3bpeq8ac2XnnlFde3l65ZtmyZtWzZ0s455xx3WlJHXmpjwYIFLj3y7rvvuvcQEtQwEDVgvP7Uxr8lJJgrGCFUvFRKvH8saicCIiACIpCeQFIJiXATFCQoUlPJG0RNbeD8iTawUiZSwAq5T58+1qtXL2N3iF9IsPrGYeHkWK2yesYp4yiJFvBeOCHx3Xff2ejRo925KWysX7++K/bDufI6vyNI/EWahORZJZNauOCCC9yl+iMSrPJZeccyHOrpp58e1IxUBSIgLL/UVJcWoV6CSMFPP/0UaIYAwBAanlED4YkA//kQBzVq1HAveat9hFhoRII+iHjAG6MugfnwCilJe3hCgvQQ5zjjjDOcWENQeALivxQScKfOg38yERABERCBf0Yg6YQEKQ3EQqDAMiTFkWIptn37tog1EoT4CxUqFHASOKtNmza50DkOEIfIShdjNUytBcWAw4cPdzsocJaxaiR+++03t7JmVVuwYEFXD1C1alVr0KCB64uV9jXXXOMKEzFECqF9agzoh1U8NRShqQ0iEkQ5wlmOHDncDgaPi9eGVbxfgHC9RCdOOeWUoNPgzP/8889ArQZvEumh/oJxeuelH08w+E+ASCIVgmDhmjt06OBEQKiQoAaF62SHDDUNRGioVaA95k9t8DsFmdSQ0IbaEM+5E02h1sFLu4RGJCiqXLdunSvAhIFXbOnVSISmNhB6Krb8Zx8WOloEREAEwhFIPiHBLg1G+vdODc/hGa//XTMRq0YCB0magugAef+jjjrKOR3C9qQ7vEgBxX5EINixQUidAj0cWywhEQqS9AhOr3HjxukYUzdBRMRLr+BYcXKkXIho+HdtMB4KQEMNp0kkg6JEnLPf9u3b5wSCZ0RLiIYgXvyG8yflQX+wIRWDIGLXBIZ4IOxPYWOo4agfeughVwPCOWBGuoJoTbhdGxStbty40cqUKWPz5s1zkR4vJRMqJIjEkF7h/H7jHBTLers2vG2p1Giwi4V54mfGQl+ekOB6qKugADZPnjxOONIW45wqttQHoQiIgAj8uwSSTkhweW6nBqIhJcXyph2yfSk5g7aBxhISrIpZASMMjjvuOEcMZ/zYY4+5YkV2BHj2zTffOEeG42FFHM/2Txyq/1kVFDeycr7lllsC56VfHBoiglSHt90SkYNoof3s2bODhAQpAQRDOCFBIWY4IRHa1qvbCCdIaEs6g36JUHhsECIUeFLz8OSTT6brn1qKM88806pUqeLeIz2EgybKgjAL3f6JU4cpz7SgDsEvTsIJCfpEdPiNyBK7QzwhQZSFPhFSCEOiTu4eMTP/rg34won3ED20RUwiHolIUMPhbc3lPqEPakQ4n0wEREAERCDjBJJGSBQqXNjt1GCrZ9CzIw4ctJTcfz2YCoFBVCLW9k9qIa6++moXWcD5sTLlMdxEA9hSGO2BVPEICRyXX0jwM6kBz7ExVp7JEO6ZB/4pCk1tsHrHsfF6OCtZsmQgXRJpqmMJCSIARCRI67CiJzVAZIIdH+zu8Gob4rmVwqU2Yh0XTkggkogW+I2HRvE8CU9IRDuvX0hEaxe6a4OoDCKG473turHGr/dFQAREQASCCSSNkEj3iGxvnGEelR0rIsGhX3/9tXuoEc9AIBpBzQBFjmwtRFhEMp5rwDG0JbROSgIH/l8YK2PvAUqcnx0b999/f8SdE2zlJMoRzSimRAwQRQhniDTqF0irkAYh5eE9v4HakdDUSbS+qG3gWOo+eHjXZZddFhMTdSUUZHpRCkQEKahwxo4Yb7dHtBNzPFGQaFtXOZ7xck94u1RiDlYNREAEREAEYhJICiGhL+2KOU9qIAIiIAIiIAJJSSAphERSktGgREAEREAEREAEYhKQkIiJSA1EQAREQAREQAQiEZCQ0L0hAiIgAiIgAiKQMAEJiYTR6UAREAEREAEREAEJCd0DIiACIiACIiACCROQkEgYnQ4UAREQAREQARGQkNA9IAIiIAIiIAIikDABCYmE0elAERABERABERABCQndAyIgAiIgAiIgAgkTkJBIGJ0OFAEREAEREAERkJDQPSACIiACIiACIpAwAQmJhNHpQBEQAREQAREQgaQQEvrSLt2IIiACIiACIpA1CSSFkPj1118t9GvE+brrlJSUAFX/77G+RvzLL7+0bdu22aWXXho0K3xt9o8//mj169ePOFsHDhywF154wdq3b298bXe/fv3suOOOi3t2+frySZMmWZ8+fYKO2bVrlx199NGWI0eOwOtvv/22bd++3Zo3bx7z/I888og1btzYKleuHLbtzz//bD/88INdccUV7v2pU6dalSpV3FeFb9y40Vq2bJnuOPrm67eLFSsW9pzvv/++paamBr1Xs2ZNoy++prxv374xx+014KvLTz/9dPf17jlz5jS+sjyavfjii1amTBmrW7duzD7efPNN14aviI/H5s2bZ4ULF3bzOmjQIBs8eHDMwx577DG7+uqrg77WfPfu3XbNNdfYnDlzAl9Nz5z+8ccfduutt8Y854oVK2zixInp7pXQA/fs2eO+Iv21116z3LlzxzyvGoiACIjA4SSQVEICsYAhIFIPHbIcOXO6393rCIu/nXAsIYGT++CDD9I5lsWLF9vmzZsDjmPcuHHOyS5atMjOOussy58/vzVr1syuvPJKW758uV144YX21ltvWcmSJYPm5PXXX7eFCxfazp07benSpVarVi33/i233OL+f/bZZ52jxYi2dOnSxdauXet+v+222+yqq65yP+Ms6fPBBx90vyNiBg4caDjdqlWrWteuXZ0zxRAb7dq1s4suuijs/YHTxyk9//zz7v17773XbrjhBlu3bp2tWbPGHnjggXTHca0rV6501xrOEC1cE07XsxYtWrhjnnzySZswYUK6w1atWuV4IhZOPPFEd93wmzt3rhM5iJ1cuXJZmzZt7I033nDCAufboUMHJ1D4efbs2U7MlS9f3m688UbXB0IKB037LVu2BJg//PDDhpA4dOiQO0eo8R6i0jMEDA75pJNOsvPOO89xevfdd93biAr68IyxwBWhdfvttzsxxly//PLL9tVXXwXmnznBwZ977rnu0N9//926d+/ufma877zzTmCO/eP7/PPP7ZlnngncK/3793fCz289e/Z0/GrUqGHcv3nz5g07V3pRBERABDKLQNIKCQ9I6qFUy5Hzr1V8GqvjlBTbsX27cwSRDCc+bdq0dBGJ77//3h3irUBxeIiBzp07O/HA6hcHftlll0UVEjhnnBNO8aGHHnIOETvhhBOcI/ALCQTA5Zdfbq1atbLffvvNrWqxc845x4mQm2++OeBkOI7je/Xq5Zzp9OnTnTjA8UYSElzr0KFDjdUxhjBBfBx77LExhQRjIRoUTUhMnjzZSpUqFUCNw2TckYTElClT3LhZqSO2GMfFF19sM2fOTCckVq9e7TgirgYMGGDFixd3PyOkXnnllSAhAWuEFmIKIeExP+200+yll16KKCQaNGhg9erVs5NPPtldA1EqBFw4IYFA2rt3r2vHfUFU6qOPPrJjjjkmSEgw/0RzPvvsMycamPfq1as7wcW8ERFjDosWLWqffvqpEx6jRo1Kd7uGCgmiGNddd50TOJ4RNdm3b5+ERGZ9QqpfERCBmASSSkiEG21aKpGIv1IcXnojnogE4WZvNeudd8mSJW7FGRrKZuXNawgIHDIrzGgRCe98CBNW/X5HjDjxhASOj1XqJ598YoUKFXKHPfroo1auXDk3tpEjR9qmTZsCQgIhM3z4cPc+14ozZsXK79EiEgcPHrQFCxa4a8NplyhRImZEYtmyZW6FjfAgWoEDCzW48D5M+B+n9tRTTzknG01IEJUgynLfffe5FMYll1xi3bp1SyckvP5q165to0ePds7+7LPPNlIPMPRHJLy2RGlw1n7mMIsUkUBIkJ7yp4S4hnBCwn/9nJ/UFkIA80ck+P3uu+82uBO1+vjjjwNsEAxENsqWLWvPPfecIZYyIiRIYRB98NuOHTskJGJ+lKmBCIhAZhFIKiFBxIHkBnUEhw4etJy5cv0lIFLTnGP1IhOxhAROgNUwRhgbR8hKFitdurSLPniGAyIKwQoShzB//nz3VjxC4r333nPRDC/8zXF+IcHvONJ77rnHRSXIdV9wwQVupcrvhN29iMSff/7pVrWInTx58rgxdOzY0YkJUgLRhARREVbGFSpUcKkBUg49evRwIXlSCzhnL7VBzQOh9scff9w5WFbTRAFat27thIUXOud8CCH4NGzY0AmgIkWKuAgC5x0yZEjY1AYRiXBCAqfspVlIJ5DawHjt+uuvd0Jo/fr17mecN6kMBAXz1qRJk0BtCUw+/PDDfywkEC6IAPoKF5GhJoJ5QACFCgnqXRCb3ryTvmKemDsiRP7UBiLy3xIS1PYgKuOpv8isDxT1KwIicOQRSCohES/+aEKClTZ1EJ6NGTPGhZpZJXpG/t4rxCQ8jVM7//zz3Qe+5+zjERJe6Jv/77zzTnf6UCFB3zjDM844w3755Re3yr7ppptcDQH1DJUqVXKrdxw8xZEIGRw2hsNg5Yv4iCQkGG+dOnXccTi+J554wq2Gqe3ASZMGoM4BIcHqmJU1kQWEE/1hiA2OY6ykGIggIE6oHyGVQXgf8YUII/2A+MiokOA6EEuIDESLJyRgTgEs/ZPS4B9cEBJEHuCKwIEXaQfmDWH46quvBmoSEolIkJ6BK/2HCgnmkH5J0XDNoUKC34mMIBi4b2h/6qmnGuKDiMR/JSSImsGfeh6ZCIiACCQLgeQTEoQk/n+zRlBkggJMCi6j1UiwIsZhe8aKGsMReUbNAYV5OG8cBrUCOCYK5HCuOJhYQgLH3bt3b5eewMlTHEj4PFRI0Cc5btIgpBz451loaoM6ClbfhONJeSAQvFVvJCHhRTLIt+fLl89FGRArrOZDiy25XgoaERoYERHEhVcYiPCgHoDdJdhPP/1kY8eOTXevEh3iOhAHoRYuIkGoHrEUWmy5detWx95jR1ifaycCgpAITW08/fTTzkkTzfHSR4w3ESERKbWBEO3UqZOLNDEWz0JTG8zprFmz7KijjnLCqmLFiq5ImPuC1I+3Myg0IsEcIHRJVyDy/MWWCMfQ1AasOZ+KLZPlI1PjEAERCCWQdEKCD1o+kP1bP9mx4fTF39tBY6U2cL6scsMZFfA4KvohXM8WPFIBhKVxIOT+iSBEExI4ELZ3sipnRer9ToU9q31/sSVj+Pbbb92WUHYY+C1USDAWVuqMj1A/TrZt27bukGipDVbCFCMS9ibdQoEm1xZr1wZheMQC0YlwhrPjvKHGa0Q8wu3aIKVCVMGrreBYfoYTjtnbtYHD5NqYD0QD18vuFsZfoECBICFBimXEiBGGSOHaSK2ww4GdObDm/0g1Eog7RAOOHsdNO6JAoUICYYCgIUKB6CHl5LdQIYEgow1RE7+xo4d+PHHGuPnH3BA9oriVvkmNIKz8QsKrSaHOhfQJgoMIDoKPra3ataEPcBEQgWQkkHRCAkjUSnhbPXOlpdoBQhRpFii6jCUkCNHzgR1qOHQq8wk/41BId7AK9J6jQLj7+OOPd1X+0YQETowQO5ELzxABODwcUqiQIFrAajrU8eKoETSsqj0jzUB9B89coHbDe+5ENCHBteBkKLZkTOyUCLf9kzQO6QrP2L3A1lCiGH7zVuJsXeQ8XoTCa4NDxBmGi1bgANnRQB0IP1OQiLgiVUIkwb/9k5QJAoNICrUk1FF49Sv+iATn4XeiSP4dJOwEqVatWtTtn9wLzAlRKApeKegkghEqJLhfeC4GKSDSFKEWTkgg+BAlfiOqw/3jCQkiRtR+kHbiOgsWLBiogQndtcGOHaIPRM9ozy4QIj+kdIhIePUz3o4SoiaRniuSjB82GpMIiED2JJA0QqJQ4cJ/FVTmyOGKK72dGikHD1ra30WXXrQi1vbPSFOF42JbYbiteH4nGU9qI1If4VIbPEPh/vvvdzsTQg0HF+qMwp071nMkQo8JJyQosvSeZxFp/ER9vJQF18LOC7bShjMEiz9lFO1PJNquDY5DfPifVxEutRHp/NFSG+GOiWfXRjxCgogEERK/sV0WoeUJiWhMQoVEpLahuzb4nTmiTgOxKRMBERCBzCSQNEKCJ1uGPs0SMP7X4t3+GQkoH9yEnqM9yZDVPaFytmKySmbVHunJj+H6IaqBWBk2bFjgbaIbpD0Ir4ca0QjvgVTRbgQKOqmh8D9jIJaTOuWUU1zNBqttdo5k1LxC1EjOip0fPHQqHiMyQC0BqQDEh/fwrkjHMkc8DyPcttTQY7wIE1GDeIyVvxdlIRUTLrISeh7SLtSveFEoajUipYSIvFBQG8uoxyCV4r9Xwh1DRIaaC/8TNGOdW++LgAiIwOEikBRCQt+1cbimW/2IgAiIgAiIwL9LICmExL97STqbCIiACIiACIjA4SIgIXG4SKsfERABERABEciGBCQksuGk6pJEQAREQARE4HARkJA4XKTVjwiIgAiIgAhkQwISEtlwUnVJIiACIiACInC4CEhIHC7S6kcEREAEREAEsiEBCYlsOKm6JBEQAREQARE4XAQkJA4XafUjAiIgAiIgAtmQgIRENpxUXZIIiIAIiIAIHC4CEhKHi7T6EQEREAEREIFsSEBCIhtOqi5JBERABERABA4XAQmJw0Va/YiACIiACIhANiSQFEJCX9qVDe8sXZIIiIAIiMARQSAphARfc83XiPst9CvF/b9v37bNTjrppCNignSRIiACIiACIpDMBJJKSCAWsJSUFEs9dMhy5Mzpfnevp6VZSo4c7vfDISRWrlxpY8aMsccffzzs/C1atMjKli1rxYoVC3qf4/LkyePe89uUKVPsuOOOs0suucS9/Oeff9rtt99uo0aNcu2x33//3WbOnBnxfmndunXUe2nIkCF28803B8b05Zdf2jvvvGO9evWKeQ++/fbbtnnzZrvtttuC2n722Wc2fvx449yeDRw40GrVqmXVq1ePed5JkyZZamqqNW3aNGpbxjp9+nTr3bt3zHOqgQiIgAiIQPIQSFoh4SFKPZRqOXL+JSDSUlNRGbZj+/aYEQkc6rp162zevHnu2Ndee82e7w4KHgAAIABJREFUfvppW758eYA+P0+YMCHw+wcffGDNmjWzTp062RdffGH9+/c3HGE4u/XWW+2OO+6wGjVqBL1NH4ULF3bvHThwwLZt2+bef+ihh+zUU08NOOq8efO6YxcvXmz8jNH2q6++Stfdrl27rHv37kFjDzem2rVr28iRIwMi5qOPPnK/c+0YIqdt27ZBh7Zo0SIgaBAy9IN17drV9u7da/Pnz3e/IxywG2+80caNG2eNGjWyunXrutcmT55suXLlsoYNG6Yb1ogRI2z//v3WsWNHO3jwoOPiCUav8auvvmqffPJJ0FiT509EIxEBERABEYhGIKmERLiBpqUSiUhxb3npjXgiEldffbWRMvGEw4svvmjDhg0LcsY47p9//jnQ7RNPPGEVK1a0hx9+OC4hsXTpUitatGjQsLds2WIdOnRwDnPFihWBiAY/Y5UqVXL/Izjq1asXJCRo06ZNGytXrlzQOREkOONwooaV/H333efa0zfGmIhelC5dOsg5w6Jnz57O8XuWM2dO4x+REb+QWL16tW3dutWNb8eOHVa+fHmrUKGCFS9e3Lp06WKXXnqpXXnllXbssce6aAVi6O67744qJLiGatWquevInz9/oO2JJ55ooaJHf7YiIAIiIAJZg0BSCQkiDiQ3cuTIYYcOHrScuXL9JSBS05yI8CIT8QiJypUru2M9IYFIIETvjwCETlG7du1c6oFV978RkfDOj0PmfKzazz33XCtYsKARZbjooouCxsPq/95777UBAwaEvXtq1qxpBQoUiHhncc1vvfVWxIiEJyRIY4QaQmLQoEHWoEEDF5HJnTu3XXfddUaU4/jjj7dp06YZURhSFLyGaDn//PPt5ZdfzrCQWLhwYbrrkJDIGh8YGqUIiIAIhBJIKiER7/TEEhJz5861559/3vbs2WM9evRwjrVx48aGo61SpUq68D79rl271urXr2/vv/++qzGIR0jg1E855ZSgYVNTwEqdiARGxIO6g8svv9yNZ9myZS7VcNRRRzkhQTTh5JNPdu9To8DYIxnnPSakKNVru2/fPjvvvPPsueeeC6RbcM7t27e3Bx980F07tQpEJPxCguNIYSBAZsyY4VIbRE2WLFli/fr1s3fffdd1gZCghoFUCYLLn9rIaEQikpBgrNdff70TKl4qJd57Qu1EQAREQAQyh0DyCQlCEn9lMpz5IxMUYFJwGa1GYtasWdanTx8jlUEo3SsefOCBB1xOn1V1nTp1rHPnzoE+cLCkAnDoffv2da/HEhIIAkL+4axUqVIurYANHjzY8uXLFxAv1EqQPkG0ICRwyrRFZLC6j2U47dNPPz1dM+o7iCQgmB555BH3vickSEUgoKgZ6datm0udICB27tzp2lH0eejQoaDUBu9RZ3LGGWcYqQcEhScg/kshgRCCH/9kIiACIiACyU8g6YQETp1dG/wLWFqaS3l4r0WLSOAsOYe3PZTVLyF9L39PSmHNmjXOmWOsxnH2CAfC+17qIJqQoIDQXzBIn+T8KbL0DFFCmoAdDuzW8HZcsMrnPRx+aGqDiMSqVavC3jWke9glEcTl75a7d+926Zh77rnHiShqQUihhKYLKHYkzcI5SLMcffTRgR0joTUSnHrDhg3G7hSuDfHhOXfaUuvg1XuERiToByb0QSTDK7b0aiRCIxLMl4otk//DQiMUAREQgXAEkk5IMEhqJbytnrnSUu0AIYo0CxRdxkptxDvVFDcSyseh4gxLliwZODSakCDq4TdW+aQVbrjhhsDLFCHyGjslEBGtWrVyomXq1Klu1wOiI1RIUOD43nvvpRs+jpkIS7j6Dpw96RvGjkhBPBB9IbLCtlL/rg1O/Mcff7j0gbebxesMcbBp0ya3W8Mztqx++umnbseJ32jTpEmTwK4Nrx6FFBJCjTHxc/PmzW3jxo0BIcH1U1dBHQpjI6JDW4xzho413nlUOxEQAREQgcwjkDRColDhwn8VVObI4YorvZ0aKQcPWtrfRZdetCJaaoOCxfXr10clyoqcokF2ThAtwOGxc8FvsVIb/rb333+/XXbZZS5dEc6ov2AVzgqdgskSJUqELbZEdCAYQg0hwXWFExKcl6gB9QXe8yjYycFzKjjulVdecZEWzxALpHb822AjwUJIPPnkk1amTJmgJggw2HnbPym8RBSwc4Paj0KFCrl5xPzbP5lfroH34E3bIkWKuJoUIhL+sZJa4ZpIQXlCJfP+TNSzCIiACIhAJAJJIyR4smXo0ywZtP+1eLZ/zpkzx4XVoxmOrGXLllHb/JtCIlxH4XZtECXAQVMnEM6IOrCbIl4LtxMCNhRtjh49OuxpzjrrrICoQkggYPxRCg7ioVGkUjwhEW08fiERrV3oWBEmpKPou2rVqvFestqJgAiIgAgcZgJJISSS8bs2WLHj0Nn9EcuoSyBNEY9j9c5FcSXPupg9e3bggVTs2CC6QUoknN11110uNRCvhXsqJdED6jMuuOCCsKfhGRqkejBERCTBQT3GOeecE3MoHE9thLeLJdIBRFVI+QwdOjTmOdVABERABEQgeQgkhZBIHhwaiQiIgAiIwP+1dyZgdhRVGz4zWQhZIAQxhCTsoIhsKoj8IFtAiGERUJBdQFnDJosRBBFZhQjEoBhABUVADAQhiSQKIoiiCEERA4Q1hCUSwpIQMsnM/7wdzljT6dt9p52Zvn3nKx8eZG53ddVbVed8daq6WgREoD0EJCTaQ0vXioAIiIAIiIAItCEgIaEOIQIiIAIiIAIikJuAhERudLpRBERABERABERAQkJ9QAREQAREQAREIDcBCYnc6HSjCIiACIiACIiAhIT6gAiIgAiIgAiIQG4CEhK50elGERABERABERABCQn1AREQAREQAREQgdwEJCRyo9ONIiACIiACIiACEhLqAyIgAiIgAiIgArkJSEjkRqcbRUAEREAEREAEJCTUB0RABERABERABHITkJDIjU43ioAIiIAIiIAISEioD4iACIiACIiACOQmICGRG51uFAEREAEREAERkJBQHxABERABERABEchNoCaExJw5c3JXQDeKgAiIgAiIQHcmsMYaaxRa/ZoQEoUS0MNFQAREQAREQARyE5CQyI1ON4qACIiACIiACEhIqA+IgAiIgAiIgAjkJiAhkRudbhQBERABERABEZCQUB8QAREQAREQARHITUBCIjc63SgCIiACIiACIiAhoT4gAiIgAiIgAiKQm4CERG50ulEEREAEREAEREBCQn1ABERABERABEQgNwEJidzodKMIiIAIiIAIiICEhPqACIiACIiACIhAbgISErnR6UYREAEREAEREAEJCfUBERABERABERCB3AQkJHKj040iIAIiIAIiIAISEuoDIiACIiACIiACuQlISORGpxtFQAREQAREQAQkJNQHREAEREAEREAEchOoWSGxdOlSa35uljU++5z1mP2yWUuLNQ8ebM1bbmU9B384d4V1owiIgAiIgAiIQMcRqEkh0bL4fVtyzzRrufFn1vjoDOs5a9YyITF8uC3dfaT12Hsva9hpR2vovULHkfggJwRMQ0ODNTY2Vp13nnuqzfz999+33r17R2XqytTc3Bw9rj0c0srXkYxaWlps8eLFtsIK7Wt/6sS9PXr0SEVZDXPy4p+ePXtmNktTU1N0XVYb8tysOi1ZsiRqk7zt0pHtQMVhQJ69evX6n5kmZUA70//TUrVtUU1ePIf2oo9kMabeXJPVrmHZaT+u74g+mNnxEi6otr24tRpeecZie/ogbZHVtygn12S1Q3vqnoet31ON/WhP/u3h1Z58O/LamhQSzVOnmn3rW9b42GNmS5a0rW/Pnta8+ea29NxzrXH33VMH5OjRo+3kk0+29dZbr00er732mr300kuRAVy4cKENGDAgMlabbrqpXXPNNfbxj3/c/u///q/NPXPmzLHnnnsuumfRokXWr18/69Onj33yk59c7p558+bZ5MmTo2e88847tuKKK9pHPvIR23333aNnVUqvv/56lPeaa67ZeslJJ51kF1xwgfXv37/NbQwKdypJzozBRcJgpRktDMHLL79sb7zxhq2zzjq20korRff97ne/s9mzZ9thhx22XHH/+Mc/2qBBg2zjjTdu89u7775rzz//fJu/wZ76V+LKxb/4xS9sjz32aH12VgenvOPGjbOLL74469Lo9z/96U+2YMECW3XVVe2hhx6y448/vvW+LOb//Oc/ozaEJ4YKg7XGGmvYq6++an/961/thBNOiPJ677337I477mhTng022MA+9alP2amnnmrnnnuurbzyylE+ME8SDLT1d7/73aiP8Ez6mifamD7wgx/8wLbcckv79Kc/nVp3+jXPCe/nmWn3v/DCC/avf/0r6qdhIh/GTJjo/5TzwQcfjO756le/mloe6nbeeefZwIEDM9vslVdesTvvvNMOOeQQO/vss23s2LFt7nnkkUdsiy22aHX006ZNi8p38MEH24svvhj1Z8YHrBmjlHWttdayc845x6688srWvOjz8US/5nm77LJLZA9o17lz57a5bPDgwVH70ac32WQT22abbRLrRBswHj72sY+1/n7ttdfaRz/6Udt2223trbfeitqYZ5KwMfx/ylxp3FOnG264wY466qhUjm+++WaUf9j+w4YNs7/85S9t+u3EiROjMsB0o402sr59+9pWW20VjdnLLrvMLr300tY8uI76DB06NCojCRvxwx/+MLJR8fTLX/7SRo0aFfUT2ufhhx+OxvnPfvYzGz58uO20006tt8B46tSpUZuTvvWtb9n5558fjR3GBOUizZ8/3773ve+1eR7X0Lb0LfoqYydMlBX7Xm1fhTG2NZ74G30pSwTG+zr9gLo988wzUZtwPzZ+t912M9okTFzzhz/8wY488sjWP6fZzszB1EUX1JyQWPLa69Zy7rnW67pr/ysiJk5chmOffZb9u2dPW7zP3tZwwQXWa/0NE1GhCk877bSo4+66667LNdZjjz1mOEQMzvbbbx8ZaRq2UqM9++yzkcG87777jLw/97nPRZ2bwRDeQ0ceM2aM7bjjjvbZz342GpA42ClTptisWbPsG9/4RsWmveiiiyJjgpP0VMmg3HXXXfbb3/42MqZ0bpz6AQcc0NrJEVEYO1f0MIhz4Bk//vGPI2NAx6Z+dGDy+v3vfx8JoSQhQd44U+oZJpzuT3/608jIe8IpYRzTBgP5HXvssW0MLvfDa8KECa15IQYQARim8ePH24UXXrgcy5tvvtloW64lwYY2evvtt23dddddTkhkMaePYJRxViQczPrrrx8Zq1BIcM23v/3tNgaAemMoQiFB/0GQfuUrX1mu7KGQoJ9gAF1wwJu2qFZI0Pfp0wgQDBki6utf/3rq/T//+c8jRxP2PwoJS8oDP08IpO22266NcWYsffOb32zTXjhR2pa6fec734nEVJhg+Otf/7pNezG2Hnjggai8SUKC/oKDY2yRQiFBH8YYh+2Fg9lss82WExLkg0MLE+WEsQuJv//973bTTTcZopBE/gg5nC6O8gtf+MJykw7P729/+1vkNEOeoZBgsoFt+NKXvhTdQn/ed999o0lHpXGPgMVpI4jSIiaI85kzZ0bjlAT3L3/5y8sJiRkzZkQ28Prrr7dPfOITtvnmm9vaa68d2Y1QSDB+cOirrLJKJKJpUwRRmpA444wzbL/99ovuwZb8+c9/jvpHkpCA809+8pNWVrQN3Bg7CAoEDDYY8YfocVuGoGZC4ULiP//5TyRYvd4IlM9//vO28847Vy0ksNX0y3giLxgiHNvT16+77rpImNDO9EWEyuOPP26MN/pxOKlwux72GQmJ5Zoi+w/Nd91ldvzx1vjii/+92JV1YISWbLCBNfxgnPXY9XPLZcqs/uqrr44aG8d89NFHR4MznnDENNxVV11lTzzxhD311FN27733Rg45HpHwe8N7MCpPP/10NHv3e1xI0HEREnQSZjV33313dG3c+YZlwpAwG6tWSDDzom4MbBwujstn2wxEVP2HP/xh+/e//x05XgyQRxx4Ls/6/ve/HxkwHA6dGx4M9kpCwgUaRjycrZAfQoLZEkaGhPLGGVK+W265xUaOHLkcV2aQzDAQcxidtOQzDxxbVkSC+jNrw4Hcc889FYVEtczJDwGBgSfhcDEEOD2cDsICA3b66ae3VgGh+aEPfSi3kCCatvrqq7dB0h4hcdZZZ0VGnHah32YJCRwHUQnEVRgBgzd9IpzNe6HSZnn0OQQHxj4rIuHCCTFGn8DZpAmJsIyhkPByYbwRlD6WmAkiSmgvoohDhgwx2jTJIV9++eVthAQRLY88IYZICIn7778/1VYwA7/xxhs7VEjQl3/zm9/YMcccs1xEMOwoCAnGPn0zTPRb8vja175mq622WiRGEME4YmwewojomQtx54eTpy/tvffekUDhv3HgWUKCiCRinkgCYoR+RB8mD0QcYoOEYL/11lvbCAmeRZSP5xA5xF7FE0KVNgmFBHbJbRPlRKQQbUXAUx7GVZ5E5AWh9ZnPfGa529P6On0RX7T//vtH9hdRga2lj19yySWt0R0yxU4ioumXCAjKjP9I80l56tLR99RcRMKuu86MMGkQlrUEIWHsYWC2esQRrUx85ojyJTyHAmR2wiwAhUqUAMdCwiFi+GlgwoyEMemoNCSzgiQhwT0MMhIigSUQnPmvfvWrNve4KmaQYpAZQCSe52HMpIZkQKB62yskyIuBinBwAxsKCS8P+WMMPNFJmYmg+EnhfycJCUKbRDAIExKqZEayj0eJPhASdH5njIgiOoEjw+HEBwPGnQEPSxzd4YcfHrVDUkKMUDcGGMwRQBgPD1vG76H+Bx54YDToMZw4J2ZaiCp3CtxTDXMEI/ViWQPnhhPCIDNTpa/gKOkbGDyWP2hvDBwzeBxX3ohEJSGBg6Be8dl0yICIRCUhQfRp6623jhyNJ5wxIpr2Qkx4RIvfPSIRtjWGGZEOB/p4fGmDvnLmmWfaKaecEoXCERKww3l5JCEsLw6F8QJD2upHP/qRHXfccZGhDceDCwLyoj1JcSHBWGD2zNjGBlBXv++LX/xi1G+pex4hQb70UYQE0bckcez1IkR92223ReXHCSE2mZnjULA5RCQYF76UiXP1SU9SRAJbxgSJ5QJC5bRx2IYhzzQhgQCGHc9C7F9xxRWRLaMsCA/sJDYjjEgw1hAfHoqnfLQVEYJKSxu0Kc8gGoZtYaafFJGgnRiH5MV42mGHHaK22WuvvWzSpEnRcxAj2GcmKthIyo+9oO8xvhCiPAcfEAoJhBz9asSIEZFYoV6IsDyJCSfjjohUmLL6OhNbxgL19GV06gpDJieeWBKnfzFGWIrDfpEUkcjTWtdfv0xIfLDZL8pi9uxlOYXrSWw+REgEa0kYcwYDqjF02DQ0zgynQ2QCA4gDpREJezFTxzAyg0V0JO2RwLhhODAgOAdmsjgKlgL8HkJeDBgSjg6DgYDh2Rg7jCoDl04ST5SRAUFnI2/fS5G2tOERCc8Lw0LInKUJBiLPQf1yHcIIRx4mH8CUERbTp09vNSShkCAPZldEVXCiDEQGB3UkksGSEA4IlY3hZFZOaBQHxL/hFA4GDCqqGyYYLpY/CF0yU4Ev0Rx3EpSXKA/GgXaFPfXBuGBEaT9CsmFyx4eYZM3VZ3Fcwz0ILlIWc4wXSxHMAHFqDHSWToic0I7h0gb9jvyIbCE8MMYYNWbkzDx8j0R7ljYqCQkcDn0UI10ppQkJ7vfoCmVFxGFgcc4ITYw19YAtTpj2x1Bj2D3h/BBlhO8RNHEhgQNgLPjsj/6IgMAQM+uNJ/o+/HBqOFuiVMzeEGWhkKBf3n777W36cygkKBPlZ9mFPkm/IQKB843vkaBMtDH9xccb9SS6Fy5tEKWj35GYNOCYsCNEPNJmiuy1gMGJJ54YRabox9gK7IQLCfqy581vBx100HJLG9grRB4hfWwUIhWnCAdEOP/EJyiISOwhY4mx6mvzG264YWu/9Sga5UEkMutHZNBnEVuhkIALfYp6kLx/wa6SkGDMI+o8IUKoX7i0wdIO4gj+iDzai7GDyAqXNmgnxi3tiCNnbwd5w4N2pE0oN7YkFBLUhzEPB2wOUees/TxeXvjQDz0KxYSLvsvYC1NaX2eSAX8iI4wZykE/R5TgD5a5tWH25JNPRnvFWLLBVvNcJmLYUvpjkk+qOPgL+KHmIhJL7/mttZww2no+/fR/cWy00bL//+STrX9rZkPi+PHWOGpU699YYohvjIozZQaB8cMBYmyYQbJm9eijj0YzSxoTI0GnDBNhTGbiGFYS9xAy478ZGDhA7qHDkJjV4XS5h9AUTsg3KTGY4gljRSfHKDOgfYmiPUICY8ysASPA4GJNHcVOWRiYvq4ZPhtjw6wSR8J9vjEsFBIIDpQ9BjkcRBhG7iW8iXPFKWEMcUbwJbRPnhjKUEhQP5w7BgMmnhhwOFrKjKH1BBueQ0QHg5G12RLHTwSDwckMiHZK2iORxRzjRbiVfuJrruSLUcbI0GfcKGHo6RPUG8FKHZghYcToEwgaeFQSErDE6fpmSwx3VyxtwAAjDu9wExnLcIgj1oQREu1Z2kCo4Bww/O540pY2eBYinX4Da8ZN0tKGO75DDz00up48EcuhkKDf8kyPbLE/BCFPP4RtuBznb/HAmeUM2o7+FS5tMAtGRIcJVrRt2kwRQcNYYFww9lhWwRbk2SNB/2WMMV7CzdrYOuqLYGYiFCaEIPfQF4mkIcrow7AOBTDjAuFGm4UJZ0ef9P0bRAIRHDhx+r+LsrSlDfJjLGL/woT4wNZia5hoIIqoG7YYe8Tv9B+Y+R4Jxg6CDHFGfdgvgUigHOFmS+xY0tKGi1ImNe7As/wtbFhq882+PAfHTv/0lNXXGV9Eb7F5tL9vCKX8/hIAURj6C7/RT0mw92uYvCAA4xOmrPJ35e81JySannnKWs46y3pPvKN1s+XSGY9GTHps9sEmvp49renIo6zhvPPanCnBIEHheiLqgAIMIwB0Xt/cQuMxy0bZ0qFxHITVMBRJrxLhwJgFJCVmML4PwzfiEcWgE5Evv7EPIP4qGx0Gp4qxwfDS4TF4OCBEAR036a0NOmgYkaCjopgJBTPowqUNyovhpU5JmydZh8RIhGHStM2WWR2UkC6zpJBhnvAcbcn6IjN7IgJevjQhwayNGSkRABwIdUMA0ea+2ZK82sOcNo+/tQADDEG4Bo2YoGy8PRAmZm8YPNoWDpSL5R+EE4YPg4VwZJbiQoL2IwKDU8QQ+1s1GJdq3trgmRhrogA4Q56RtUeiUrv6soCLCpwz5Wb2xxjytzZwzMzOcAy+adfzrCQkKBuOm5k9IV0cFn3nH//4R5s9EvRvIlaMI4Q4wpJlSMLbtI2/tcHz+A2RF0+w8P7PmIc/DpPoFvypF32Wvu8RCTfqCEoijGGq1Kdx4vTbI444IhLezNhpPxwh+fhbG4x5+PmaO06X8qVttswae+HvvKGEvaH/e4q/tcHfiXggkMNEm7MU4cKLcmJPaXOWjpk4sYchS0hwn79B5vkz4aP/h29tYAfZi0JUk/FOOzBThw3jjP+m/bGl9H/sNraczfRxIYEd9CgPIow82rPZ0ssZFxK0D/VHcLanr9PH4O5vFLHxlegEE894JIl+CwdEIv0Rm0F9iVRkvd7anr7R0dfWnJCIDqKaMsV6MPv84PXP90ctex1thbumRG9s8PqnnX++Ne62WyoPHDPh3/grNtyEkyL8x+B2ZYhxRH0y43FlGD4Atcw18YRBw2j7vgpULAMN4UDHp0PS8VGcrvA9DwYQjo81PJ+d8xwiIPyN2VKakGBGTAfFcOEo/W0AFxIYZ5wbIWOiMeHg9TIQusP5hbvy/ZVHZl7cj7FJS0RSfGMgz/ZlD7+HpQsGBQMH4xJ/RSueN8szhNxhQcgznC2nCQlCntzroo5n8WzaOxQS7WGOs6McYcLREekJ91sgJBAu4YZW7vE1ewwIeTkLxA2zcJhgJMK3NjDWCAjq7df5TD0UEkSKMJThWivPxICGBtxnO+FmTfplfCYabwfuQ4gjXDGglAehSpkZI0T3XEjwb5wjAjjOoJKQQPjhZH0XPv0MI8rrn+FmS9qRCBPLK/62As+DDeIqFBLxVx99vBMi9g2j1Ic8yQuDDVvagjFICDwUEjgNyh9/mwVb4NGnkBtCmvr720vcTyQKe0B0yoUEex4QHWHyaIdHIrEfME5L1CEUC34ty4zwwdl6oh/zT9g+RHSwN+EY81ePff8U98OL9iL6QSSW52YJCYQIfMM3TOh3e+65ZyQYPZEvdhR7hh1B5OFU2QtCmJ+y0Z8ReYwh+rtP+EIhQd3IK0yMe/IMNwZTBoQRds+jZtzDmOYfH7ewwf6EiTd46GPV9nUiCnAiH/oY9aCMRLqIurhAIGpN1JVJgO9/8tdduZeJRa2mmhMSgOJAqpbf32tL75hkPaZMtsaXXjJraLAl661nzVtsZg2HHGY9d90l80CqaoQEogGnT0clxMdmQmYSSUKiUiPGZyY4bQYb4ToXEhhGOkq1YTV/VqWlDYQJg4xE5ySUyzqnD1hfN+R3ZmKExVjfSzrchWtZe4yftwET6oGxw4inJYym3++vc8ajLxgvogoY2qwlKBxL3Bn587OWNuLlTHtrI6lOlZiH1ybN7BASGFtClWFixut7JNIYhkKi0nWhEECEkjdOL74UV839zPJxIGkJEe7LeUnXVftuftZbG2HeWW9txMuR9NZG/JowHJ9ljMOlDa7FqSLomXTEZ4WIQ8R6tSlc2sjqC0wgEG2I47QUFwt+LZEQlgmIHMQT49qFA5uGiciGe2D8esZg2mumWUICW+B7RMIyIErDZRrEEtEaJn4swSC+iE6wJwUxknbwWygk0jjFhQQTSWwmdtoTy8sIPBJlYMITf2WZs0PSNjrH+zrsePuFAAAfPklEQVQTIgQ7UTcEOCIJoc9rz0xcvR18cssmS6It/J2xQJ9BYCW9eVhtv+vs62pSSHilOVOi8a8PWyOH4TQ02NJhQ6153XWscZ31Mg8FIQ9mH4Qj46/Qef7MDJl9MKOho7LBj1BkpTcHKjUGAwCF7GtYGC2MG0stKGRmO+TN+q8frFJtwxItYHkjaad7tXlkXccsic4dd/yIoPgGzay8+J2BxGCLG12UfDgLqSavpGtwgBi/al/jImzLOj8DlVkOIfq0VA1zjBxLFL6zmvz4GxtWkxL7U7LakGUN6hQ/fCzMjz08sG1vH/U8OPuAiE3e++N1wyAyfrJe3WUDMQ4lrW6eNzNYf1UPQxueTZHEllAwUY1w5h2/DoeAPWAGmJUYD0QXWZd2h8J9caHNb0w4Kr0qnvQcogTMkLPWu6vpg1n1QECzIZSoYjzRb70/sh8FR560CZzrfH9Q0vMYW8y4K41FhASTh/gBbIT2Q9uCKGbvBssxtCW2h4O/iKCGB/QllYG+xXPSDvvjvrCvYpeJdLBZs5J/yOJb6fd4X0eQMMnA3xBx86UNotjhfgvyQzggeBAzTPoQfPik+OF/ecvWWffVtJDorEorXxEQAREQge5LgAkFkaZqI3ndl1R1NZeQqI6TrhIBERABERABEUggICGhbiECIiACIiACIpCbgIREbnS6UQREQAREQAREQEJCfUAEREAEREAERCA3AQmJ3Oh0owiIgAiIgAiIgISE+oAIiIAIiIAIiEBuAjUvJHhFh/MI0g5Fidc+zz3VEOR9YP5JOxzF8+HcAsrcnnJXUwau4R1oznzo6CNTeZebU9fi73xXW6687QBTUntYUU7es85i4N9TCE/ty6pPte1MGeJnb2TlXe3vHBBEmdvDxPOO86zEgHM1yN/PNmHc0G87qv3T6kr9kg5Hq5ZPeB39lvyy2qIzx2SecuseEagXAjUjJDj5i2OBSbzb6wdwhCf5hdBxphyR62nWrFnR4SWcHJZ0Bj6nVnI4C4cZcXAJh6/wsZskR8TphJwIFyYODiGP8IM3/I4z4bhVP2aVU8g4j52DiThMJH4AE+XmeNVKiVPyQqfHqZIcpepHX3MfBz5xdC2nznFaJp9cTkqcSJh0JDbX4jQ4IMU/JMbfkk6p4/mcfshJlBxaxWEqHMfLN0nigoqjwcNvYnCyHideUg6MPfzCRF78Q/4c3sX3GcKEA+SAljDBmUONOKSI7yNQfnjCmzrByr9dwNcrOWgnKe8wT46rpZzutMOTEjmiNiwDx/PyXRKexWmVfuQy+XHoEd8RgCPHJ3MNh/lw1DmHcaUlDtThREV3hvHTFcN7OTCJE/niJ+75NZyiitP0z37H+VIHEsdrc1gRR6fTlhwsFe/fSWWmH3BIWvzI6KRreRbjiTHHwTocKR3vw+F9HF3NSYBJeXNkOHziopCTTvnIEydBejv4Ec/8N3Wjz1SyJakNox9FQAQyCdSEkOAUL5whp6hhJDh9jzPQMTyVBj+zKc4698SHgjhWmWNEOfWQY4P9xDkECt9AwGBi2BEJnDSGseE8/3jiPHdOV/PjgxED5IshCw0tooQjinFAnFRH+flvvqdBeZKEBM7bP/xFfhja8BsX1BsxwXnvnBrH8xBZ/J0ZHM8JhQRCZsaMGcvVgQNXEBpJJ1MifDhFkaO1eYZ/FTQuJHCGCBa+ncApfxhk/sZJeDhGjtT1MlIATtLjYzycSMcpgByF7ULCP+3tXw/lWcx8EV20Bd904JS5MPk94aluOGVOEQ2FBCchwoh6cXIgx55TVu6j7bOEBE6cY3j9pL9QSNAOnH7qifw4eh2HxumD/mVAfkdUIGQ55ZG8EE8cLY64hHf8VFP6D0eyk/hWBO1Bvpy8SX8Nv/cQcvEjyP1Lrf4b5aJP+3dMcN4IZT5gFDJA4JH4G89DVONow09Mp1kOhMH48eOjT4uHX2+N30O/RKxwoiv9BqFCGRET9GH4hWKIsvPROcYE3xuIn7RIuen/nAgYpriQoFw8wyMrjHk+hiUhkekPdIEI5CJQE0ICo8kMyo/Z5TsSGEOcYDWDnxkpX1fkoyYIEWaY3OtCgtkdxif8NDWhUM5o5zjTSkerYrBxiH78K99X4NO1zLD5ngIffsKhku+YMWMi54ZjSBMSYSvh/Kgf98WPSuX4ZQwvYoYoBk4Fw4hTCIUEBpo6JJ2nz3cSQpHiz2ZGi9PiHsrAfyOA4kICMYWxR2hQT9gSAeF68uXbHfw3jiWeeDbtGAqJ8FPUfCUSwQY7HDUCwz/J7XkhJCp9vvqMM86I2hhR4d/kIBqB40KQILpoH/KA22WXXVZxgNDOF110UevxzZW+3cDxtuSDeCBSgVOEPQIBNggp+h7iCGFEuxHRoX7kH18yIOKCCCLaQ57HHHNM5DzJj4+eJQkJjo7mWvp2kkikjJQBEYPTpR3iEQkiCnzkzb9oStvymXPv33xHgDZPGhfcQ9k4Vpj+wbdj4l8wdNCMOyJX/kEp/pvvGrgYdiEBA6KLRFIYb4xVxBd9I/wqbRjhyhIS/8sn2HNZUt0kAt2YQE0ICYwIRp/QNrN7vsqGo8bgZAkJHAWzGJYpfIZGRAKD5UKCGS+hb76ghsP2iAShdsLxSYnZGs/GIRG14D4MLR9a4TPGPIvZOk6ICAJGjpkX0QYiGJwZjxGs9G0JIiqUmxmZi5qktWk+XYuDCkO9oZAgIkBIlyhAPOHsw29B+O+ILqIM/lVU8kNI4Bioh4eIuZ7IBu3hH+/BgSJCcKK+xo3D5DPlLC/hQImecD4+eSEQEF5ETuJCAqHEx8JoH2bO7REScHdhhcPFgfKxNJw4zKgf30GotGziLPwT2bQx30MhJQkJby8+R4xzdCFB27OEQD1x3nwVFHHG9XDCKTPTT/sOAE4TMYZzxjEjSpKWNmhrRATMcLoIwVAc+9cD+Ts8uYbZOXmHEQkiRSz5eDSOjxfxOW7uZ1kBQUO9wmU/2grhx1hF8NO3+W+WIvhuB5Gi+Fd2iTISlUP8Em3gy4aMHf9MtgsJPkpF3/PIH21AdIn8YYkooK07Qkjw3QeWvtI+utSN/YGqLgK5CNSEkHCHRdgYg4Mo4B9S2h4JPm6Ck2UGwyd6CWuTMOZhRIK/YQCZqYV7JHAIceeNM6AcfHUOZ4RDQJhgnLk2XNrASOMccbLM8DCoCAlmfIgDhEtcSLCcwcdjmJEjPHAKlJuy8WldoiphCNw/qMNM2MvqQgIHHobdk3oAYd14KJhyEzr2fR38f5wJAsuFBHXAOeMwiUD4V0vhwrIB0Qj/sA4fkmJ2jWhhBk7UhqUC8oI76/CsqcPKhY0v2VBf9q7giPnyX5jcWbPXgYgV5WP2vttuu0XixvdIEL1ByNDm7K/hmZQJscHX/NKWNnBWtFk4ww+FBPXC6RI1I2/fd0DZwj0S1DW+ByTeHkTAwk8WM7sngkKfpw0Q0yzz8fXZcGmDPouDR9QhsCkrogJxSd+DB0tK1JsPyLk4ZjmFD1khlmg3llvOPPPMqB/hxPnqLQKPKAftz/2V9kiwfEDEiuf4Pgfqx/hgCQNxENaN3ygj4g6xTBm4hiUGJgu+tEE0gjGclnyJsCOEBMIkqa/lsp66SQREICJQM0ICp+hCIGwbHBobBjEmYcKwYthwMszkMMbkgRPG+TIbxYESRUjb3EieGGafMSIkcEpENHyGymwJx8E/OBV3eDhLHCqhYULcOEm+hJe2tIFIwfExi2Z9mbISicGY33fffVEY2L/MyAwRZ0D0A2OMMCG5kMAgEwVAtCQlZraEneNrzazlM6PccsstIwNPhIK/hUsbiIgpU6ZEDpzNhr5EAgsS4oC/wQmRQySAPQnw4yuP/A1n70sbOCzyCxOOjNk6UQMcfnyPBM/mHtbvqQtty3PhhrN0IcF15M/SBszi/YfZJ6Itnlg+Y5bMngraHK6wCoUE7YN4QUiyjOIpLiT4O/tfmEknpaSvocKeaAGiGQdPW9MGtBnC1Jc26L84eCI7CAf6GOKB/48oJTKEg6cf0I4uaBCRzOYZA3ExxZIYThVRSLSN6AN7ExBr4WeVqQtiCoGSlhAnjIWkRF+iDX0JijHNPii+zEt/gRuiKr7fApY8m/ajLklCgvvJP9xsiVDW0oY8nAh0HYGaERIIAQxbPBGexbDFZ9V+HY6dGaW/KscMB8PMzBFHyywOg+2JpQl+D0ObzDTjnzfGiPFsQroYPmZhOD1meMzESThA/mEJhsgASx18mrbaPRIIH2aiSTvUMfQ4BaImOBDyppw4NELS/tYGxp+ISTzhUBFTrH3HE84LJ4/zR9jg0Mk36a0NZqJ8HptNhzhPHDlRBESIJ95UYCmHiArRIPLBMSYZfiIACKVw9lpJSLgTw0mccMIJbaoRbrb0H+g/8bdtiJAgMuJvhDDLJ9rFLJlwO872lltuiUL8ODX+YYmGfgljxB/OO01I8DlrnFo8sZQQvpHhv+P4cZQ8A15EbYhYIYymTp1acbMl0QPejqm00ZFoDHVG2NL3KTtCNWQAc0RomGBC346zxlkTNfJEFAJhQeTEE+Ov0qfJiQwhpIjwUVecfBhh88gFgjZMbKYmXxco5MOYJqLg0Sl4ES1jGcWX5LiOPkof43fELxMRxjL9tpIt6TqzqyeJQH0RqBkhgVMlVBzf2Y7RImSNs44njIQvL/geAfJh7wFvFDBLiyfW9okoxNdz49cRzsdoEQWgTAgUwsMYfn8VEwPL3gucB2+MMLNLe2uD68NXVhEozIRZk/bEzJAIBH8nP9aXSTgE1pKZxbGxM3z9Mz7T53qiCNQxSUjwO2KC5RQMLEKFusaFBDP2s88+O3omooTZK86GpQuEWug4ECS8ocDaOuvlCK8kIUHkhvA8Djx0TLCIh8b5HaeKo4iLLYQSUZrwVUBe+0X4hGcvkC+RkjgH6k956Sd+PW3DzBqH40KCMuCIcWps8PTkAiPsRwhaxEz8lWK4JgkJIgsIHa4n6kAEjDV8/k10xSMSOPxQIE2YMCESgeGzERX0exLjgsQeDfLjN3iFQoJ9KfFNsjhc9rjEhUR8bDAmETPhq6+VzKKLZeqEAIYl7cQSh3/C2ff5EHUIE0zYz+BCgvLybMYjyzT0FyKJ8bc26IswoG/QnnBgLBFdciFB30ZwISLT9q/Ul7lXbUSgcwjUjJDAUTMrQ0zEE6+oeVg0/A2njnFnpojQwNERJsUJM+thw19eIYGRISqB0/M1XqIZlAPjUymlCQnKS76e+G8MY1g36orjTkvhZktmmryKxww1noiy4EiqTXEhgRNmlsjMlmgMIXSEBAaZJRgXOZXyTxISlB2hQRQkTNQ7qb18Iyr3xRPcwvoRpUAYhCKFe3DUlc5cSCp7fLOlv82QVAYErDsi2p5+mCR6eX57DmAKN1uyh4DlFU+MFYRaKJhY4kMEJKWkDadEY1gS9L1Ifh/twN/TUrVCgqgaSzQsgSGYYIUoYrMmy5iIdKIDvomUiEyYqDeiodKSiV8bFxKVyh7ut4LnVVddFS3DIX6VREAE8hOoOSER3wtB1XBibEpMSoTbCQMzA8cxYxSYxcTfsfd7mUXhqLOMJaFhQvYYQAwnRhqDSOQh3GwWLxOzJmaKhPD5d5JTyd9cy+4kGsHsDiOLcMLpJHHDwcXfhEh7NgadWbK/7sq1LGmwd4N/47hYEmKvAHsssk6VJC/aIYxcMBtFHPiZDV4eRIHvAQnLyMyfKBKvBcYTYoRyeGKZCEcYfx2RciadF1KJBUsUzM5ZxiLh/AjlJ4mycP8O4XWEVlL/8L001bY9ETH27tD3/9dE5AnB6a9Xkx9vihB5iYsP2phNoWknajLbZwkvvhQRLyf7MojWseGYCABRDPbBECnE+bO/A8ZEHqhvUmIs+wFjlTjAnOW9sN8mXYuIZ4ml0hLM/8pZ94tAdyVQM0KiuzaA6i0CIiACIiACZSYgIVHm1lPZRUAEREAERKBgAhISBTeAHi8CIiACIiACZSYgIVHm1lPZRUAEREAERKBgAhISBTeAHi8CIiACIiACZSYgIVHm1lPZRUAEREAERKBgAhISBTeAHi8CIiACIiACZSYgIVHm1lPZRUAEREAERKBgAhISBTeAHi8CIiACIiACZSYgIVHm1lPZRUAEREAERKBgAhISBTeAHi8CIiACIiACZSYgIVHm1lPZRUAEREAERKBgAhISBTeAHi8CIiACIiACZSYgIVHm1lPZRUAEREAERKBgAhISBTeAHi8CIiACIiACZSYgIVHm1lPZRUAEREAERKBgAhISBTeAHi8CIiACIiACZSYgIVHm1lPZRUAEREAERKBgAhISBTeAHi8CIiACIiACZSYgIVHm1lPZRUAEREAERKBgAhISBTeAHi8CIiACIiACZSYgIVHm1lPZRUAEREAERKBgAhISBTeAHi8CIiACIiACZSYgIVHm1lPZRUAEREAERKBgAhISBTeAHi8CIiACIiACZSYgIVHm1lPZRUAEREAERKBgAhISBTeAHi8CIiACIiACZSYgIVHm1lPZRUAEREAERKBgAhISBTeAHi8CIiACIiACZSYgIVHm1lPZRUAEREAERKBgAhISBTeAHi8CIiACIiACZSYgIVHm1lPZRUAEREAERKBgAhISBTeAHi8CIiACIiACZSYgIVHm1lPZRUAEREAERKBgAhISBTeAHi8CIiACIiACZSYgIVHm1lPZRUAEREAERKBgAhISBTeAHi8CIiACIiACZSYgIVHm1lPZRUAEREAERKBgAhISBTeAHi8CIiACIiACZSYgIVHm1lPZRUAEREAERKBgAhISBTeAHi8CIiACIiACZSYgIVHm1lPZRUAEREAERKBgAhISBTeAHi8CIiACIiACZSYgIVHm1lPZRUAEREAERKBgAhISBTeAHi8CXU1g+vTpNnnyZGtqaurqR+t5HUygV69eNnLkSBsxYkRqzuMmvWOX3PKWLVrc0sElUHZdTaBP7wY7c/+VbfReA7r60RWfJyFRM02hgohA1xA49dRTJSK6BnWXPAUxMXbs2NRnDTtwtkREl7RG1zwEMTH7pmFd87AqniIhUQUkXSIC9URg9OjR9VQd1cXMxo0bl8rhQ/u9JE51RuA/tw2vmRpJSNRMU6ggItA1BCQkuoZzVz5FQqIradfGsyQkaqMdVAoR6JYEJCTqr9klJOqvTbNqJCGRRUi/i4AIdBoBCYlOQ1tYxhIShaEv7MESEoWh14NFQAQkJOqvD0hI1F+bZtVIQiKLkH4XARHoNAISEp2GtrCMJSQKQ1/YgyUkCkOvB4uACEhI1F8fkJCovzbNqpGERBYh/S4CItBpBCQkOg1tYRlLSBSGvrAHS0gUhl4PFgERkJCovz4gIVF/bZpVIwmJLEL6XQREoNMISEh0GtrCMpaQKAx9YQ+WkCgMvR4sAiJQL0Ji+PDhNmzYMHvooYfaNOquu+5qDz/8sM2fP7/bNHZ3EBLHjhpgb7zTbLf+YUFru26/aR8bNKDRbn9wYdVtvc3HVrBhq/Vsk0/VN9fQhRISNdQYKooIdDcC9SIkDjvsMNt8883tlFNOaW3CxsZGu/LKK+3mm2+2Bx98MLFpzznnHHvllVdswoQJddP09SokPv3RFWyNVXtE7XTNyavaOwub7bQfvxn99z+fb7Jxxw+y4av1sI2/OqdNW66zek/74mf72Sr9G23SQwvtz0++3/r7xHNXs03W6W0bHP5yqdtfQqLUzafCi0C5CZRZSAwePNjOOuusqAEaGhqif7e0LPui5RNPPBGJgywh4U63zBziPbBehcTt565mW6y/QlTd/isua+9331vW3rf9cYF9fO3eywmJQ0b0s7FHD7KmJS32/pIWG7Bio9350EI74vI3ovskJDrefulbGx3PVDmKQE0TKLMDJeKAmCCddtpp1rt3b7viiits4cKF9vbbb9t7772XKiQGDBhgF154YXT/iSee2CpCarrBqihcvQoJqj7iE33smwesbOsP7RWR+NcLTXb0FW/YC68vsakXDl5OSMy5eZj9+8Um2+mM16Lrv77fSjbmgJVth9NejaIYEhJVdKh2XiIh0U5gulwEyk6gzELC2W+66aZ21FFHRVGJOXPm2KWXXmpLly61rKWNMWPG2JAhQ6L72Edx4403lr05o/LXs5B49Zbh9uwrTXbS1fOs/4qN0RLHnDeWRsIAIfGpDXvbky822cQHFtrEBxfaI+OH2JGXvxEtaXia+6vh9v2Jb9uFv3xLQqITeryERCdAVZYiUMsEyiwkiEYccMABtt5669kLL7xgd9xxRxRZaG5utvvvv98mTZqUGJEYOHCgHX/88bb66qvbDTfcYGuttZZtv/320XLI9ddfb4sXL67lJsssWz0Liad+MtTmv9tsZ177ZrS8ccWxg2zR4pZoX4QLibv/8l4kHO54cKG9eutwu+3+BXbcuHkRt+026WMskRxw4Vyb/vdFEhKZvan9F0hItJ+Z7hCBUhMos5AYOnSoHXfccfbAAw/Y1KlTo6WJfv362Z577mnz5s2zadOmtRESgwYNsiOOOMLWXHPNSGwQgXjkkUei9hs1apTxhgd/f+aZZ+zqq6+O/n8ZUz0LiS037G3nH75KFHkg3f+PRXb6hDdt1pzkpY2rRw+yL23fz554ocneWtBsW2+0gr3yxlLb7JhlGzK1tNHxPVxCouOZKkcRqGkCZRYSBx54oPXt2zdawiC6sMoqq9irr74aiYkVV1zR7r77btt3331b39ro0aOHnX766fbUU0/ZXXfdFUUeDjroIJs7d67dc889RqRijz32sJVWWsnGjx9f0+2WVrh6FRLfOXSg9e3TYD17NNjBO/eLEPAGxmor97CePc3mzm9OfGvjmFEDbN9t+1q/Pg320JPv25jr59vipmWbNCUkOr6bS0h0PFPlKAI1TaDMQoJlDDZMEolgrwPp8ccfj4QBr3TOnDnTzj///NTXP9lsifi46qqrarqd2lO4ehUS935vsK3Ur9EIFPXp3WBvL2y2l+YujfZMPPF8kx0yon+ikOCV0f2262fj73zblsaCTBIS7elZ1V0rIVEdJ10lAnVDoMxCImwEohNbbbWVnXzyya1/ztpsyYUSEuXqyl/esZ/ts23fxEL3bDR7es4SO2PCsrMlPHEPZ0ysdfBsW7BoWSTC02VfW8U2Xbe37fqNZW91lDXpHImytpzKLQJ1QKA7CQnfmBk2G0siJKISYZoxY0a0/FHGVK8RCdri0F36237bJQuJzdbtbe++17zcgVRpQqKM7ZtUZgmJemlJ1UMESkigOwmJnXfe2dZee+2qWunpp5+O3vwoY6pnIZHWHknnSHD9KfusZGcduLJdeutbtvD9thEJz+/n0xfY/AXl3FxLHSQkyjhSVWYRqBMC9SIkdthhB9t6663t4osvbm0ZNldyQFXaEdl10oxtqiEh0faI7H2362vXnLRqdAom/0tKu4153WbObiptd5CQKG3TqeAiUH4C9SIkKrVE//79oxMuOaCqu6TuKiR4K6NH47JNmN0tSUh0txZXfUWghgjUu5CoIdRdVpTuKiS6DHANPkhCogYbRUUSge5CQEKi/lpaQqL+2jSrRhISWYT0uwiIQKcRkJDoNLSFZSwhURj6wh4sIVEYej1YBERAQqL++oCERP21aVaNJCSyCOl3ERCBTiMgIdFpaAvLWEKiMPSFPVhCojD0erAIiICERP31AQmJ+mvTrBpJSGQR0u8iIAKdRkBCotPQFpaxhERh6At7sIREYej1YBEQAQmJ+usDEhL116ZZNZKQyCKk30VABDqNwKmnnmpNTeU90a/TwJQ04169etnYsWNTSz/swNm2aHHyCY8lrXa3LjZfQp1907CaYaCvf9ZMU6ggItA1BKZPn26TJ0+WmOga3J36FETEyJEjbcSIEanPGTfpHbvklrckJjq1Nbomc0TEmfuvbKP3GtA1D6ziKRISVUDSJSIgAiIgAiIgAskEJCTUM0RABERABERABHITkJDIjU43ioAIiIAIiIAISEioD4iACIiACIiACOQmICGRG51uFAEREAEREAERkJBQHxABERABERABEchNQEIiNzrdKAIiIAIiIAIiICGhPiACIiACIiACIpCbgIREbnS6UQREQAREQAREQEJCfUAEREAEREAERCA3AQmJ3Oh0owiIgAiIgAiIgISE+oAIiIAIiIAIiEBuAhISudHpRhEQAREQAREQAQkJ9QEREAEREAEREIHcBCQkcqPTjSIgAiIgAiIgAhIS6gMiIAIiIAIiIAK5CUhI5EanG0VABERABERABCQk1AdEQAREQAREQARyE5CQyI1ON4qACIiACIiACEhIqA+IgAiIgAiIgAjkJiAhkRudbhQBERABERABEZCQUB8QAREQAREQARHITUBCIjc63SgCIiACIiACIiAhoT4gAiIgAiIgAiKQm4CERG50ulEEREAEREAEREBCQn1ABERABERABEQgNwEJidzodKMIiIAIiIAIiICEhPqACIiACIiACIhAbgINs2fPbhkyZIg1NjbmzkQ3ioAIiIAIiIAIdD8Czc3N1jBt2rSWbbbZxvr06SMx0f36gGosAiIgAiIgArkIICIWLVpkDdddd13L0KFDbeONN7aBAwfmykw3iYAIiIAIiIAIdB8CDQ0NNm/ePJs5c6b9P2u5FQ/c2pWfAAAAAElFTkSuQmCC;imageBorder=default;" parent="1" vertex="1">
          <mxGeometry width="530" height="478" as="geometry" />
        </mxCell>
        <mxCell id="7rPCSQm2qlbo8F4YJlpe-1" value="" style="shape=image;verticalLabelPosition=bottom;labelBackgroundColor=default;verticalAlign=top;aspect=fixed;imageAspect=0;image=data:image/png,iVBORw0KGgoAAAANSUhEUgAAAhIAAAHwCAYAAADzWYarAAAAAXNSR0IArs4c6QAAAERlWElmTU0AKgAAAAgAAYdpAAQAAAABAAAAGgAAAAAAA6ABAAMAAAABAAEAAKACAAQAAAABAAACEqADAAQAAAABAAAB8AAAAAAGNZ7MAABAAElEQVR4AeydCaBN1ffH1zPP8zxEhJKhzFNFRSKlQX4qERUhpb9MDShJiWaiSDNFZopE5iGZUxlC5jFzhvfuf38X+3Tede5997135T73u+q9e84+e++z92dfd6291jr3xUyYMMGXP39+KV68uGTNmlV8Pp9QSIAESIAESIAESCAQgVSpUsnhw4dl69atkgZGRIUKFSRDhgyCCxQSIAESIAESIAESSIgA7Ibs2bNLzK5du3z58uWjEZEQMV4nARIgARIgARKIRyAuLk5SZcmShUZEPCw8IQESIAESIAESCIUAIhmMZYRCinVIgARIgARIgAQ8CdCQ8MTCQhIgARIgARIggVAI0JAIhRLrkAAJkAAJkAAJeBKgIeGJhYUkQAIkQAIkQAKhEKAhEQol1iEBEiABEiABEvAkQEPCEwsLSYAESIAESIAEQiFAQyIUSqxDAiRAAiRAAiTgSYCGhCcWFpIACZAACZAACYRCgIZEKJRYhwRIgARIgARIwJMADQlPLCwkARIgARIgARIIhQANiVAosQ4JkAAJkAAJkIAnARoSnlhYSAIkQAIkQAIkEAoBGhKhUGIdEiABEiABEiABTwI0JDyxsJAESIAESIAESCAUAjQkQqHEOiRAAiRAAiRAAp4EaEh4YmEhCZAACZAACZBAKARoSIRCiXVIgARIgARIgAQ8CdCQ8MTCQhIgARIgARIggVAI0JAIhRLrkAAJkAAJkAAJeBKgIeGJhYUkQAIkQAIkQAKhEKAhEQol1iEBEiABEiABEvAkQEPCEwsLSYAESIAESIAEQiFAQyIUSqxDAiRAAiRAAiTgSYCGhCcWFpIACZAACZAACYRCgIZEKJRYhwRIgARIgARIwJMADQlPLCwkARIgARIgARIIhQANiVAosQ4JkAAJkAAJkIAnARoSnlhYSAIkQAIkQAIkEAoBGhKhUGIdEiABEiABEiABTwI0JDyxsJAESIAESIAESCAUAjQkQqHEOiRAAiRAAiRAAp4EaEh4YmEhCZAACZAACZBAKARoSIRCiXVIgARIgARIgAQ8CdCQ8MTCQhIgARIgARIggVAI0JAIhRLrkAAJkAAJkAAJeBKgIeGJhYUkQAIkQAIkQAKhEKAhEQol1iEBEiABEiABEvAkQEPCEwsLSYAESIAESIAEQiFAQyIUSqxDAiRAAiRAAiTgSYCGhCcWFpIACZAACZAACYRCgIZEKJRYhwRIgARIgARIwJMADQlPLCwkARIgARIgARIIhQANiVAosQ4JkAAJkAAJkIAnARoSnlhYSAIkQAIkQAIkEAoBGhKhUDJ1zpw5E7BmbGysHD9+POD1SL7g8/nk7NmzkTxEjo0ESIAESCCCCdCQcC3Oxo0b5dprr9WfkSNH6pW4uDhp2LChpEuXTl5//XVXbZGdO3fKPffcIzlz5pQsWbJIyZIlBYo5pci2bdvkqquukly5csmsWbNSyrA5ThIgARIggQgikCaCxqJDOXXqlFSoUMEZ1rx58yRfvnzOOQ6GDh0qb731lpbde++90r9//3jXk3py+vRp+fXXX7U5jATIjh075Pvvv9fjTz75RLp166bHMDCaNm0qy5Yt03P8giERExPjnCf24N1335X33nvPaZY3b16pXr26VK1aVerUqSNFihRxruFg4cKF8sgjj8Qry549u1x55ZXapkOHDpIpU6Z4190naL9582YtmjBhgtxyyy3uy2E5PnjwoBopqVOnlrvuukvwSiEBEiABErh8CEScIYEd/R9//OEQHjt2rEAhugXK1tbZu3ev+1LYj4sWLSq9evWSmTNnSo8ePZz+t27d6hgRN998s7z55puSPn1653pSDqB07bzQHscLFizQrrJmzSo//PCDVKtWzen6n3/+iVffXoBx8/XXX8vbb78tP//8s+TPn99eivcKT8v9998v+/fvl8cffzzetXCd4P64B+Tw4cOSLVu2cHXNfkiABEiABCKAQMSHNkaNGhUP0+rVqx2vQbwLF/HklVdekaVLl2oYw95mw4YN9lBatGihXpQyZco4Zck9GDhwoOC+jRs31q6OHj2q3glrWPj337lzZ935f/DBB3LDDTfo5e3bt8vkyZP9qzrnOXLkkDFjxmi78uXLO+XhPIBHh0ICJEACJHD5Eoh4QwK7699++81ZASi+YHLo0CHp06eP7twRZqhZs6aGQhCK8Bfs8O+77z4NR1SsWFHg/fASuPzr1asnL730kl5G/sRtt93mVH3sscf0+uDBg/UVddesWeNcx0GXLl30Wtu2beOVBzpp1KiRekKmTJkigwYNcqr17dvXOXYfILcDnpF27drJ8OHDnUswgALJunXrnPFOmjTJqWbnu2TJEoEhh/mAJRiBmVsOHDggjz76qBPWQQjmjTfeEHhLYGD169fPqY45oa/p06dr2apVqwQGkA0JYQ7gdOzYMaeNe4zw2GBtMQ6Mp0GDBk5oxmlgDmBsPfHEE9ovPCCoN2fOHKcK3iNPPvmkc7158+YCzhQSIAESIIEkEDA7XRNNiBw5efIkshX1x7jz9bV37946QPN0hM/kS2iZfTWK2Rm8UTS+SpUqOe1tP3g18XmfMSacukaxeNazbV5++WWnri27++67taxTp06ebcePH++Um3CI0/7IkSNOeffu3Z1y/wOjJJ16RoHGu1yjRg3nmnnKQq+ZBEmnbNiwYU59Y+g45e+//75T7n+waNEip57Jz3Au2/manAznui3Dq3mCRevitUSJEp51TKjHsxztMVZjpAS83qRJE5+do3uMXuMxHhtn3DgwuR6e/Zo8E11/4yFx3kPuOeHYhK/i9cUTEiABEiCBhAlEtEfCKBTz+S4yYsQIgUcByYHIiUDSIXal/oLd/i+//KLF2JEiT8C6+SdOnChIloQgodP2jXN4GowRoDt6nCckDz74oBNyQN3atWtr3zfddJMeo+zTTz91nuCYPXs2ilTgAUmKVKlSxWn2+++/O8f2APkQSP5EPkSbNm202BgfFyRj2vqhvCI0UrduXfWIGAPNabJixQo9Rv6DTdaEp2TTpk3y0UcfSbNmzcQYW8oAbKwgSRZrcOONN2oyKMaH0M1XX32lCa04hyAc4/ZC2fYYD+aG5FqbgDt16lTn8VV4L8DACp6yQV/GAJTRo0erFwMeEJtXg7Eg9wVzhGBdKSRAAiRAAokkEMkeCRPvd3aXxl3tM0pAz7Hbt54H65HA7thMXX+M8eB4H3bt2uWUG4WhppUJlzhl8C5YgRfA9hHMI4H6xhXu1DWK0Hbh++yzz5xy7LohJpFRy7B7d3tFnEbnD4J5JMxTKk6/3377rbZweyTsuN2v7du395nQg/9tnHP3bt/LIwEviPU+TJs2zbm/CeFoH1gTe78HHnjAh92+v2B9bB2TbBnv8okTJ5xzY5D4wNzWNUagXnOP0e3NwbGti/WEvPPOO04Z1sFf4LGybUz+iXPZfQ/ztI5TzgMSIAESIIGECUS0RyJt2rTSunVr89kvYpSn7ipxjNi7O46OMiRhWrn11lt194nzAgUKiN1NL1++XL0E2ElbCfcjj/heCTxhARk3bpx6UrDjhjz88MPOuLQgEb/szh9NSpUqdUFL7NS/+eYbMcpUjFLX60i8vPPOOy+oG2pBwYIFJU2acw/2lC5d2mm2Z88ePcYTJJbtl19+KYULF9acE3gGQhE8LfLMM8+oF8UYWfLCCy84zfBUjL+4H38tW7asc3nfvn167P4uDLfHyVZcv369PZTnnntO18Lm0dgLXp4Qe42vJEACJEACFxKIaEMC4YyWLVvqqJFwCJc0FFe5cuUumInbsPB/DDNjxoxaH08+oE+Ts+C0D/Y9C06lRBygP4RYIFCua9euFdwXgu+8SKrACLJy9dVX20PnFd83gbAJkgi/+OILxwBD4iFCAskV9/c/QPlCYGQgidF4B5zuYTxhfYIleaIylH+tWrX0sVmsK0IclhuuGxsYLwElVaoL37p4vNSK/3sA5f7f4AmDz//HvldsP3wlARIgARIITuDCT+Pg9f/zq8g7sPFw3Nz/C5jsgCpXrmwPnTwJFODpAeutgLKCQsTTAVZC3T3b+qG82jFCgSN3AYIdtJcBFEp/eEoEBgEE8XzrJQjW1m0gmfBOsKrJugZFPGDAAPn777/jfTGYfXIEXiUrJpHWHmpda+Dg6RA8NdGxY0fnelIObD4M2uJpH39xv0dg/MCg9P+xeRr+bXlOAiRAAiTgTSDiDQkofveXJQVKVsycObOT6IgkSxMjF3wFNFzn1iMAowTiNiTMEyEyf/58TRrEF0+FQ/DNnPg2Soj9qm2ENRIj2NFjDkgade/Ue/bs6dkNdvUIf8ydO1deffVVGTJkiNaDorfhB8+GySiEgYJHK2Hk4DFLtyGAvz8CKV68uL7iF9YF3x5qciOchEeU586dW/BIpvtbPVGeWIFXxgrCO4sXLxaMEY+jzpgxQ/AesYbCa6+9pqEgkwOiY0JY6M8//7TN+UoCJEACJBAigXMB8BArX6pqyKaHEsJ3FCDnIZAgJwDuchgO/oobO3mr6KDcEALAV1KjrnsnG6jvxJbj2zitZwJtExvWcLe198auHYrbS5Bf4M4xsHXwpVbusIQtD8crjBw89YAfGCzWYEPfNkfB/dQGnpjAD7hjLRH6geDvfYRDbr/9dn2qA8YbvB34DhEryK/AN4XCU4IxYaz2Gzdtnf/973/6BIk95ysJkAAJkEDCBCLOI2Hj7xi6VYDICcAjj3gM1F9sHZQjdADvAowGK1BwrU3CJh4DdLv7sUtFuVvwCKP773y4r/kfe8Xo3XXcnhN4J5KiLDF2hGNgDCBHAsehCDwQrVq1Uvc+DKZwiJuznTu+FhzKF2KNCIzZfE+E8y2gMBgwfrdgLvgSK7ciRzsYgu4kSncb/2N3eMeODePCvfH3UNzhMPSNrzdHmAXf4AkPSv369eN1iWTPUPnGa8gTEiABEohyAjFGAfjwlysvN8Gf9f7rr7/0CQeraLzmCFc7vv8AisQrQc+rTShlcKvbHTF2wfj2y8tVkMQIhggduJ+scM8XIQR4BDJkyKB/VMwaI/hmTHxjJb7d0pa52yXneMuWLYIQCzxQXu8BfJ8IvuocXq48efIk51ZsSwIkQAJRS+CyNSQu1Ypit4vkQezW4V7HzhiPMkKBUkiABEiABEjgciOQInIkUhJ086VKzp8dx7hHjRpFIyIlLSDHSgIkQAIkkCgCNCQShSvhysjDwJMByFNAkiiSPykkQAIkQAIkcLkSYGjjcl1ZzosESIAESIAE/gMCEffUxn8wZ96CBEiABEiABEggTARoSIQJJLshARIgARIggWgkQEMiGledcyYBEiABEiCBMBGgIREmkOyGBEiABEiABKKRAA2JaFx1zpkESIAESIAEwkSAhkSYQLIbEiABEiABEohGAjQkonHVOWcSIAESIAESCBMBGhJhAsluSIAESIAESCAaCdCQiMZV55xJgARIgARIIEwEaEiECSS7IQESIAESIIFoJEBDIhpXnXMmARIgARIggTARoCERJpDshgRIgARIgASikQANiWhcdc6ZBEiABEiABMJEgIZEmECyGxIgARIgARKIRgI0JKJx1TlnEiABEiABEggTARoSYQLJbkiABEiABEggGgnQkIjGVeecSYAESIAESCBMBGhIhAkkuyEBEiABEiCBaCRAQyIaV51zJgESIAESIIEwEaAhESaQ7IYESIAESIAEopEADYloXHXOmQRIgARIgATCRICGRJhAshsSIAESIAESiEYCNCSicdU5ZxIgARIgARIIEwEaEmECyW5IgARIgARIIBoJ0JCIxlXnnEmABEiABEggTARoSIQJJLshARIgARIggWgkQEMiGledcyYBEiABEiCBMBGgIREmkOyGBEiABEiABKKRAA2JaFx1zpkESIAESIAEwkSAhkSYQLIbEiABEiABEohGAjQkonHVOWcSIAESIAESCBMBGhJhAsluSIAESIAESCAaCdCQiMZV55xJgARIgARIIEwEaEiECSS7IQESIAESIIFoJEBDIhpXnXMmARIgARIggTARoCERJpDshgRIgARIgASikQANiWhcdc6ZBEiABEiABMJEgIaEH8hjx45JbGysXylPSYAESIAESIAEvAhEjCFx4MABOXjw4AVjPHv2rODa4cOHL7gWasGZM2ekcuXK8sILL2iTPXv2yMMPPyyTJ092uti8ebPUq1dPypUrJ3fddZfMnDlTWrZsKVu3bnXqXKyDadOm6fgWL14cllucOHFCmYHbyZMnA/aJ6/bn+PHjAevZC0uWLJEHHnhAfvvtN1vEVxIgARIggSgnEBGGBIwFKPpKlSrJli1b4i3JV199pde6dOkSrzwxJ/AwQGEeOXJEm+3du1fmzp0rbsX96quvyp9//il9+/aV7t27y4oVK2TevHmybdu2xNwqwbq4J/qHcWPFKn53mb2WlNePPvpImYHpNddcI3fccYe89NJLAm+LFcscdfBz7bXX6s9rr70W0PhYt26dLFy4UDZs2GC7SfKrF4ckd8aGJEACJEACl4xARBgS7tlPmTLFfSpjx46Ndx6Ok/Lly8vy5ctVudr+1q5dK1deeaW0atVKbrjhBunatav8/PPPemzrhOMVBsqYMWMEivxiy4svvqhzLFasmIwcOVJat24t/p6HKlWqCIy1wYMHS9WqVWXo0KHyzTffeA6tTZs2smzZMmnSpInn9cQU/pccEjMu1iUBEiABEkgcgTSJq37xa3/99dfSsWNHiYmJUe/EqlWrPG8Kb8GMGTME3oXq1atrGCJt2rROXbT79ttv9XqDBg2cchwghAKFWadOHalbt64MGzZMdu3apXX69esnzZs3F4Q/5syZI23btpWCBQvqNbj0v/jiC+eeqJc5c2a9tmDBApk0aZL2fd1118lDDz0k2bNn12v21/jx4+W7777TU+z806dPLz179rSXBZ6JIUOGCMbesGFDadSokdZBBRgeX375pXpJihQpIo0bNxYYAcGkVq1acvXVV2sY56qrrpK3335bDYonn3zSaZY3b16pWbOmnoNj7dq11chC6MdfVq5cKTD0EN4oUaKE2PMOHTrI6NGjPcftxeXHH3/05ADmWDP0myFDBsG6YZ4QrBnY3H///bJ69WqZPXu2hqGwBrly5XKGunTpUg1LwbtUoUIFgfGTJUuWJPFzOuUBCZAACZBAQAIR5ZG49dZbNZQARQGB0oISR96CW7CDRv4Ccgt27Nihu+4HH3zQSZLEbhd5Dp988om6859//nl3cw1xwP2P3TUEsX8rKEMIYM2aNYI6Nm8D5VDuP/30kyp8hAqeeeYZ8fl8qkBx/19++UWyZcumCm/cuHG2S+cVXo+NGzfqObwdUHpuadeunXz22Wcyf/58QShnxIgRehn3ePzxxwUeBoRpYLDcd999el93+2DH7du318tg4yX79+93vD8IdXgJxg4mYA6x5/Xr1/ccNwwiLy5eHDDHZs2ayXvvvSenTp1SNjAoYSxCEJbCvVu0aCG9e/fW9YEx9tRTT+l1/IKhBkMDBtfp06fVy4JQTDj4OTfhAQmQAAmQQHwCR48eNZ+zl1ZMboDPuN99b775pq9GjRo+o6R1QCbE4Hv99dd9xmvge+SRR7TMKHmte9ttt/mMwtEyo1C0zCgSPW/atKmer1+/Xs+3b9+u5507d9Zzs1vVc/RtxeRn+O6880576jO7X61jlJ6W4X4Yj+VlFL5eR18ff/yxHhuDROseOnTIZxS+05f7wBgIWtd4H5xiE0rQMmMo+IznwWfCD3puvBpaxyhTPTfeED03StKH8RpDxunDfWA8D1rfzt9eA8eyZcvqqWVezHBHGV7xc++99/rQv5fYcZr8Er1szwONOxgXLw5gbfmanBYdD+pB7Jphbf/++29fXFycz3gjtM4///zjA89iZvxYI1yHGG+VviaWnzbiLxIgARIggZAIRJRHwigH3XHCTQ6vBBIdjXJ3PA0wgeApgPzvf/+TdOnS6TF2oRDstrGbxSvyHODWh+TOnVtfk/rLKDd9UiFTpky6K37rrbeccfzxxx9OaMAYOzJw4EDNQ0iVKvFo4ZFJnTq14D7wwsDDAbGvmzZtEtz7/fff15CK9dyEOi+jcDVk4K6P+yCcA28Hch/gKYE3JDESaNw2ZBIqFySGYo7I10AbCM7dgnANQkYIfV1//fV6CR4S+75wh5QQtoGEi592xl8kQAIkQALxCCRe28VrHv4TGA5ICMSjmlByZcqUiXcTPH0ByZo1q1NujxGSsE9muOPmTsUkHiB3AYJXPLGAH9wL8XsYKRgjXPA333yzKnnkGcyaNSuJdzvXDDkCVuz98SiqvT8SRpHjEarg8VnkgRiPT7wmRYsWlbvvvltzCd59912dE0JKyFdIirjHnRguCNkYj5GGpDBPhESQf4LyQIIcE4gxmWXfvn16nDNnTn11/woHP3d/PCYBEiABEviXQMQlWxYvXlyTCLEzxqOY/lKxYkUtwi7TuOH12CZkIraPXSgUEHbrSFBMkyZNUGXk37/Xef78+TVXA0oKytbL21C6dGm9hrwJfB/Fhx9+KLfccssF3WE8EHgHMmbMeMF1rwIkbyLfA7ttE57wqhK0DJ4eyxJPZgQT+1RHMAUerL3/tUBc/DnAiwQDplu3boLkTQhyIEIVm0eD/BLkWrglIX6YM7xf8IhQSIAESIAEEkcg4gwJDB+JhDAk8NSCv+CJBeyq8fREgQIFVMHjOyBgPFgli+9NwCOWPXr00DIk3yVX8KTCoEGD9LFQKCqTByEIazz99NMyYMAA3e0jEdB+cVahQoU8b3nFFVdo+fDhw/VpEztmz8rnC+F5gOcDyYcvv/yygAGeWoFHxIZvvNrjC7cmTpyodZHgiPowRtzy119/yYQJE/R7NvDdDnhSBcZaoPG72yZ0HIyLPwcbhsC6I6F16tSpOib7xExC90J/eIoF882TJ4+yxfxhbCbED0+x4EkSPDFUrVq1hG7F6yRAAiRAAi4CEWlIIOcB7nbrusZ43V4APM2AnT8UO6RUqVKaO2CVH7L64ZrHd1DgB4YFFA3yD4KJ+x722L526tRJPRx4cgCPKELQL75ECi58KDD8QLA7xvi8BLkdUFh4/BQ/ixYt8qoWb75QsmiDPm2/MCzggfEyJOyYbS4FchUQMkLegfUE2JvCwIAxBEFfjz32WLwnIWy9UF/tvVE/GBd/DnhMFGuOJy+g1PEkCPIhbKjK6/7Ik4DgFT94XyC/A6/4ASP0mRA/eE3w5A4MEAoJkAAJkEDiCMQgSx7P2adEwdc/I/4NheElUEKIn/t/n4NX3VDLECZArgHu6c4HQHs8QgljxStO798/+kBoI0eOHP6Xgp7D44GEUihHq0iDNoiAi8G4+HPA47YwdvAYbVIF7wvz5IZ6rPwZBeKH94l/3aTen+1IgARIIJoIpGhDIpoWinMlARIgARIggUgkEHFPbUQiJI6JBEiABEiABEjAmwANCW8uLCUBEiABEiABEgiBAA2JECCxCgmQAAmQAAmQgDcBGhLeXFhKAiRAAiRAAiQQAgEaEiFAYhUSIAESIAESIAFvAjQkvLmwlARIgARIgARIIAQCNCRCgMQqJEACJEACJEAC3gRoSHhzYSkJkAAJkAAJkEAIBGhIhACJVUiABEiABEiABLwJ0JDw5sJSEiABEiABEiCBEAjQkAgBEquQAAmQAAmQAAl4E4iIv/65fvdp79GxlARIgARIgARIICiBawqkC3r9Yl+MCEMCkyyQ/dKCuNig2T8JkAAJkAAJhJvA7sOXfiPO0Ea4V5X9kQAJkAAJkEAUEaAhEUWLzamSAAmQAAmQQLgJ0JAIN1H2RwIkQAIkQAJRRICGRBQtNqdKAiRAAiRAAuEmQEMi3ETZHwmQAAmQAAlEEQEaElG02JwqCZAACZAACYSbAA2JcBNlfyRAAiRAAiQQRQRoSETRYnOqJEACJEACJBBuAjQkwk2U/ZEACZAACZBAFBGgIRFFi82pkgAJkAAJkEC4CdCQCDdR9kcCJEACJEACUUSAhkQULTanSgIkQAIkQALhJkBDItxE2R8JkAAJkAAJRBEBGhJRtNicKgmQAAmQAAmEmwANiXATZX8kQAIkQAIkEEUEaEhE0WJzqiRAAiRAAiQQbgI0JMJNlP2RAAmQAAmQQBQRoCFxkRZ7zaoVMnzI2zJ39g8J3mHit1/L34cOJVgvUIW4uDjZt3dPoMuXVfk///wjh//++7KaEydDAiRAAimZQIozJH7/7Vfp89yz0ubB+2TAyy/Ilj83RRz//fv3SafHW4nP55MMGTLGG9+pU6fk17Wr45UNfq1fsgyBxQvmyX1N6svRo0e0361bNsuhgwfi3eNyORkx7D3p2rndJZ9OchgfMO+PbVu3XPI5cAAkQAIkEA4CKcqQwE708Vb/kwIFCkrHp5+VgoWKyNtvvBoODmHtY+vmTZIpU2Zp1/FpqVazdry+d+/aIb26do5XltyTytVqyNARn0vWrNm0q09HDpdlSxYmt9uIbN/iodby/EuXfs2Tw3jR/Lny1WcfRyRfDooESIAEEksgda9evfqkS5cuse3CWn//sVjJkiF1gn2uWfWLzJg+Rd4eOlKKFL1CrqtURRo2vtNph/DAd1MnyYzvpsop4wIvdmUJvQYPwfyfZkuq1Knlm68+k82bNkrJq0rLH8a7MW7MFxIbGyuFCheRmJgYrQ+DZeyYz2Xh/J8kTZq0UqBgIece7gPsSid9+40sXjhPsmTJInny5lOvwBsDXpId27dJhowZjbFTWI0KtDt4YL98+/WXsn7dWkmdJo38c/KEFC5SVEZ9NFTq3XqbzPvpRzUAYCBlyZJVb4WxTZs0Xr6bNlmOHT0qxa8s6YzTjuXvvw/J0sUL5dpyFWTBvDmGwUQ5duyY7N6108yzlKRNm06WLJwvE8aOlh07/lJ26dOnl8RwgSdlwrgxMtOwxTwwjtSGp1vmzJohadKmldk/fC9LFs3T9QnGEmOaaPrc/tc2M96jJmRxSPLmyy8rf1kmf23bqmzQ/y8/L5Wd2//SNfrTeKB27diua2vHH5MqRr78dKTkzpNXsmfPkSAv9Dn6i1FSwKwN3g9/HzooxUuU9GSEuj/O/E4mTRgrf27aIEWuKGbGs+QCxnv37Nb3AuZ+4vhxubLkVWgqv65bI7t27pAtxrj8ZvRnuq7TpoyX7WZ+x029rFmzSo6cubQuf5EACZBAYgkcOxUrebPE/yxObB/JrZ+iPBJXlb5alXL/Pr1UUbsnf+Tw3/LUE21UEUMZvTP4NRn2/ltaBR/yr5g2aAej6YtRH6l7fOi7g40yTCPdunSQZUYRQ6Cs27ZsJrt37pQs5kO+T6+usnzZEr3m/vX7+nXS/pEH1XBIa5Rnu0cekEUL5krs2VhVJKgbe/asu4kaLH+fj+/jWlxsnHP9pee7mXsfUcXT8bGHnfIXezwjM7+fJkWNAsMu+LOPhzvX7AHm996br+spcggwB5/Jm8A9EF6B8TLw1b5S2BhfSxcvkOe7dRHkVSSGyzuDB8i8OT/KNdeWU6MFCt1fpk2ZIM8+1V5WGEOgyBXFg7KcOO5rDVFlM4ofirZr5/ayauUv2iVCNTCqrCw0xtECY9RBVq9cLt8bowqC8b/5+ivS97luulYwvkLhhbZD3xks/9fpcVXmMEACMYLhNOSdQVKqdBk1dOabcfkzPnPmtHTv0lFOnjCGoWE8sH9fNT5wH4z31Zeel5EfDpH8+QuKGFv16JEj+l7Q9YnzoRqFBEiABFIsgTQpaeQ5zc7tnQ8+NkbCAHng3jvkpnq3SvtOXaSQ2dXPNrth7JBfGgDjILWUr3CdQCE3f6CVM8U33/9IFU5MTCrdUX46ZqLZraeVvXt3y8oVP0v1WnVk8sRxclWpMtK154vaLnWq1PKDUeSVq1Z3+sHBV5+Pkjvuukc6PtVVy5EL8eGQd2TkF2M1pPHWG/3lodaPxmsDA6dhoybGaFlwwbXn+vaXqtVrqZfg3sa3yJ7duwSxdOzGx0+fbXItMkiZq8tqWKRV2/bx+nWf3FK/oYwd/bnUuameNLi9iZw5c0beHjRAPhj5pRoBd9x5j9x6QxX1Vth2oXCBR6BsufJSv+Ed2q9t6/9atFhx6d3vdfWagJEXy0pVqskH772pjG9pcLt2AWMiKXLixHF5tldvKWfWG7knieEFb1aLlo8oI+S0eDHCOsCrdHP923UN7BjdjFGG91KqVKnkrDHetm35U35euti0aajVYWAM/2S0E3rC/Pft3XvBe8D2zVcSIAESSEkEUpQhAbClylwt7w4bpeEBKKMOj7aU0eOnm/M1quytu/2aa8vrOvy1bYuGEXACDwMEigE7YRgRkEKFixrFvVOPN2/cIKtWLJfHHm6u54eM29srtLFy+TL5v/PGBioizAIPCEIRSZEcOc65t/OY3TEE4QokkkJRPmmUHOT06dOC8SDMgNBEKGIV9MD+feKFIlCeMVMm7SIULjDYkOQ6b84s+d+DraXRnXer4vQfQ42adZzQSyCWCLlgXhUNs3AIjAhIYnlVqVZT2wVj1NgYiyvMWt99ez255/4W8sDDbSRz5izazv0LT+lMGv+NGjMw3mD0Wbm2fEXHiLBlfCUBEiCBy4VAijMkLHi42Pu/8bY0urmW/Gniz7lz5zWehX8fgYSigsBtDaXsFpsLYcvOp0boaT7jNcBuvvP/9bCX4ylgW5jf5E0cPXLYnsphE1qBx8QaMs6FZBzkyZNP+xz8/ofxegnViECj3LnzaFt4PPLlL+D0g2RQPAHjlmBcylxzrXz+zWQN37xhXPeQO5re625+wXEgltbYQi6BSSy5oF2M2dkjxyWxklRewRhhPQe9O0xZvTWwv3pyXnhpQLyhwYDp3P4RGfzucMG1MV98YkIa58I08SryhARIgAQuQwIpKkfi808+0kc+4W7Grnzm9Km6JMgfqFK9hknEnKwf+FBUX3wyQvMKChUukqhlQz9IzIQrH09BnDW7S/z4S606NxqF8al+pwGMFtzvplvq+1e74By7f3gV7KOaF1RwFVxjQgmYJ76LAvF/GBBHD/9rvLiqxjvMkTOn2Z1v1rLMJgm0wnWVTLjjC8mYMZP2s3/fvkQZPMizmD5looYAat9QV7DD3r9/b7x7ep0EYgmuWDMktGooYOsW+e3XtU4X2M1DER8xhtqG33/T0JJzMchBUnkFY4TkVSR1YkwIVeC9B3EzhkcDhhk4Y12Xm2TMYJLFzB/GB/JUIPgekVf6PBesCa+RAAmQQMQSSFGGRMNGd2qi2v133SYNbqyqTzu8+sa7GrK4vnI1efrZXvL0E23l5lrXy9JFC+T1t4Yq+BhkuLkEsWz8WHHvxNHPE52fkac7PCpNG9bVXAw8ZeEvD7V+TBXqnbfdKLfXqym5cuWWDp27+le74LxEyVJyddlycsetdTRUYCvgyQO3YExQuNgNf26SQ+F5ueu2uibx8pzxFK+u3/waNr5LDRuM64/f12veyPa/tsottStpP0jMhBILlctJ83TJz0sXyW03VVMXP55Wuf2Opu4h6HEqk3sCb4KVYCx79xsoC+f9pGPqbpJdkQNi5bpKVfUJmCb1b5B+vXuqgZbqvNsIY7b38B9/qLzsfdzMkVvjxQjhmZbN7tTv6Rg57H155NEntLmbMYwIhMuQe4K68ExZcY/XltUxxhie4mh8S21N8oThi4RNCgmQAAmkRAIxR48e9eHRxUsp63eflgLZQ38EFTFoPOGQ0yhvf8GHMp5ayJ4jh/+lRJ1D0R40X+oEA8FtdPh3ggz+uLhY5xFP/+uBzrHLzZYtm3mKJLRcB3zBFHbOodaH8sfY3Ert+LFjOhz0kxQ5ffqUPuXg7jOUfoKxxKOkWMcXzNMp8HTgeyKs4NHRpK5jYnnZe3oxCjR+N2N4bXBPPMoZ7P1i74P3KernMqGnUOrbdnwlARIgATeB3YdPyzUFQtef7rbhOk6RORJIkvQyIgAFMe2kKh83VHy428RHd7n/sXsn7X8t2HkofbvbB5qvu477GGEM/LglqQaE7QNGTKiGjG2D12AsoUgDSXLWMbG87Bi8GAUav5sxPEjB5mL7t694n+J7RygkQAIkkNIJpEhDIqVD5/gvJID8AnzJGIUESIAESCBlEaAhkbLW67Id7f0tWl62c+PESIAESOByJvBvZtzlPEvOjQRIgARIgARI4KIQoCFxUbCyUxIgARIgARKIDgI0JKJjnTlLEiABEiABErgoBGhIXBSs7JQESIAESIAEooMADYnoWGfOkgRIgARIgAQuCgEaEhcFKzslARIgARIggeggQEMiOtaZsyQBEiABEiCBi0KAhsRFwcpOSYAESIAESCA6CNCQiI515ixJgARIgARI4KIQoCFxUbCyUxIgARIgARKIDgI0JKJjnTlLEiABEiABErgoBGhIXBSs7JQESIAESIAEooMADYnoWGfOkgRIgARIgAQuCgEaEhcFKzslARIgARIggeggQEMiOtaZsyQBEiABEiCBi0IgzUXpNQmd7j58Ogmt2IQESIAESIAESOBSEogIQ+KaAukuJQPemwRIgARIgARIIIkEGNpIIjg2IwESIAESIAESEKEhwXcBCZAACZAACZBAkgnQkEgyOjYkARIgARIgARKgIcH3AAmQAAmQAAmQQJIJ0JBIMjo2JAESIAESIAESoCHB9wAJkAAJkAAJkECSCdCQSDI6NiQBEiABEiABEqAhwfcACZAACZAACZBAkglExBdS/f777xITExPyJHw+n5QpUybk+qxIAiRAAiRAAiRwcQhEhCGROnVqueqqq0Ke4caNG0Ouy4okQAIkQAIkQAIXjwBDGxePbYroOS4uTvbs2ZMixhrOQWLOmHs4Zfr06fLmm2/Kb7/9FrDbf/75R/7++2+9vn79epk7d27AurxAAiRAAimBQER4JMIJCh/SvXv31i5TpUolhQoVkrp160rVqlUTfZtTp04Jwi4VKlRIdFs0WLlypZQtW1bSpQvv3xJxzzF37txSsWJFqVWrluTNm1fH6b6eNm1aKViwoNx2221Srly5C+Yxb948efLJJ2X+/PmSLVu2C64nVLBv3z45fvy4FC9ePKGqEXMdfOrXry/vvfee3HjjjWEZ1+zZs+Wll16Sxx57TMA8kOCey5YtkzFjxsiSJUtkxYoVYRtDoHuynARIgAQuJoHLziNx4sQJwYd6kyZN9CdjxozStm1bWbBgQaI57tixQzp37pzodrbBE088IXv37rWnYXu1c7zjjjvk6quvlpkzZ0qzZs1k586deg97/Z577lEGMKgeeOAB+eOPPy4YQ40aNeTzzz9PkhGBzrCj/vjjjy/oN5ILcuTIIZ9++qlUr149bMOEd+Gmm26SNm3aSMmSJQP227p1a3n11VcDXucFEiABEkhpBC47j4RdgGrVqqlyvPnmm2XDhg26465du7bExsbKhAkTBHkW8DRgpw5FC+/D2LFjZdu2baqcoWDHjRun5aNGjZLSpUvrrh87SChP9IO+r7vuOr3ljBkztN3ixYvl4MGDAmWFnTr6LFq0qNx7772yevVqmTVrlnoosCNGn/4SqH//ejiHIoQX4b777pPu3btL3759ZdiwYU7V66+/Xq9DwcHYgIfE/55HjhzRcVmvC+YKIwxu+qNHj0rTpk3Vo4FO/ccPBnPmzFFjCe1uuOEG9Yp89913smnTJvVSoD2MOUiwvhFmABuMMX/+/AIjKEuWLBoGAEOMBf1XqVJF+3L/wg7/zJkzuj4oX7p0qYYtsIb+69q4cWPlj/sUKVJE0qdPL3btMD8YWw0aNIjnvYG3ZuHChZIpUyYdU+bMmdVws2PAe+mDDz7Q02uuuUZatWqlngav98muXbs0lFSiRAnb3Hk9e/asrhPGUaxYMbn77rt1fHi/wrNl1w5hGaznQw89FPD9vGbNGmUCo/Knn36SLl266Pidm/GABEiABMJE4LLzSPhzgbKDIQHlBHnmmWdk2rRp+kE9fPhwwQ9kwIAB8uOPP6oCgdKAIoQLHIIPeCg6KJkXX3xRsmfPLmnSpJGHH35Y/vrrL62DD/v27dur2xpu/sOHD2s57o8f1MMHP0IRUP5ff/21Xnf/Cta/u57/MQyh+++/XxYtWhQv7n/s2DH1UkycOFG2b9/uGD3u9rt375bXX3/dKRo8eLC0bNlSxw9lhDlCvMYPJQ1DBPMDIzxN8/LLL8uvv/6qu3IYYoMGDUqwb7SDEYT8AqwTcgzg9ofxYD0tWbNmla5du2q50+H5A4RnsHZWYNxAeUK81hXlmOf+/ftxqIYl5rl8+XI1POC9gcKHwMh4/vnnlR0UOAw1/9DF6dOntS5+gUWwdcQ9Jk+e7NS3B3h/4T4jRoxQww2GHDxp6A/htc8++8xWlSlTpsgvv/yi54Hez7gP+hsyZIj2Z405pxMekAAJkECYCFy2HgkoEOxU8eGPnRx2otjpYbeK0EeGDBl0l4fQBQwAKMry5csLwgXYkUNgLCAk8uijjzq4oZShuE+ePKn9rFq1Sj0OqAADAkoZj7Iiqe7999+X5s2b684XngbsZLHbLVCggNOf+wDjDNa/u67/8RVXXKFFMAysQCFC2cMzglyAQPe19e0rFBByLpD/cMstt6hShdL1Gj88PwjfWEavvfaa8kFfMJhgSKA/K159Y9c8fvx4gScDOS1W4MHAY74w3iB4ugdGYGJCEl7ravt3v8IDYsNYMCThsUBuCQwUGIBYN3g4sD44dgu8BQhpwHDDKySx67h582adG7wyyHXBeOC1gpF0++23S7t27eSFF15QbwoMiU6dOgV9P2MM4Dp69GhdB5xTSIAESOBiELhsDQkoG+Q4wJDALg9eBLiooVTheoZgJ4kwBJQtXL/PPvusutcRx4Zb2V+wc540aZIqPPQN5Wo9D6hbp06dgN+HgdAB+oQSgqECxWCVv71PQv3bel6vNhcDHo8DBw5oFYwVyhzGRb9+/XR33r9/f6/m8cpy5cql5zZ589ChQxoGSmj8aAQu8PIgxIPQBPi7xatveH/gyncbEWgDTxJ21jDGIFgr/zp6Icgvr3WFIegvefLkcYowFssQxiF2//AMwBjE+BHiCCZJWcd169apF8cyBzsk0SJsAs9Ezpw51QhGOAa88F6DURXo/YzxoT3Wn0ICJEACF5PAZWtI1KtXT70LyB9AMmHHjh0lX758qgg+/PDDeEwRJ7/22mvV5Yy4NtzskMKFC8erh/DFyJEj1dMAIwC7wlAFu+lu3bppqADxdLjSsftEuZXk9I+dK+LzmIu/wBMBjwy8BUmVQON39wdlix05FH+fPn0ECYjwiiQkUJI2zOCuizAH1rFHjx5OsZuXLYRhAA+Ql3itK/JVQhV4BT755BP1zGA877zzToJNk7KOMGRgsLkF57gnPFzINfnhhx/U4IK3Ausc7P3s7ofHJEACJHAxCVy4NbuYd/uP+4bSgRJCXNu6uOF9wAcyYu74MIZHATtIuKKRsFe3bl3dyWGHjzrYBSMPALJ161b94iwYEVu2bNHYdaAp2Uc+UQ8Cpbp27VoNL0DRol93bB11EtM/6qM9+oeig3GC3be/YL4I6SBMgHBFUiXQ+LHjxQ4ZMX7sjuGBwG4ZYvMUEronHktFWzxJgX6QzwFvBEIJCENh7XAfrA9+/AWhBXgNsJbIr8BOHRJoXf3bBztHjgTyT5B3gUc2bVJqsDahriMMBMwXgrAa1gqJpSiDkQnmlStX1usNGzaU77//XqZOnaqhDncb//ezNvD7hXwTeOLwXqCQAAmQQDgJXNaGBEAhxIFdLRL5oIxgVHz00UeqVGE04IMZsWQkKiLej7qIV2MHWKpUKU2+hGJE2AOxarjsa9asqU9JIPPefrU3dsVulzmOkbTYoUMHjXUjvABFj3vCkHjqqaecpxnsggbr39Zxv+KpkRYtWqiBMnToUFW87usYN74/A8YUFJV7Z2/r2fHbc7z6l+EchpXX+DEfGBJ4Igaxe4Q/oHhxb2uAJdQ3nnCBpwcJhXgKplGjRurSx3ogmRD5F7gP8ldgjPkL5ojdOZ7q6Nmzp/LGmAOtq21v5+m/drhur8FIweOtWHOMAR4uKG5/sfVRHmwdUc++T/D+grGFvB28N7GGeH+CAZJW8Z0TNpQD4xWPlcJzY59cCfR+xhjc98E5jCoYYfAaUUiABEggnARizE7Fh3jspRTEgRP7FdmJqe81N8TAMW93KAA7QuyMbRzftkPSIT60URdPJ2B3B3d8KIInP5C0aRnjvvB0WI+Ffx+J7d+//cU+9xo/lBPK4Z6HksSckUcQaI7BxghFCbbuEAZ26Ogf+R9WCXv1gfvCKPGXQOvqX8/rHLksMB5grEARw/CEdwceimAS6jrCM4UkVvf7EGVg4DZOgt0L18DH//2cUBteJwESIIFwEIiIHAkoIjwyF6pgd5VcgVLyF3yYuz/Q7XWbAIdzGAWhGhGo76/YvO6LelYS279t91+9eo0fSh8eASv+c7bloby6kx5tfRgP7jWw5f6vge4baF3923ud40u+EFqBhwXjQCipUqVKXlXjlYW6jv5GKzrxKovXuceJ17p4VGMRCZAACYSdQER4JMI+K3ZIAmEigKcpEHLAdzkg8RF5G3iKgt/LECbA7IYESCDFE6AhkeKXkBMgARIgARIggUtHINWluzXvTAIkQAIkQAIkkNIJ0JBI6SvI8ZMACZAACZDAJSRAQ+ISwuetSYAESIAESCClE6AhkdJXkOMnARIgARIggUtIgIbEJYTPW5MACZAACZBASidAQyKlryDHTwIkQAIkQAKXkAANiUsIn7cmARIgARIggZROgIZESl9Bjp8ESIAESIAELiEBGhKXED5vTQIkQAIkQAIpnUBE/K0N/C2DxPyBIvytjaJFi6Z09hw/CZAACZAACaR4AhFhSMCIyO7/Vxvxd7livPkeNn/lkUICJEACJEACJHDpCUReaOP8H/aMjT3r0PHF+SQuNs45vxwPfvrpJ/3DUOGYG/4U97fffhuOrv7zPk6ePCmff/65vPPOO/rnyIMNYP369TJ37txgVS77a3v27BH8mXUKCZAACVwqAhFlSMBg8PnOfSimNn+uG4IwRkyqGEmVOpUeJwTqb+OteOqpp+L9PPfccwk1C9v1ffv26Z+aTmyHY8aMkeXLlye2mWf9Xbt2ycCBAz2vRXrhe++9JxMmTJBs2bJJhgwZ4g138+bNcuDAAadsyZIlMm7cOOf8cjjwn6P/nFauXCmnT5/WYrzX69evL/Pnz/evxnMSIAES+M8IRJQhAYMhJlX8Iflcu61zhsZ5l0UARCdOnJDZs2dLw4YN5Z577tGfRo0aBagd/mLskD/++OPwdxwlPa5du1ZatGghrVu3vsCQGD58uCxcuPCyJpHQHJ944gnZu3evMshhwoGffvqpVK9e/bJmwsmRAAlENoHUvXr16pMuXbpLOsojR46o0oD3AYKcCRgQeIVhYctTmWOUnfrnH92xeg366NGj6hrv06ePlClTRooXLy5XXHGFbNq0Sb777ju59tprtY+lS5cKXOMlSpRQFzrc6QgvpE2bVgoVKuR0vWLFCvnmm2/kl19+kfz580v27Nll8uTJksZ4THLlyqX1Jk6cqOOHJwB1t27dKsePH5esWbNqnQ0bNuiYVq1aJXny5BEoAH+ZOnWqFChQQP744w+ZNm2azhnjhoAP7jFp0iTZvn27XHXVVTpOe23KlCl6DTtUXINXBGN89NFHtT12rL/++qty+Oyzz6RUqVKCNT916pSOC5ww71GjRun44B1ZvHixzhXj9RJw+frrr1WxZ8yYUceOemDwxRdfqDGHdbNzcPdx9uxZ+f777zX8gvlgPOC5YMEC+eijj3St8uXLJyVLlnSazZkzRxkcO3ZMdu7cqW0wJ8w1Z86cMnr0aN2pIwkX7xNIKNxRLzFrjLVbs2aN7NixQ8cJnlWqVNE5Fy5cWHB+8OBBHTu4Y1xIJgaH9OnT63hh6IL/V199JX/++ae+R3E+x2OO7n+b6OvHH3/UfnD/smXL6nsa7/FMmTLJjBkzdB1RB++nLFmy6L+TsWPHyqJFi3QMmTNnxpRVvMZnr/GVBEiABEIlEH/7H2qri1nvvMPhvE3x752COyL+rXf+CAoGuQL4gcLEhzw8BVDIUEYIf8AogOHRrFkzVU5Q/F27dhW4zCGo26pVK/1wPnPmjONG/+STT1RJnb+VKuCNGzfqfaD0Y2NjBcoSihRK5+GHH9YPdSh67LQxNi8ZPHiwbNu2TQ2QDh06qGJAvZdfflkNAShWuPIHDRqkzXGvNm3ayPTp06VYsWJqPOzevTte11CSzz77rBpM/xgDDPeAkQPBK87hxYHg+KGHHlJFDG7ggvH4C4ydF198UfnBAMD8oCwx37Zt2ypzGAcwSOy9bB+I5z///PMyYsQIKViwoI4dbcAM6wQBa5y7BWPHWqG9ZYvrP/zwg/YFY6Znz54Os1C5J3aNcU+EoDCHIUOG6Bxwb7B7/PHHdb558+aVL7/8Uvr27avKGwZSly5ddOxYH2O86/sMBg8MD7uegeaIe0IOHz6sr2Bj+eC+WCsIQkJYCxhYyJ3AWoItPBh4T+M9byXQ+Ox1vpIACZBAyATMh7P5/L+0YpSQ74gZh9fP338fdsrNB6nv8JEjPtQPJGan5itfvryvRo0azo/ZjWl184GuZUYx+8yHuZYZ48LXsWNHp7uRI0f6jJI0DpE4rWu8A841e3Dvvff6jPK2p76mTZv6Zs6cqecmxq/t7UXjivaZnb499bVr185nPAvOuT1AvQ8//NCe+oYOHeozSkDPjdJwynHfW2+9Vc+N98N3xx13+IwCdq7jYPXq1Tp2o7R8N910k88oW70OfmBjlIyem3wDPTeKSM9xzXhe9Bi/jJHiM65259x9YMdkjBCdv/GA+Iwi1P6MZ8ddNd6x8RJoHaPctBzvP6yV2aXr+f333x+Prbvxgw8+GI8d1s4oTp8dS//+/X1GeWuTULgndY1xX3AFTytgh/cOxOQw6ByNMaPnWB9cx/sWa4Nj29Z4Zpz1RGX/OWoH53+ZRFSnH1uOvoxnTU8x53fffVeP7VpgXSDG8+HcN9j4tDJ/kQAJkEAiCJzLaAzZ7Lj4FTUnIsaENMwP5PzLuRujPNAzoedqOL/hOkfCnltq1aqloQ245GfNmqWX4P7GDrN58+Z6Drc0QhtwuWM3Xa1aNXcXiT7G7hD3QLgCgh1+xYoVPfuBe9pK6dKl1S2Oc7ixETtHuAHuauw2IQiV1KlTR93kWuD6hbFjF4z5VKpUyXUl+CF211auvvpqDdPYc/tq3l8aSkGoCGPDjtgoRnW5w3vSvXt3dbsbo+kCfuvWrVO3P3btEMwHPODRqVu3rpYl5hdCDTaUAa/TsmXLtHko3JOzxhiz//urZs2aem8wgfQx4bXUqVPrMX6h3K6xbYv3ml1Pp2IyDmy4DWEUhOIQ9oHA+wOBVwzvCYjX+IoUKaLX+IsESIAEQiUQcYYELAf310c4ORJGefknYoY6SVtvy5YtAkWGMMC8efM0ERMftvXq1ZMePXrYavrhDxc6BAoyd+7czjUcQDlYN3y8Cx4nUBTGY6HJn/YyPuQTEoQ/ME64sBG+gKGDD37kdTzwwAPaHOPyD2W4+4UxgnAIXOf9+vVzFC5c6KEIFJw7T8G2gQvd7L7l/fffV9d9p06d7CW56667xHhM1M2OHI3x48fH6wM5F4cOHXLq4wDnWIdwSijcba5KctfYf9w2r8R4SJzcEdRBfgIMnP9SrEHuvmew8bnr8ZgESIAEQiEQcTkS+OBTJW4MB0h6qfhjqwAAQABJREFUX+w570Q810TCU8P3ESD2b3+wi8Zu2bh/pXfv3vp4JGLHxq2uiYGI8WOXiPg8fpAvUaFCBY2DQ/Fih48ETQjKEfeGMYFdORI5raAPnFtD5MYbb9SkRBgEuAYDAYmNXgIjB31ih488DHgbcF8odBxDkBBqBWOHp8M+NopX5E1YwWOv8ErA+2K9Gdhx2rEjT8Ff4OUAKzxmiOQ9L48MkkmR1IkEQhhnv//+u3aDe6MNdt333XefKk7345qoZFzxOkckAIIRxgbjqHLlyv5DueAcu2s8HhmKhMI9qWuc0P3hZYEXCEmnYIH7YN3d3olAfQSbo028BPPkSHLGl5z7si0JkMDlSSBiDAkor7jzCXbqeThvOPxz9t8nOXAd9UIRPF8PRWt/sDPGEwX/+9//NMu+QYMG8sorr6iifOaZZ/QJB7jWTc6B4BFEyJtvvqlJmFCmcFsjqx7SuHFjrVO1alVH2dqdH/qAIVG7dm1NuHvsscfU8DAxdXXdP/nkk55eBLjnoYjR/uabb9Y28ETA+Lj77rvF5A6oMeE2FDC3bt26CTwCMG7gVcEcMRbsfmGwwNUNY+Kll15SBY4+8WVPGDsUHMSOHcf4Iiu47ZG0hyRNLwV/++23q2ECJghj4MkX9AGjAY8jIoSEeWB81113Hbp1BPMx+R8ybNgwvQbjDt8dAQ8CJJiyhbcDxg/uC+MD97RhDXsDex4q96Sssdd9cX83RyRBwuCCQQEer7/+uhpO7jp2zO5X/zm6r2FuLVu2FCTi4v0N4xRi+8R1O393O6/jQOPzqssyEiABEghGIAbJbtihXEpBrPqCr8i2A4Ld4I51mFN8RXa4Y7nYHUMRIlzg/2EM5Y3doPsLklAfT39AMfoLPuDRF1zIti94GuBdsDFs/zb2HN4PPJXgvyaIbWN3a3eltj5eMRbEva3L2n3N69iGNtzzQT0YI8gfQTwduRJe97L9YYx4isLG4G05XlEO5eY/B3cdHGPMaG8Vof91r3N4mDD+hDjatqFyT+wa2/4TesV7BJIQC3c/Cc0R7wU8LZOYPt39u4+TMj53ex6TAAmQQEQYEggrJEaZwCvBP9oV/jevNSSQZEkhARIgARIggVAIRESyJY2CUJbq4tdp0qSJp4fl4t+ZdyABEiABEkipBCLCI5FS4XHcJEACJEACJBDtBFJFOwDOnwRIgARIgARIIOkEaEgknR1bkgAJkAAJkEDUE6AhEfVvAQIgARIgARIggaQToCGRdHZsSQIkQAIkQAJRT4CGRNS/BQiABEiABEiABJJOgIZE0tmxJQmQAAmQAAlEPQEaElH/FiAAEiABEiABEkg6ARoSSWfHliRAAiRAAiQQ9QRoSET9W4AASIAESIAESCDpBCLiK7L5tzaSvoBsSQIkQAIkQAKXkkBEGBL4g10X/PVPj7/6aUHhr39SSIAESIAESIAELj2ByAttwIAwEht79tyB+e2L80lcbJxzntIO1q9fL3PnznWGjT/VfejQIec8pR34zyeU8a9YsULefvtt+eGHHwJWx58Hx5/Ihuzfv1/GjRsXsC4vkAAJkAAJRAaBiDIkYDD4fOcMhtRpzjlL8CfDY1LFSKrUqcy181ZGEHZQRE899ZQsXLgwXi2co/zAgQPxyv+LkyVLlsRTiv369ZM9e/b8F7f2vMepU6dk9erVntdCKfSfT0Jt9u3bJ61atdL1y5gxY8Dq7733nrRr106v79q1S/r27RuwLi+QAAmQAAlEBoGIMiRgMMSkij8kX9y/nohzhkZwY+LEiRMye/Zs+fLLL+MRxjnKoUSjXXbs2CGdO3f+zzBs2rRJMmfOLE8//bTUrl074H1bt24tr776asDrvEACJEACJBB5BCIiR8JisR4H5EzAgIBRkSp1ascTAa9EKAKltXz5cjl48KDkypVLX9euXavKzLY/cuSIfPfddwIlV7x4cWnatKlgt4zdM3bc5cqVk+nTp0vu3LmlcePG2vb06dNqoDRr1kzPYZR89dVX0rx5c227bds2mTFjhvZx/fXXS8OGDe3tPF9xH7jzb7rpJr0eZ+b8+eefS6NGjSRPnjzx2mC8M2fOlA0bNujYUCeV4bN06VJZsGCBjgdzyJcvn7Zbs2aNYLyxsbEyb948qVy5stxwww0aUkHIAGMfNWqUlC5dWmrVqqXHmCeulShRQho0aBCw73gDMyfguHLlSsmfP7/cddddytzWwbiHDh0qx48fd+5x8uRJT07wQsBTg/v7y9mzZ3X+8KQUK1ZM7r77bkmfPr1MmDBBypYtq/NAG7QHp4ceeki7mD9/vnqnrrjiCuWaLVs2AZszZ84IjM6ffvpJunTpIpkyZfK/Jc9JgARIgARCIBCaZg6ho7BVOe9wuCCKEdwREe/2UFq33367E49HXB6KF+VWXn75Zfn111+lZMmSqjwHDRqkl3bv3i29evWSrl27qqL+7LPPxF6D0h88eLDTD/rDORQSFFPHjh31GEoLbnko2GCCNr1791Zlj3oYD5Rujhw54jWDMm7Tpo0aNlCikydPFoxz7NixGq7JmjWrbN26VZW4DZnAkPq///s/GTFihBo5PXv2VOUNw8LmIUA5w3iBYB6PP/64zi1v3rxB+3YPburUqcqnTJkyaqT8+OOP7ss6N8sd98NPIE4YM+bmLxjj888/r3MpWLCgcmjbtq32/fvvvwvWyMqUKVPkl19+0VN4obAOWA8YWzAY0Bfug/6GDBki6C9YuMX2y1cSIAESIAFvAhHlkYAnQsz/EOt9QJKlHptyDXOgTgiC3TUMgPvvv18mTZok3bt3192+bfraa6+poYBz7FJRF8rFysiRI7X8yiuvlIEDB9rigK9p06aViRMnap9Qln/++acsXrw4qFeiZs2a2h88E/AKQAnfeeedkuZ8foi9Gbwc8CBA8aVLl05atGihXhqM+ZVXXpGbb75Zq7Zv316VKowgCIwOGCbwXBw+fFiWLVumBlaTJk1UsT766KNaz/7CvR955BHtu0OHDkH7tm3gRShcuLD2myFDBlvsvObMmVNDGv379xd7v8Ry2rx5s0ybNk1mzZolMHLuueceqV+/vnpaYDAir+KFF15QNjAkOnXqpIbdgAED1IME7xLaVKlSRXbu3Kljg/E3evRoXWNnsDwgARIgARJINIGIMiQwemssqFFhzuPZDeYE/4UiCC0gTAFljhAHlIlbkCcwfPhwvZ4lS5YLkh9hXEAKFSp0wTV3P+5jPJnwzTffaCIjvA1wuQeT1CZs8+CDDwqUHwwJeDCQiOkvq1atkjp16qiitNfw3RvY6VeqVMkWSfXq1XU+tgCeDRgRECh7GBLBxBo2ofRt+4GCRr/16tVTAweeE/AMJonltG7dOvUcwYiAoP+KFSvKxo0bBZ4JGCsI8RQpUkRDVWCF9YX06dNHwNmKLUd7u8b2Gl9JgARIgAQSTyDyQhtqLPw7EeRJIHdCcyZgVYRmR6gChZLr0aOH7katYYKe4d6HwsOOHcobYY5QxCplhDj8BbkW2M0jTwG7Zxuj96/nf46cAhgSyDHALvm6667zr6J5Gv6PiyL3A2LDFDiG16FAgQI4TJYkpm/UHTZsmIYdoMy9DCH3YJLCCfki/vPHOXIysK5gjvAVkmmx5sidsDkm8IR8+OGH+oN8CXglKCRAAiRAAuEjEHGGBBSDxu3PJ0mk98WqsojvmggNANze8Eb4Jz1iJ49cAuxcIUi4C0WwE8auF/F2hBqQf2AFO10kecJDgJwGhCusOHOyBeYVxgwEyZHYzSOWD6PCGit68fyvGjVqqHGC2D4Er2CEe2EMSKpEoueYMWOCPhVxvjtBTgW4YJxegnkG69s9nzlz5qjnB94XcEaoI5gE4+Ruh3tAYESWL19eeSMnBPNGiAPfZYEEUgju+/333wvyNbDmEDuHL774QhMpMWd4qNzeCa14/hdCI/h+DwoJkAAJkEDiCESMIQGFEXdeueojoOcVyT9nz2VZqvIy1+2THaFMs3jx4rpThfJ3C1zayPpH/gSMCbdCtQrMXd99DE/GO++8I1WrVlWFjGtoA8WL8AF2vMg1sLt6XC9VqpQaK9ixQypUqKDJjXpifuEpEOzU8aSEl8CQ6Natm8b+0RZeFijsN954Qw0I3POOO+6Q1ubxSdsHxuRvlNhzjAehHsz92WefdW7pnnuwvt3zwVMkmC9yFt5//3154oknnP68DoJxco/Zrhm8CVgv5HrA8wGPDTxI+M4JhJ0gSKZE0iy+xMrtcUACKZJQcU+Ejl5//XU1RNz3sWNEKAo/FBIgARIggcQRiDl69KgPu7dLKdu3b7/wK7LtgGBH+IUz8BXZVtHYakl5RVgAj/0hgTExYkMb/smFMHLwhVcwIqzStv3CAwCPBdzuUFi4t435wy2Pb31EUqhbmdu29hW7cfRj3fa2HIYQ5uGfpGmvB3rFDh1KGmMKJIH6ds8H48K88ais/7y9+g3GyV0fniN4bty5DLgvciKCcXL3geNjx45p0aV+n/uPi+ckQAIkcDkQiAhDIlr/aBdyGvAdDzAinnnmGcctfzm8sTgHEiABEiCB6CAQEU9tFC1aNDpo+80SnhjkGOBbJm1s368KT0mABEiABEggoglEhEcioglxcCRAAiRAAiRAAgEJREyyZcAR8gIJkAAJkAAJkEDEEqAhEbFLw4GRAAmQAAmQQOQToCER+WvEEZIACZAACZBAxBKgIRGxS8OBkQAJkAAJkEDkE6AhEflrxBGSAAmQAAmQQMQSoCERsUvDgZEACZAACZBA5BOgIRH5a8QRkgAJkAAJkEDEEqAhEbFLw4GRAAmQAAmQQOQToCER+WvEEZIACZAACZBAxBKgIRGxS8OBkQAJkAAJkEDkE4iIv7URrX+0K/LfHhwhCZAACZAACQQnEBEeCfxJ6Ow5csT7yZY9e8DzxPwJ6eDT97566NAhOXXqlPfFEEtXrFihf9UTfyI8EuSnn36S33//XYeCP4OOP2MeLgkHL/+xfP3114J+L2dZv369zJ07N6KnGM51wHqiPwoJkMDlRSAiDAmL1OfzCX4gvrg4W3yu7Hy5UxjgoEePHvLbb785Vz/44AOZOHGicw6FOnz4cOfc6+Cxxx6ToUOH6iUYFKtXr/aqFrBs37590qpVKx13xowZA9b7Ly+MGTNGli9frrd87733pF27dkm+/ebNm+XAgQNOezcvpzCZB/369ZM9e/Yk2MvKlSvl9OnTCda7mBX8eYR6ryVLlsi4ceNCrX5J6oW6DqEMDuuJ/igkQAKXF4GIMiTcaFOlTq2ncbFxAg9ETKpUalxYQ8Nd1328a9cu+eWXX861NcbIJ598It9++61TBYZEQorntddek5YtW2qbHTt26J/5djoI4WDTpk2SOXNmefrpp6V27dohtPhvq7Ru3VpeffXVJN8UhtjChQud9m5eTuF/dPDEE0/I3r17/6O7ed/Gn4d3LZaSAAmQwOVJICJyJCxar5BFvDIYFOYnmFx//fUClzFkw4YNUrhwYUGY4cSJE5IpUyb1LnTo0EGvoxyu5djYWLn55pvluuuu03IYAmgHowU7RnglRo0aJaVLl5ZatWrJd999J9gJ58+fX+666y7JlSuXtsOvI0eOqDfj+PHj2qZx48aSN29eWbp0qSxYsEANjKZNm0q+fPm0zYwZM+Tqq6+WxYsXy8GDB6V9+/ZOXzjAfdEHxlGiRAlp0KCBzmvatGmSIUMGue2226R48eLaBnVvvfVWmT59uhpLOC5Tpoxec/+CsYXdIfqDYMwzZ87UfsuVKyeNGjWSOGOE/fjjjzrP7CbM1KRJEylUqJDMmTNH1q1bJ2fPnlWvRLNmzcTyyp07t/aHHTpCOmCOMaBPyJo1a3Rc4D1v3jypXLmy3HDDDZL6vNGolTx+YXxgjvtgruAHT8/o0aMFnMeOHStFixaVe++9V9dywoQJsnHjRqlQoYLySWWM0ITuvW3bNp3v/v37pW7dupInTx6Bx6B58+bOiLBWeF9ce+21TpkXDxiRgdbbaXj+AGMD559//lnXqmHDhpI+fXq9ivAT5nb06FHlVKVKFf/mOq8zZ84oaxjJXbp0UcZe7bDu8M6hv5o1a0qdOnW0P4QcMLctW7bommDN/AXvTxjgN954o17C++Ozzz6TO+64Q7Du8+fPV+Pyiiuu0PdPtmzZtB68c3g/4vXKK6/075bnJEAClwGBiPJIIJyBDyhIrFFUkJhUMcYT4RPrmdDCIL/wIb927VqtAUMBH5ZQZAhPwCD4448/VHHj9cUXXxQoyTRp0sjDDz8sSPqEQBGtWrVKlZLNJYDixNimTp0qgwYN0g99fABDCbgFShLKDYI2EHyoP/XUU5I1a1bZunWrGh/WbY97wXhYtmyZYxBoo/O/Bg8eLI8//rj2CYMEChFjzZIli+Y5wLuAD2kI6j700EMC5QSFCCUPBekvCHFMnjxZi6Gk27Rpox/2xYoV0/Ldu3er4QLjBYoBBhlCIZg/8iugiHCM+cHYsrzQIYyMBx98UI2TtGnTygMPPODkAeC+//d//ycjRoxQQ6Bnz56qwPzH53/+8ssvy6+//iolS5bUcYE/5PDhw/oK5viBPPPMMwIjC3OBp8CGsYLdG6EwGAxYGxiHI0eO1LV65ZVX1CBBv1CivXv3vsDo8eIRbL3Rl1tmzZqlzHHfYcOGyRtvvKGXwRjrt3PnTh1L165d1bBxt8Ux5vX888/LkCFDpGDBgromXu2wTm3bttX3RalSpQShLrxP8f7G+sPDhDHAu/TWW2/530aOHTsmWAfrEcS/J4QN8e/nyy+/lL59++p7BcYyjBm8P7A+6BtGCIxQGB4UEiCBy5CA+cAynw2XVowC9x0x4wj1B/UDCa6VL1/ed/LkSZ8JLfjMjtH35ptv+t59912fUUa+GjVqOE2N8tFjs3P2mV2uzyhXPTfuct8XX3yhx4sWLfLddNNNeoxfH374oc/kP2j/TqHfgdlt+26//XYtNR+oek+jMJxaRin7Bg4cqOe4F35Qz0swF6PYnEuoazwPzjn6mjRpkp6jrgnrONfMh7jPKFI9d8/p448/9nXu3FnLv/nmG5/ZVfqMkeW0w4Flg2PL1IR5cOozhoJzT5y7+zYKz/f666+jWMUYDT7jKdBj3NcYQU7f/fv39xkFdL5m/BfMxXiWtNA9FrO79Zkds5ZjjVHPvh+M8aesUQ7BuV27YPd+9tlnPcfRq1cv39tvv619mR23ctITv19uHgmtt7spxmSMRKfIeDF0PsZo8eFax44dnWt4DxjD1zm3B6iHORqlrUWB2hmDR/s2XgvbVF+NQaHrY4xCPTfGt9Yz3jE9t+uA9vi3YwxZLccaG6PDh7Giji3H+8iuiUmsVGaoA8F64hqFBEjg8iIQUaENtdOQa+mKXsAzkdp4DCBxZteJXIlgAtczXMvwOGAnZHeRxgDQXap1D5tlFKOA1WWOPAjs4O0ON1j/99xzj3oP6tWrJy1atNAdF7wDgcQoOd35VapUyalSvXp1HZstgNckWMgGbmgr2JnDQ4BdNwQeh4oVK9rLutO3JwiZYJcdTOB5wf3TpUsXrxp24J9++qnAdW8FfLCzDCbwrMDTYwW8scO1HoMc5ukceEwgWCvUT0iwPvAsYD3B2npz/Nsh9IFdtjH09BLmgHARPFGQQPdGGAK7en9BqAQeDqPQZfbs2XLnnXf6V7ngPJT1djdCeMrKVVddpYcIQWCN4W2woRXMIxB7rL8NJQRqh3AJPArdu3eXsmXLqoepWrVq6uHC+9GGl4yi1zEgzJEzZ047NA23IMSGkBXawzP3zjvvCNYG0qdPH6cPnKMc3imEAuGZopAACVy+BCLOkIjzmeRK/BdzzppQI8IofdgXNgEz2HKgHZTX999/r4oKygMftAhzQLEibg6BOx4u7Pfff19dsp06dQrWrXMN+RBwQUOhmx21up4HDBjgXPc/sPkTcCFjLBAo5AIFCvhXDekcygQ5AoilW7ExdXtuX6FwEQ4IJohvI5ThL1A6yHHAXBGSsdz86/mfY3xugwzzBgOrqPzrJ3QOAwTucShUKCvkvyBc4iXIO8G9YDS6JRAfWwcuffeYbTnybTB3GDtQnF999ZW9FPA1OettQ1SYB8YEYxVPIVkJhWGwdsjnQf4D3vuPPvqojB8/XvN33IaZDcshjOYvxsum46lbt64aBzA6bH38W3C/p2HMI8zhfrrHvz+ekwAJXB4Egm/vL8EcdbdqDAcraYxhoWf/FtlLAV+h9BCPxU4LAmWAPAl4ILCbgmCnjh0gcgCw+7LfsaAXXb/QFrtB5BJAsEPHBz76gTLH7jGYYAcNbwTyArBDhgcB8emkPs2BZDc8iw8Fi10oxuLe8cHDAG8LkkGRQIddJwRcrVfAPV7jrlbvBna/ELxirkhWrFq1qrJDIp1bsFNFQqWXYHzwZMCAgJLBvOvXr+9VNcEyjBd9QNHZxEAkFFqxXhSsHwSKDd4H7JqxbjAgvAwErez6hTFjnGCJ2L69B4xSeJ2QN4D3SfHixV2t/j1080jseuP9AG8Yxg0DCOsFLwXWBV4QeDiwzkioxE9CEqgd1hTvByQc33fffeq1g5JHfeTLwDAGb3BAfkmRIkWcW9n3DQwrjMGECQWeOfCx8zWhQO0b3MERRg/WA33DU4Q+3PlEyAGB5yixj1Y7g+IBCZBAxBCIGEMCyg8f4ufknDcCx7HO458xeh31EhKbVY+nAqzAqIBSsk8xYHcFVznCBnD34gkG6wWB0rXudySmwQiBIjOxdHU5w8UN5QhvhskPsLcI+IoEOigMeEqQ5Y4ESTx9AXHfK1AHdly4ju9sgKFk4uKCneGTTz4Zz6OAR13hgUFCJsZrGcAbY/IylAH6s/ODIunWrZvAI4N+sQOGcYRdPzwt4IMdLHa6dhzY2ULh4Bo8BO45YHy4P5QzrsPjgURBiPu+WmB+2XHYc/uKsSB5FEr07rvvlvvvv1/XwBp0qIe2eEwXT+FgPbALhgflo48+Upc6+MCTAAl2bySSQknecsst+uQODCEkF0LwBAsUIdYtkPjzCLbe7j4wJiQrQrHDaMN7xD6WC4MCYRV4DjAP3N8mEfv34WYYqB2MBswLoQb0h3XHU0qob3JBNBETDOBFsN+hgvvYdcAx7oOxwkNj378oxzrBMIfBjP5N/oT+W4X3A54krB/6dhvd+HcMo8QaKeiHQgIkkDIJxCDZEruKSynbt2/Xb7HEh4tVVnY87jJ7fNjsdt07Jls3sa946gA7I3csOFAf2GVBqWGXC4MHH8xQku4P8UBtbTmUIHaEeEokuYIdLAwj60pHf/jQh7cC2ft4PNLu2HEN7DAHPNboNWbMCZ4XXLeC0AbKvd4fuIYnFtz3t+3wimtQElDuSREoGXg1rIsdx2DnnpPtF9fA1D1OrA/OEwpr2D7wijHDa4R1tgJmMDDweCyMqUDixSPU9QZjeE683odJfa8Faof3O/6NuVlhTlgrXLPhNztP/3Ww5V6v1vjy79skv+r7D+tHIQESuPwIRIQhAfetvwERDDWUIr43gBKfgDUk4H2gJJ8AHs3Eo41w9bsTSJPfM3sgARIggcuHQPK3xmFgQaMgDBBNF/jSKPduOjy9Rmcv8DBMmTJFXf8IRVFIgARIgAS8CUSER8J7aCwlARIgARIgARKIdAKpIn2AHB8JkAAJkAAJkEDkEqAhEblrw5GRAAmQAAmQQMQToCER8UvEAZIACZAACZBA5BKgIRG5a8ORkQAJkAAJkEDEE6AhEfFLxAGSAAmQAAmQQOQSoCERuWvDkZEACZAACZBAxBOgIRHxS8QBkgAJkAAJkEDkEqAhEblrw5GRAAmQAAmQQMQToCER8UvEAZIACZAACZBA5BKgIRG5a8ORkQAJkAAJkEDEE4iIv7XBP9oV8e8TDpAESIAESIAEPAlEhCGBv/yZPUeOeAO0fzLcFrrP8WfEKSRAAiRAAiRAApeeQESFNmAs4Afii4tz6GjZ+XKnMIkHP/30k/z+++9JbC2yf/9++fbbb5Pc3r9hcsfj319izg8dOiSnTp1KTJML6l6M8Y8bN0727dt3wb1YQAIkQAIkEHkEIsqQcONJlTq1nsbFxgk8FjGpUqlxYQ0Nd1338d/GW/HUU0/pT9euXWXQoEGydu1ap8qYMWNk+fLlznliD3bt2iUDBw5MbDOn/ubNm+XAgQPOeXLH43SUhIPHHntMhg4dqi2huLds2ZLoXi7G+Pv27SvgTCEBEiABEoh8AhFlSKjBYIwGt6DMERgU7nPnwr8HJ06ckNmzZ8s999wjTZo0kVTGAHnggQfkjz/++LfSJTwaPny4LFy48BKO4N9bv/baa9KyZUstmDt3rnz88cf/XuQRCZAACZAACYRAICJyJOw4Ec5AYAPKP/bsWUmdJo3xRMQYT8S5kEeq1KHbPddff71ky5ZNbrrpJpk5c6asXLlSSpcubW/lvMK9P2PGDN2NV65cWW699Vbn2pEjR7Tthg0bpFy5ctKoUSPnmj2YP3++HDt2TBo2bKi76IkTJ8rRo0elZs2aUqdOHVtNX+fMmSPr1q2Ts2Zu8Eo0a9ZMy+FlmTJliho7DRo00HvZhrj3tGnTJEOGDHLbbbdJ8eLF7SV9Xb9+vcDL0bhxYz3HPdKlSye1atXSc4ynQoUKOsYzZ84IDC2EI7p06SKbNm2SwoULy969ewXt8Dpq1Ci54YYbpGTJkpLQveMN5PxJIJ6Y848//qjrkD17djXyChUqpK0QXvnuu+/kt99+E6xB5syZvbpmGQmQAAmQQAQSCF0z/weDR/gCRgQERoQVGBOJMSLQDsp9586dAkW6fft2ue6662x3zivCIG3atFEPQf78+QU79Lfeekuvw4jAtenTp0uxYsVk8uTJsnv3bqctDlasWCHPPvuslChRQnM72rZtqzkUpUqVErj8jx8/Hq/+P//8o0ZGnDGYoFhtmAb3RbgFChXeE+vWX7NmjTz88MOSJUsWwVhbt259Qe4A+uzZs6fExsbqvV555RV5++239Rj9vfDCC5LahInQ//PPPy9DhgyRggULSsaMGWXChAmyatUqvS/miz7suEK5d7zJmZNgPJH3gJ8rrrhCDZR27doJOOAH4/roo4/UqJk6deoF3Pzvw3MSIAESIIHIIfCvto6UMcEl4YpmWM8EhhdnFB2MjVAEChmKFMr8xhtvlAIFClzQDJ4IKNnBgwfrK4wNKO5WrVrJrFmztD0UL3b4LVq00PY2v2HPnj26q+/Xr596OnAvGCy4F36aNm16wf3gtfj888+lXr16uiO3FR599FHp3LmzniLsAe8JlD3yF9q3b6/jwcU///xTFi9eHK8tPCUQeCaw08+bN6/Wwzi3bt0qMJCgvCHwRowePVo9NVpw/hfmXa1aNfVIYCyQDh06JHjv882dl2A84X1p3ry51oWnBt4dGGYnT56U77//Xj0S8FA89NBD6kFxOuUBCZAACZBARBOIOEMizmeSK/Hf+VwI9UzgaQ6D0SZghkJ00qRJqjChrKDsBwwYIP3794/XFLvu6tWrqxGBC+XLl9frSDrETh0KD0aEv8A4QWjg4MGDUqlSJb2cPn16efnll6V79+5StmxZwY4byjkUyZMnj1MN3g9rrPz6669OeAEVtm3bJhUrVnTq4iBt2rRyyy23yM8//6zzrVGjhhQpUkQ9EDAkENqxgrYI94Qiodzbv59gPK+55hr59NNPNYRi2x0+fFjDMpizDXPYa3wlARIgARJIGQQizpBAaEMf/TxvSKQxhsUZuCj8PBWh4oUnAvkDCB/4C3bv8CxYsaEIlOfOnfuCUIath1fkWyCPAE+FwFCB3HXXXZpjgZABdvbjx4/XOnoxCb+gXOHZgCfDCgwWf0FOww8//KAhENSHIQHPxY4dO5w8DP82CZ2Hem93P8F4wsiCR2TYsGGSNWtWx+uAsA1ySigkQAIkQAIpk0BocYL/YG7IF0C8/Jz8G9uIdR7/jNHrNq8glCEh3LB69WpNILTJh5rIeT6fALt35D5g9438gBEjRmg+BBQxriHJ0T4qilfkEVh57rnn1CuBEAiUNq7BtZ8pUya57777NGHQehZsG7zmzJlTd+HuskDHCJF8/fXXOjZ4EvCIJjwQ/gLPB/I1li5dqrkgVatW1cTGRYsWSZUqVfyre56jfyRf2jUI9d6h8ty4caNgXDAikKBq5eqrr1bPDpJNsbZ4esQtyPEAAwoJkAAJkEBkEogYQ8L96CeSK63EmRwGK+46tizQK8ISUFw9evTQkAVeIVBc+B4IeB+ggHv16iVIksRTHgsWLHC+VwGGRLdu3aRTp066e0Z7JEFiDHiqAAo9V65caky89NJLeg2uexgsdevWVUPEK8ETXgsYLHiqA3kNUMT4cYsN6+B7HvDEBcIT6PPJJ5/09JLA8IGBAg8JDJmiRYvq+BBOyHH+G0PRp/993PdG/zAkateuLV9++aWEeu9QeSJnBeElzBseG+RuYEx4hbcCSaIIvYChvQYmeNIEPxQSIAESIIHIJBBj3Mo+uJcvpfyXf2sDu17s7JGXYBUrvBFwr1ul62aBHTpyIdx5DO7r/sfoBwoyGFO4+PG0BQyRUMQmjYZaP5Q+veqAA7wobjYJ3TsxPDFv8PRiE2wNvMbKMhIgARIggcggEBGGRGSg4ChIgARIgARIgAQSSyC+Tz2xrVmfBEiABEiABEggqgnQkIjq5efkSYAESIAESCB5BGhIJI8fW5MACZAACZBAVBOgIRHVy8/JkwAJkAAJkEDyCNCQSB4/tiYBEiABEiCBqCZAQyKql5+TJwESIAESIIHkEaAhkTx+bE0CJEACJEACUU2AhkRULz8nTwIkQAIkQALJI0BDInn82JoESIAESIAEopoADYmoXn5OngRIgARIgASSR4CGRPL4sTUJkAAJkAAJRDUBGhJRvfycPAmQAAmQAAkkjwANieTxY2sSIAESIAESiGoCNCSievk5eRIgARIgARJIHgEaEsnjx9YkQAIkQAIkENUEaEhE9fJz8iRAAiRAAiSQPAJpktc8PK137twZno7YCwmQAAmQAAlEGYFChQpd0hnHHD161JclS5ZLOgjenARIgARIgARIIGUSYGgjZa4bR00CJEACJEACEUGAhkRELAMHQQIkQAIkQAIpkwANiZS5bhw1CZAACZAACUQEARoSEbEMHAQJkAAJkAAJpEwCNCRS5rpx1CRAAiRAAiQQEQRoSETEMnAQJEACJEACJJAyCdCQSJnrxlGTAAmQAAmQQEQQoCEREcvAQZAACZAACZBAyiRAQyJlrhtHTQIkQAIkQAIRQYCGREQsAwdBAiRAAiRAAimTAA2JlLluHDUJkAAJkAAJRAQBGhIRsQwcBAmQAAmQAAmkTAI0JFLmunHUJEACJEACJBARBGhIRMQycBAkQAIkQAIkkDIJ0JBImevGUZMACZAACZBARBCgIRERy8BBkAAJkAAJkEDKJJAmUocd+//tnQe4XEX5/yeV0FEIiQKShBCIEHqT3kLJ36CAAgpEpPP4o4ORKoReDCVUIQKCQBBCNSjSq0iRhCaBICX0JgEhIWX/5zNhDnOHmd2z9y43Z3O/7/Pcu2fPmfLOZ9o7Zc/MnGlm/WeS6fzyf0yXyW8YU6mYWb16mVlrrmW69lq8rGpLLxEQAREQARHoUARKaUhUvphmZt3xd1O58gpT+dd4YyZNsoaEWWopU9l6iJn14x+ZTptuYjp1n6dDZZYSKwIiIAIiIAJlI1DKpY3K3feYLscfb7qPvcl0ffFFY2bNsoZE59deM91GX2rMMceYGZmhwayFL1988YUJ/6ZPn26d/OlPfzKvvPKK77zwdSWbDXHhxjzNmDHDPndxxdxw7x//+If58MMPU4+b8j5pvueeewwMpk2bZkaOHPm1az9hvhv//tx4fcUVV5jJkyfXnbSXX37ZXH311XX7q9dD2fLixayu//nPf7bJ+OCDD8yjjz6aJ+nvf/+7OfbYY83f/vY3e5/nbRXie+mll9oajPUf6tuQQAsEEuZhvW3MZ599ZussbVxKaPv853z3xbV7bWlj/fBqXd9///3mgQceqOWsqZ777WhTKf6lsqUzJGa8866ZedPNpvNTT5msR5qt5tixxvCHZPd4xmwFSx++HHnkkebwww83hx56qP3j+qijjrJO/v3vf5spU6b4zgtf07AT5m9+8xtz2GGHmfPOO6+FQXD22WfbeIcPH24OPPBAc9lll1nDIozgzjvvNK+++mp4u+Z3KjFhllE++eQT27jziWH3n//8J7P7ZrW49vX23fj32+P6rbfesrrWG1dr/T3//PPm008/rTc689///rdhHVwY+W233Wbef/99e3tO5kWoF98xsl3HjtF/1113WWeff/65ueWWW8zPf/5z84Mf/MBgVLRmUBDm4xNPPGH+9a9/xVSp+56vb92e2+AhzMN62xiMAupsSmh7aEedm3fffde2hW+++ab18vrrrxvaPaQtbawNIPEvzDfifPvttxOu58xtv161RgO/HW2N/zntp3SGROfH/mm63D7uKyMCQpttNvvP0cKYyJY82D/hy5lnnmnOOeccs9Zaa5n111/fXp9++um+E9vBYcWHMnXqVOMs6/AZ3+eZZx5ruR+TzYYsuOCChnCx5p1sv/329vmIESPM008/bSZMmOAe5Z9HH320WXXVVfPvXNAQxPShYNEhI+j25JNP2mv3jwr+8ccftxgp+M983fz7hOsL4YT3/Oe1rr/97W+bU0891XzrW9+q5fRrz9HRpdF/WCsvnFvS7yTmh7T5xuM777xjnn32WefFfsLfd+M/5BmGQMwf7uBGHKHgh/udO7e9ev3vf/8Lg7dhp/IsVZ5cIP/85z+j+Q2/WF6k0ujC45O0+uWNjj/GBTfoFwr3fP88X3311Q0DA4R8huXyyy9vFlpoIUM94rkvjrm7R/xh/QjzcaeddjI//elPnRf7mdKRhylGPPP15TszdLWMSNim2pyUX/IoViaIEwnbGDikykrq/uyQZv/v1KmTWWKJJfIBEMYC4j4ZGC2VLTn7kiqDsTrq/IX57+7zGeabexaWO3c/Vp7cM/+TOF055ZNyGwptc0w33PrtdqxeVUuv33YRZ6wdJX9idTLUsQzfS7dHonPW2JvM4qwlXdk3wSbMOoQp+Msvv9w2Zttuu63ZeOONbUb94Q9/MM8995y9v/nmm5uhQ4cmQ1144YXNsGHD7EwHI86wQcPI6N69u21IwkCOO+44s91225mVVlrJcN23b18zfvz4FvrQgGCkuKWUXXfd1Vx55ZU2KGY70Ll37952CpjGlYbokEMOMUsvvbS59tpr7WiWGRQK+iqrrGL22GMP65dp4jFjxtgGGaPot7/9rXktWyq66KKL7HN0ZuThGwT33Xefeeyxx+wsDHodccQRZt999zUrrLCCuemmm2yDBkdGJL/73e/C5Fb9fu655xpGNVT6X/ziF2a11VYrlBfwYqTKqJ2Kesopp9jZmjD/GEGNGjXK9OjRw+YFnQZLDVRMOO69997W2GMquEuXLmaBBRaw6Zt33nktRxoJ4lpyySVtI+r7o2ElbBoD7sMYJjA666yz7Igfxn5D42AUYTpw4EAb1gknnGAYAfbs2dPmwXzzzWdH7LE8S5UnFy+fMP/oo48MM2jf/e53zf77728fU/4py+i8zz77mGWWWcbyjaXRD4/yRniwprytvfbaNj8xeueff35zwAEH2LJKQ0zcjCzh9cMf/tBsueWWNqh7773X3HjjjaZbt26ma9euhvqFwJ5ZCAz3k046yd4j337961+b0aNHmx//+Me2Hr3xxhvm/PPPt2UBRwcddJDhHkskfv2gY2dWz89HDH7yHmMipSP36Zy///3v2wGCz8gq9eU/X1+XJsoS6WEmkw7ZCfXu4osvtuWD+uvaIsK44YYbbOeGsUCdZAZ0scUWs2WSZTJG4vih8yatoVAOXBvD7E6srJBfMIMF9aOW9O/fPzckKCfUVerbpptual7JZo769euXB1FPG0t6x40bZ8sMxoJfzl2Ak7J2Psw3npE22p2wnbv77rvNzTffbPOVNpEy7hv0Lj+XW245mwbyf4cddsjbs4022sj85Cc/seFecMEFtizRRg0aNMjsueeeVi3y7oUXXrDhrrPOOrYd8+sV7WisTyG9ftt12mmn5eUCvVw7Stvv9wH0N7TlZZaupVOOCsdfZiHmEoyi7X2e+25yx+kLRjPMWtB53H777bZTpmGnsSbjKJQ0Guutt561EFMh0ShQSKmQzpBgSvHxxx+3a+J0xmuuuebXvFMgnXBNRQ71cZY+o3w6JhpXGiI6FWZbEBpKGljiuf76681f//pX2wEQJmnhGYWRRoUwaJSuuuoq27Avu+yytkGnAtHIUEgxbAhnbLZ85AwP4qFD4z6NMA0Ijf0zzzxjO02+b7XVVjhrlQwePNisvPLK5uGHH7YdPI1TkbwgjXD/5S9/aRs0Gq5Y/j344IN2ZgoDgvXrRRdd1LIgjzC8ENLDTBIN9oknnmiNpg033DDvDOFII86arO+PRpiGiAaIGQ4MFMoPa8R0HCynwRxjLZQiTBkdYYT86le/sh0++Ui5gFcqz1LlyY+fjp2OiXAxYmm8EBpJDAgaP+oGhgRpiaXRD48433vvPbt3gc7xwgsvtJ0Yxi/GCssGW2+9tfnjH/9oyyoNJR0hZXvAgAGGjpaOkw6ROOkA6KAQwnajRXhiMLryT3l0guG2WTZjSTyUA/KLsh2rH+S1n49PZUukuEVSOvbKfilGx02+UTd8Rk4HPn19WXrZfffdbX6xjOQbEbhl9EmnRB5QfugoGSAQBvUVTosvvri5PBv0YKz93//9n31GuimndIzHZ3vIqC8s9fhCGAifqbJC+aX+YcxNnDjRGsV+GOE1hgJGHcK+EpZ5yUPyh7r4ox/9KPdSTxuLjpQH6iOGrSvntAVOKBexfCNPwnYOw54lBuqdr8e6667rgrOf+KXM77XXXrbe/uUvf7GzX+QVZQxDjLJJ+4YBST2hDaZ8cZ82kPqOUUmctMN+vUq1SaTXb7taKOV9ifUB3uNSXnYum1Yzl1zCzMgKTwvJCn1W8lvcmpVZ5PwctB6h06cSYmEzokWoyNxjhM1GLjqXIhvkMAJcI0Q4dMbbbLONrVSMlDFUaklMH3Sj4FKg0SM2YvjOd76TTdq8bhsaptT8jWc0eMyK0HFS0KmoFExG0RgRCP4ZHdJZ0ZBgLNAhEKYvNGaMLBkVUHmoWHxipDCbwFRzawU9kTXWWMMaVKyPF80LKq5rbFJ+eP7II49YA8rveHx9GdXRsbDnhfS7vQO4YaRBpxQTmLEcAjc6PgxQWNLIbrHFFrY8uZmp0H9RpuQfxirl8Xvf+541HmvlWaw8hfHHvmP00tlRPjBSkVQaQ//kI7M5lFuE/KQ+EZarR4TF6JU4KHt0oJRJ7vOdzgJhpq0eYRQLd5gjsCXuavUjFX5KR+c+xsg9Cz9ZWsW4pFNjFikUeMGC8sMsIWlwBsAiiyxiMF54TpwYaE7gRHuA4csIldmAlKTKCp0h8WF8ITCrJeQX9YMwSQ98aRfIX8LjuZNYGUzVUfzEyrkLq9pnrJ1jcAMbZiVoz6n3YZvmwnTlFKYYtRgepIN23W2IpzzecccddvYGf7QP1GtmKTFsMbrdDJoLl89q6fXbLt+Pf12kD/Ddl+G6dDMSs/r1NZVVVzaZ6Zbvk5h57ewd7F1W/nJ/QdeuZmb2M9BO2TslWmMJMcp3gjFAYXadLJ99+vRxj6OfzrL0RwNUSAoAf1R2RldM4RYRXx8aEqZyH3roIfP73//ejrQYifrC6IlCjaVOZ85sSExoVBk1UDlomHxxcVKRXMOPtR0KU/ZUUKbyfvazn9mKxUiTxg73blQb+iv6HaMEwegpmhdOd/yl/NAwMMKBDaM4RlG+0MicfPLJdnaFqW1mdeDkxI/D3XOfxEljQoOK0BDR4YfGJc9C7tyrxRQ3vjhd3GetPHPu/DCKXOPPzQKk0pgKJ4zTDws/PgeuCZ96xGdrxc8vP4yi9cP3w3VMx9BNmK7wOd8ZoVNnMST4pQn1mfLthA6Ijo7No8yAMdsYEzp835/vhmexQYZz4/IjLCvOYKHOFxU6S/RgZo5ZKoRPDHXaADrXUFz83CePY22s21jr/Pp+3L0in66dwz+GhN+Ws1xSTfzy5/KfOsAAjFkH8pJl0DPOOCOvGyyv0QYyS8NAhJk+X6qlt0gaY30AM0hlluKlqZ1S0bnvMqbTrr8ws1gTygoGMuOoI+2f/ZLd41mX7F0SjXgxFVNXWP10BlR+jAg6oZRggV966aW2ErtRte8Wa5bpemYAWiOMCOmcGcFtsskmdi3QNRhuk5WbHUBXf8SSio+0MXpgWg1hgxSGD50fcZFuOreYzsy0sE+CURR6kGYaSNynxHVGPPevffdwRJgGpOIwwqk3L/Cf8oPhQ5gYCXT6r2SjNxo9NxPFJ3+sTxO/24VOmKH4/njmRtuwcWWGxgx+GIAI6WOmIpb+1jAlTIy3InmG25TQ0LKeW0tSaazlL/acsMhnWDCLwB4eDGDKL+WSezwLO5ZYWP49RozwYASKYFyzNJCqH2E++mGldPTdFL0mftK233772dF/yJu9GYzcKQd0WL5QH/nDSIKZP+tHmeI+s2HsQ/GfheUsVVa4T1llJhPxmXPt9mP5OnFNemjXXJvHJ2WdWbNakqqjtfy559XyzbnhE+OGpQZmEqmXLMnUO8vlwoMF7QJ7Jhh0UJcR8oZ2lBnPnXfe2bYr3PfrVVvTG+sDiKPM8tXQvCRaYs113mKwqWQGw/Sbsk0z2S845vnLXxkumBlZgzQrm63A0Oi66SZVNXbWZVVH2UNGBHTGrIHRWRI/a2y+pUoYjADYuEPnxKwDa2L+aIHNXaz34o9RAIWsNUKHRzhUHgovjRGGDZ0ha4I0QOzhuOSSS2z8THtXEzjQwbHux7o1DS96Y1WzNs2GoltvvdUuV7DJKFxPpLGi4WIqEFlxxRUNa8t8hoLOhM+aIx20uyZuX2jIWGumI8dCZxMdUjQv/LBSfmgo2RRFBUcPtxRyzTXX2LSjE+uybCDFDevWKaGB8v2xOZTNg8xyoD9GFffYG8CeF9JDWaKsxKQepr5/8rJInvl+wmuWbFiTJ4/CWRrcunqTSmMYXrXvLiz24bBUR3yMiBnluXK7wQYb2Bkj8ihmyNYKn/0DlGGWJelkGT2m6keYj37YKR3pOEJx6Qrv8x1jH7bMiqAPeU3n7QszmZRNfn5KvfaFOn9cNpNGe8OMF3XSCQMA2h0YsnxCW4ABEatn1cqK28B93XXXtWBOJ8xSAGGGaaRNwzhnUIKQLtLnb7R0eoafqToaukt9r5Zvzg/6wouBAxu/aYtgePDBB7dIo3PvPsN0cp971GlmjWgnqcuEh7iBJG4wWt2ss1+v2GcX61NsAAX+xfqAAt7mqJNO2U9MKoAqo/BOCX4Oan/JkWUc+ydY+mDWIuzo26o/G3DY2xCbpmtr2PX6pyJTqZlS9As6HS95RedFIWaGoMhUmYufio+/cMYFQ4FOrxFMqbxY8ITnXzsd/E/iDXXheWvyIuaHBpeG3Y8DBrBltAFbrnnuc/Z1dNehP+7TycDMNyi5n0oXzxolbckzygDlxs10VdMplcZqflLPyAsaZAxJXygnSMjRd1PrGh7UDRd2qn7E8tEPO6Wj76bINW0J9dh1QKEflvSoJ/4eCmYZmO2jI0IPvy1i8ysGL/uwEJ9VkXoW1m84kLft2fbH6mjIJfW9Vr75/lLtp++myDVxxtpL/PLTTPLWb3/DetWW9DYqDUXS2Qg3pTYkGpFAhSECIiACzUDAGRLsqwjFGRKMuCUiUDYCpVvaKBsg6SMCIiAC7UGApR3eYxMTXmTXiBnDWNi6JwJtJaAZibYSlH8REAEREAER6MAEWi5WdmAQSroIiIAIiIAIiED9BGRI1M9MPkRABERABERABL4kIENCRUEEREAEREAERKDVBGRItBqdPIqACIiACIiACMiQUBkQAREQAREQARFoNQEZEnWi4zAedxhRnV6/ceccGuW/8rY1ETYijNbE2xY/zahzW9LbWr+8gGjkyJH2RUl+GBz6xjHzbRHOYXjggQfaEsQc9cvha5x5wQmmvqTSxcuGeIU1L5WqJrz/gTcVtodwhoc7cKpIvCk3ftp42RVlhnT69xuRHk5J5Z0ZvJU0Jn58vh4xt81yL8W8WfRP6dn0hgQn0qUKYirR3OfNYbwquF7hACveYFZG4ZW7HCbTFikaBm/g80/LbEuc9frlxT0TJkzIvRXVOffQQS94m6I7b8VHQEd31113+bdqXof1jlcrh+dG1AykRA44rpt3Ney4444ttEqlizcb0u7wWU045ZS3braHcEAdr9FGisSbcuOnjbfDUmZ4y6N/nzja0gbwKnAOveLgMv/wQ8J14sfn6+GeN+NninkzpsXXuXSGBK8sdsJrZrFKfcEA8CsmB/5wbKsvFDrfTfgMQ4Cw6ZBCofASRyj44b57BW/4PPxeTQfnlsrkXg/s7hEHOsQEnUP3vruddtrJvmvev+f09u+l0oibWBjoxGjWF86yCPUkzaE75we3NEZOaqXFueOTMH2/vPPfHXfN85jO+EGfmBC3H17MTcp/Kn9inGPhunt++hnt4b+IED91hM9QYvnk3IR55e7zyZkNRx55pH/LXqfykoexesf9lA7Vygb+EPyGenIvlt4UM/zjp5rE8hb+gwYNSp65EqaLs1lOPfVUw7HQTqibvNo6JqS/Wt3FD7qH7V0sLO4RXtjG8WptjKGYxNw7dxiYvm6xtOE2vB9rA1yYtT7JU9pSzuxwr7BHB7/MhfGFYcbKS+jG/16tDMI+1SaEdTtVJl1cfhrcvfAzZO6eV9PRuSnjZynebDl+/Hg7IuIsCRpYznpntoDpRsDytrehQ4day3jUqFH2jAAaEjoQlhooAByUxIE9jFSZ4uMtcLxHnkOZeCc6Iw4KKnFx0h/T4Qj+Nt54Y3vSJmFTwAlvjz32sAe3UIjOOussO/rm/fZ+hUtlKAc8xXTw3XNoDx0ilYkDXzich2WJiy66yDrjvfqHH364bag4xIcKx7G9Q4YMyY8n5ohc+BxyyCE2nffee69NN6/RpaM9//zzLU8C5LAnKmwsjb5ecIIdYXBNnnBaI0bPKtmpq3DhwCpONOQQMA6+Gj58uD2BkaPT8cuJgBxwRl7SuHEADvnCgUOjR4/O08K5Abfffrt1ix/iIf0c30tlJO843Im0kE4OknrvvffsKYTozNHfuL3xxhtznfGHfoyYyUcO1dlyyy1teOjCyXycvkhe7rPPPvaANT/9Kf+4Yfp/zJgxNs/wz+Fu6BNyZgTHzBDMEQ4RYtTFgWh+XpJ+eKE/ZZSzVTg8LnXuB/nP4XCUGToc8h1uqXwibnRBP1ikztagTjA65FA4rseNG2d5YyxQxsg3/0yISZMm2frp1zviovxSFvyywn1O5wzLRmiQx9gy0xRLL+U8ZEa9rVW2U3nLAXjw5MC17bff3rYH6O0kli7CIq3kLXWVdojZStol2gi4uVddswRy+eWXW6YcZrdx1t74wgFPtAf4Qw/cUF7gThhhPSe8WPtC2eIwOk4V9aVae8QBY+hGvJx0STvkp80Px79PPfXbADpXdCYMhEPaOIEzTKsLj6PVEdpfjuHmgCxXzzHo9txzz6Qe+HvwwQfN2LFjLVOMOcJgRoy0nHbaabYOubLPEeAwC8tgrH1aaqmlCN5KrA3lXqxMFqk3LtwYc54VqScujNJ9ZpZYVgbmrGQNRiU7xa/CJ5IBrWQFrZIV7kpmdVeyQuXLNkUAACHnSURBVFLJ1nEr2Yl6laxSWDfZtLr9vO+++ypZZbbX/Ms650pWIe33bM2zwnPkqquusuFkDb/9njWSNk77Jft33nnnVbJOwn7NjgGuZJ24vc4qTCWrFJWsI7O6ZKfJVbIGw3mLfqZ0cI5JE+nNKqYNN1vXrGQNUCU7HbGSFUjrLCusley4cnuddYCVESNG5OnKGsxK1tjbZ7jPOgB7TRqzE/3sNWE5N6QV/VNptB6+/OeHwfXxxx9v0w1vdHblhfCzjt/6yvaMVOBCHpFnmSFYyY4YrmSjM+uHPMs6Hes2TAv+sgpvn2XGXc7d+c1OGrXPCI9ygJAnLm1893XO1rjtc+LLjga3ftDThZc1QFYX2OIvlJT/rJGyaZk4caL1QthIjHPW0bUok1nDViFeJEx/NhNQcWl0ZdM6jPyDM2UFoXzAAamVT5nBZd1RLslDlxf2ZvaPekc+I1zDOVvuqGSjpgr6uXppHXz5L6x3KR1SZcMPK8U2ld4YsyJlO5W36EI5zJYFfLXsdSpdrjzR1rg0cs19+Ll6Qn5nJ93a+kcZ5nsouHV1ibaHMoWk6nmqfSFs137419Xc0+ZRHlwekBY/balr9PPbANJGe4tkHbQtZ7RzKckM/bw+44Z0o0c2cLN+abNScVP3KMeZAWb9wJc+gDaOfHQsSRttj8ufIu2Tr2+sbqfKZNF6Q77EmKd09PUp83VpljawKt1RzyxVMGLBSmUdkmNyM9D2OaOyrHInNzlhUT7++OMma1jsaNFfx2fkz1n1Mck6CDtVeP3119uZELfswMzFFltsYfXhND5GH7Wkmg74JRyOD2bmhZEFI1FG0IxI0AMdGOmyPuuEGRkXNyNbtzmO6UWOTfaFkSRhoTey+OKLW/1TafT9htcDBw60+i666KJ2FI/VHwojMXTDoibPGJX5unNstD/K9tMShhV+J36EY8yzhibfTBa6c99J46abbmrj41jhvn372vVi93zNNde0z5iVYnQRSso/a5uchYA/hLBTnMMww+9++jkOmtEs683+qD/0w3fihCujLvKdTZJOYvnEkceUg80228w6oxwUEfKamQ7qnZsRKuIvpkOtskG4MbbcT6U3xqxI2U7lLXFVk1i6fPeUS4Q2ixkmxC/vLB3xrH///naGzzrw/jFzinvqfdbJ2DxjBi5Vz2u1L17Q9rKae2Y6iZujzpn5cHsswjBqfad+0mbxx+ic8uOfXlrLf+/evc0dd9xhZ89w67fboV/ykfaTdKE75TsbjNhrWFM3EPoBZklqlcGwfcJvqm6nyiR+itabGPNaOhJ+maUUSxsA8o9jpTKSKa7R5rNPnz52ap7pOzYVnXjiiSazGFuwpQM7+eST7VQ6U/NMfbtKHsbRwmP2hTgpnBQUZMCAAbYhxb9rHOyD7J/fSLh77rOWDs4d59wz/c2UMgV+hx12sI+WWWYZ2+iQZv8IYn8qmClDOh8KO9P0TMf64qfZv59Ko++m2jU6ZFbx15yQdxgSfn7RKDkJ+flpwQ2NZi1hTRHxj09O+fHzh+swfvyhcywtPIv5h6l/H3cpzrWe+emnESM/MSSYxmbKN5XGbEbONrDkN40R9SAmLp8cVz++mPtq9/x6Wc1d+MzpUKts4C/Glvup9MaYFS3bfh6mygZxp8Sly39Oh8ax9Cx1IUzvc2x3KCmWDCYwwNl4uOGGG9pfj+A3Vs+Lti8u7nrcY3Smlr9ceKlP6j8G3sMPP2yyGQPbgafchvcZnLBESb6yPM1SRKpu4pdnYT66Ms6g6oILLrC6wBuDBiOjnvaJOFJ1O1Um8eNLKq99N1w75rRv1XQM/ZXte2lmJHwwrGOzbkhnTmVyRkQ2RWcrKEYCnX42/Wo7W9bxET75Y42Rik2BTomrMNn0mXVCJ8isB+uLLk4KJ6PQbNrOumGEx0yFK+Ssa2ZTci2iKKIDa40UbmZgdt55Z5sORgSMAHlG/OwrIO6Y0Gjil58SYfj4G75wj3VPWMwQIFj37PVIpdE6qvMfhZ41UmS55Zaze0uY7UH3fv36WR2KBEm6WYOGKQ1qKDBHWOMkT2mgyTv3M7fQPWnELeFhaGXTnLbTDd2lvqf8UxYpH+QbwsjN5VnImX0jlD0aCT5jszgufsoP5Xu//faz7mGK/uwBCAW3W221lXVP/agl6EcZdiM0ODdKMHJdvasWZpGyEWNL/qXSG2NWpGyn8raa/kWewYGNj+xvwRhkn0I9wmCAkTRtj19WYvW8SPvix13LPXUEoW0lDQxkYuLaPP+Z3wZwf5NNNrH7uJjFdbPLXLs9Or5f/5pySd3GAMPwoY1NCXpQppiZY0aR79Q/2hyMiz5ZXaITp/6svfbaNpgiZTCML9WGpspk6L/a9xjz1uhYLY72flaaGQk/4VjlNJRUTKb9qFBY+zSIdN4UYDpKV1jZTMQInwpMI84mPdyw6zclbDzEGGGDGZWYjXxs0mOWg4JIR869XXfd1W7CYlMQuvgjDToTCvOKK66YR8NMSi0d6ByzNXpb8Ong2RBIJWBzHtb0rbfearBQ2fjE9GZMsLzZ0IRRFQphZWuINiyWhrCusfRTaQz9V/vuRgIsE7Ehlo1DMEQPNp7RwdCBZmuVXzNwYuFunG08u/rqq+0SFvkQCvmNsUeekAcIDQSNE1Oo5Lsvw4YNs1zIR0bkjHKYnsdAC8Wlxb+f8o8byhcbTCl7zBoQd4wzHRYzMmyWw8ijPMSEdMGPUQ55xCwDnT8dC40jBrEv5DkbA4mbNFUT0oYRQfm98sorTbZ3JmmYVgsn9YyGz693MXfogKEbKxu+kcx1jG0svSlmRcp2tbyN6Z+6F5Yb2gXyjzYKI5c/Nvi6jiwVjrvP9DvlPFtnt22Su89nWM+LtC/4o8wx23nUUUdVbY+IkzaCzZYMalhm9esK9ZnyTjnFiPUlbAOIExYYBW42FS4sXTGYSS2t0dYyI0N9wr/z68fl60FZoUwxi0HfQB1zG5vxA0+WSXbZZRcbRKoMhgMwPz7yOFa3Y2XS91fkOsYc7rXqSZGw55gbtykos+xKJ2z2CjfsZBZrJduh3ULXrMOwm9CyQmvvZ1b41zaUtfDgfclGgHaDoLuVNVR2s5D77j7DOLmfzQhU7s021sWkiA6kjc2JoRAX6WyEEBZ8fEml0XdT5Jqyk40ecqfwh6fLh/xBjYvM8Mg3kjqn6MiGKjZuhWUAN9yP5Ynzz6atMN3uWZHPlH/CjMUb41y0bsEwa7xztdi4xcbAmBBmrMzE3Lp76FxUF+enyCfhsvmzSH4XKRsxtqn0hsycvkXKdipvXRj1fmZLk5XMwLSbAykHbERl0189Qh1A96JSq32BJXXRSTX38KjW3lDXcBMT8se1AeQxG78pv06yQZPdYFqrjMTy3oXhPkM98FNPuS5SBl1c/mdYt1Nl0vdT6zrFvLU61orvm35eyhkJZ1VhCfPnCxao+92xu8/Iy7cuse6KCtazL6kNb2GcTK0z8thggw187/l1ER1Sm5HCuPJAW3ERCyuVxnqDZ/TgC1Z8yNN/nrpm9iglhBnjxKg8tZeAsPyZo1TY1e6n/FPWYkxj90I+qfgoR76w8YqZhJgUDdP3i86t8eeHEbsO613MjbtXpGzE2Kb0Dpm5eIqU7VTeujDq/cw6OLuMxnQ7I2fyjxmbeoQ6UK0ehGHVal9g6dfFau5r8ahW11z+sDTCnh3i9d9lwf6vfffdt8WehjAtfI/lfegu1AM/Lv7Qbex7kTIY8xfW7XrijIXHvRTz1uqYiqe97nfCumoEmPZSWPF0DAKslTI9yRQxxqNEBMpKIBvt2deD05myBMc+g/XXX992jmXVudF6ZT9htr8iYrkj1Uk2Ok6FVx4CMiTKkxfSRAREQAREQASajkApf7XRdBSlsAiIgAiIgAh0UAIyJDpoxivZIiACIiACItAIAjIkGkFRYYiACIiACIhAByUgQ6KDZrySLQIiIAIiIAKNICBDohEUFYYIiIAIiIAIdFACc60hwdvZRo4caV+h2p55yytha72KmLfI3ZO9BpmfOBaV1vipFTZvoIRRPXr4YRZJq+++DNffpM7fZNhlYCcdREAERCBGYK41JHjFtDsXIUw4ByRVO10udF/Pd15/ymFc1SR7d4d9LS2fRaU1fmJh+2nP3gxnGWVvU4s5rXmvSFoJxI+zZqANdvDkk0+aCRMm5KEW1Tn3UOWCE1t5vbCTRobtwtSnCIiACJSdQFMYEtkrWO35DSFMOldeBhNKrQ6aMztCN4QT3gvD5Tvu/HfRo5uvw0477WTfme77Df1wBsipp57a4m2cuCdcFxafhO0k5cc9d58YB75+7r77jKWdZ7ydL2ZQpBjjp0hacReLs5qexOnrgm7MnhQR0u775SVB/nHhMZ3xgz4xSXHBLYfvcOS9k1jYYd6H5cX5rcbZudGnCIiACJSRQCleSJW9m96O4t3BKxz+xMErHFjFYTZ0BrwOlbemcZBV9t54M2rUKHviJJ3GHnvsYQ/ZYgbCnTTHK3RpnDmIi9eOOuE7U9CExyEzw4cPNw8++KAZO3as7Ux41fYBBxzwtQO/rr32WnvaJXHQGXAgD50PI17e5IYfTozDHW9i5AAWrtGVEyjxs8oqq1hd6biIl3SyrHD00UfbV+o+99xz1i9HinOITfbufXsiHmn2/dB5XX755TZJpJ+jcjkgioOebr75ZhsG9/bff/8Wb9cL085z9ODQHF7ryyto99lnH/tmvhRjx5HPImkN4yS+mJ502HBAF2YQSM/o0aPtQVaPPPKI2Wabbcztt99u00TaYHrRRRfZg3tgw0FtHGSF0UC+cIjTe++9Z2dD0JX85pAfTgV0+YM/9GNmAY4cnsabNLmPLpxCywFaPhfCQiZNmmT94o+wORQNty7souWlCOfZMeq/CIiACJSTQGlmJGiQndARMJLDEODY1pNOOsl2Aptttpl1wvHZvMv+zDPPtB3zFVdcYe9jRAwePNiu+++2224uuBafdPh0DBgtdGp0ImPGjLGnVXKyI52U66R9j+hEx8QxwRz5/Oijj9qO66yzzjIcn+2WM3DnhGtO+uR0zOOOO87wGtnssBb3OP9k/8OgQYMMYXFCHiftHXnkkVanBx54oMUIG0+8y56TPzltkE6M0/DoQFlC4B4dJoZLeCx3mHanAHGTdpg6PynGzg+fRdIaxllNTzhglKHLUkstZcPH6DvjjDMMeU8ZcTM2fnlBF75vvvnmNu933HFHQ5nAKOBk1iFDhlhe5LuvM6duYjgSH7zHjRuXL4ehy8CBA7/GhbgQXoO8/fbbm759+9qwMYD8sLkuUl6KcJ4do/6LgAiIQDkJlMaQiOHhsCaO+j7llFNsB+cOnpk4caLJToQ0119/vWEUT6c5efJkO/3tjI3UkbVhPIRFHHRczFzgn1kH12H57ulYOJekf//+9vYaa6xhO3KOjSb+mOCHdHD8Lx3Z22+/HXNmXFh0UAMGDLAHQ9FJ0UFyQFgo6MeR0hwa1q9fPzujwKE/jPaZzWCmg0OEisiaa65p00463DJAjHGt5YUiaWXmo5qeHPvtzyANHTq08GFGxI/AMsXN50EaN910UxsfRw3DmyOPncS4uGdFPouUl9ZwLhK33IiACIhAexEozemf4QjTAeCMekb7t9xyi+EkOUa4TB/T+dP4I3S8rvNhhF6P0CE7v/jjulYYHMzjC99jhofvhmvCreWOtDlxesX8YDAwu7Htttta5+hAB40xgPDZs2dPe130n5+OGOPwJNZq4abSWktPP/2EH+aFP+pPxc9GWwTDrZY4xrjjOoyf+z4Xvtcr+PfFD6+tnP1wdS0CIiACc4JAfb3uN6QhexXefPNNO6PApxu1s1bN7MBqq61mdt55Z/PKK69YDdwMwEorrWRWXnll06dPH2tU0OmwsQ+p9hNMOtyPPvrIumM6n5E7I3E6bDpoRvh+B2MdlugfyyUYVuxncB0f6fj444/tMgtMSAN7NkLx0x4+87/HGIeduu++2rUfZ1E9Y+H16tXL5iv55JZgfHdwQfhpLUcos0zCXpnYjA7uSCNuCY+Nk+y7WH755XlUSDgymj0ObZEU53vvvdfq1paw5VcEREAE2oNAy6FSe8QYiYNOj9EzG+xYs8awQOgYLr30UtupM/pmMxzCRjo2yR166KF2tMj6NPd23XVXc+WVV5rrrrvOLLHEEtZt7B+bNi+77DK7F4H9C2yMZF8BnTLxu02fMb+pe0UNj1ruYs/De2wYZAaHvQMISz4jRoyw6WADJx0cyxAHH3zw1zj4aYdfKC6uFOPQfbXvLiw/Tsc71BPutWTjjTc2V199tf3J5eqrr/4152zMZYMqI/4DDzzQPmdTLHtnxo8fb5jd8mXYsGF2fwMcmOlgWYUNmxiwobi0+Pcxiq655hobLvtU6hEXXoozhk1sJqqeOORWBERABNqDQCl+teESirHAHoRQ2HRJ5xhOEdPg0/n7U9h0sNyPheOHS1yEx4gVKerPD6OM13Q+zExgXLjOKtQzTHv43P8eY+w/L3odxllEz1jYbtmCWQ4n6MjGWTbf8pw9Kb5gVPG30EIL+bfza4wPyldrZlwoN/BmBiTFO4+oykWjOFeJQo9EQARE4BshUIoZCZeyVOcfdgzO/Xzzzecu8086g1Q4uaPsInRT1J8fRhmv6czo1KpJmPZqbmOMq7lPPQvjLKJnLCzfgAifE2asrGBo+sZm6I8lkNYK5abIbEqt8BvFuVY8ei4CIiACjSZQij0SjU6UwutYBDAutt5663y/SMdKvVIrAiIgAnOWQKmWNuYsCsUuAiIgAiIgAiJQLwHNSNRLTO5FQAREQAREQARyAjIkchS6EAEREAEREAERqJeADIl6icm9CIiACIiACIhATkCGRI5CFyIgAiIgAiIgAvUSkCFRLzG5FwEREAEREAERyAnIkMhR6EIEREAEREAERKBeAjIk6iUm9yIgAiIgAiIgAjkBGRI5Cl2IgAiIgAiIgAjUS0CGRL3E5F4EREAEREAERCAnIEMiR6ELERABERABERCBegnIkKiXmNyLgAiIgAiIgAjkBGRI5Ch0IQIiIAIiIAIiUC8BGRL1EpN7ERABERABERCBnIAMiRyFLkRABERABERABOolIEOiXmJyLwIiIAIiIAIikBOQIZGj0IUIiIAIiIAIiEC9BGRI1EtM7kVABERABERABHICMiRyFLoQAREQAREQARGol4AMiXqJyb0IiIAIiIAIiEBOQIZEjkIXIiACIiACIiAC9RKQIVEvMbkXAREQAREQARHICciQyFHoQgREQAREQAREoF4CMiTqJSb3IiACIiACIiACOQEZEjkKXYiACIiACIiACNRLQIZEvcTkXgREQAREQAREICcgQyJHoQsREAEREAEREIF6CciQqJeY3IuACIiACIiACOQEZEjkKHQhAiIgAiIgAiJQLwEZEvUSk3sREAEREAEREIGcgAyJHIUuREAEREAEREAE6iUgQ6JeYnIvAiIgAiIgAiKQE5AhkaPQhQiIgAiIgAiIQL0EZEjUS0zuRUAEREAEREAEcgIyJHIUuhABERABERABEaiXgAyJeonJvQiIgAiIgAiIQE5AhkSOQhciIAIiIAIiIAL1EpAhUS8xuRcBERABERABEcgJyJDIUehCBERABERABESgXgIyJOolJvciIAIiIAIiIAI5ARkSOQpdiIAIiIAIiIAI1EtAhkS9xOReBERABERABEQgJ9A1v9KFCIhAhyBw5513mnHjxpnp06d3iPTOzYns1q2bGTJkiNl8882rJnPUzZ+Y08Z8bKZ+UanqTg/LT6BH905m+I4Lm/1/tGBplNWMRGmyQoqIQPsQkBHRPpzbIxaMQfKzlsiIqEWoeZ5jDJKfZRIZEmXKDekiAu1AQDMR7QC5HaMokp+aiWjHDGmHqMqWnzIk2iHTFYUIiIAIiIAIzK0EZEjMrTmrdImACIiACIhAOxCQIdEOkBWFCIiACIiACMytBGRIzK05q3SJgAiIgAiIQDsQkCHRDpAVhQiIgAiIgAjMrQRkSMytOat0iYAIiIAIiEA7EJAh0Q6QFYUIiIAIiIAIzK0EZEjMrTmrdImACIiACIhAOxCQIdEOkBWFCIiACIiACMytBGRIzK05q3SJgAiIgAiIQDsQkCHRDpAVhQiIQH0EOnfubAYMGGCWXHLJ+jx+Q65PPfVUs99++31DoSvY1hDYaKUe5jvf7hL12nORLmbeeTq1eLbgvJ3Nogupy2sBpUFfdPpng0AqGBEQgbYT6NSpkxk2bJhZffXVDdfIjBkzzBVXXGGeeuqptkfQyhC6d+9u5p133lb6lrdGErjh2J5mg0E9TOcv7YT//m+W2fecD8ydT07No3n+0u+aP9//mdnv3A/svRX7dDN3n9HbvPH+DLPqfm/l7nTRGAIyzxrDUaGIgAg0gMDee+9t1lhjDfPSSy+ZCy64wIwaNcp89NFHZvnll29A6Aqi2QlcdthihpmIvz3+ufl/R79rfjP6I9Ml68WuGt7TLLdkt2jyFpm/sxl3Ui8zLTs1c7NfvxN1o5ttI6AZibbxk28REIEGEejVq5dZccUVzeTJk825556bhzpixIj8ukuXLmaLLbYwgwYNMlw//fTT5rbbbrPP55tvPjubMWbMGLP55pub/v3721mMO+64w8ycOTMPY+WVVzbrrbeeWWSRRczEiRPN2LFjzaxZs+wMyHbbbWeNlvfff9/ceeedZtKkSbk/XcxZAksv3tUMXWde849/TzO7nva+VebR7PqhZ6eZ+3/X21x04LfNJoe3NBSYtbj7jF6mR/dOZvDwd8yHn8yas4mYS2OXITGXZqySJQLNRoDlDOSWW25Jqn7QQQeZpZde2rzzzjumW7duZssttzTzzDOPueGGGwyGxAorrGCOPfZYazh88cUXZsiQIaZPnz7mwgsvtGFuvfXW9t7UqVPNBx98YDbccEPz1ltvmYceesgcc8wxZrHFFrOGDPszCOv000+335MK6UG7EdhyjdlLSydf/XGLOJ9/bbp56c3ppm/vr89IjDm6p/leZoAceMGHZvzLX7Twpy+NIyBDonEsFZIIiEAbCLiNlS+++GIylKuuusp89tln5pNPPrFuTjrpJLPaaqtZQ8J5YkZj5MiRplKpmOOPP94aHjzD8MCweO+994yb5VhggQXMp59+ajbaaCPTs2dPM3r06Hwvxtlnn22GDh2aGyEufH3OGQLrrTCPjfixF75uEGBMLLtEN9O9WyfzxfSKdTd49R6GZQ1khWyPhOSbIyBD4ptjq5BFQATqIEDHj/CLjZQwE8GSxDbbbGNYolhwwQVbLFvgb8KECdaI4PrNN9+0Mwtcr7TSSnzkSyFcY0QgLJUQP7MQ/CFs8uzdu7e91r85T+CLGbPLR9es15r+1UqVVax719k7L2fOnO2GmxgRzEIs0KOz2XPrBc3vrp9iPpiipY1vIifTNfabiE1hioAIiECCwBtvvGGfLLvssgkXxhoQJ5xwgt2QycwFGzGryfTp0/PH7MFAmJEIpUePHvYWyyDuj7BfeeWV0Km+zyEC9z89+1cZPxg4e2bCV2O5pbqZj7Nfb8z07IT3P55ptjriXbPbme/bX3hccfhivhddN5CAZiQaCFNBiYAItJ7AE088YdjDsO2225pnn302D4ifgTLzwHIGmygxINxmzAMPPNAstNBCudtqF4RJ+MxkvP766y2cvvzyy3YJ5JxzzslnKVo40Jc5TuCOJ2YbEscPW8Tc/dTbuT7rLD+P6dOrq3ls4rT8Hhf3jJ+WzVxUDMsedzzxudli9XnNOpkR8o/nW7pr4UlfWkVAMxKtwiZPIiACjSbAssUzzzxjmDk47LDD7Lsk1lprLbuf4aijjsqjw6hgeWPw4MGmX79++f1aF6+++qqZNm2a/dXH+uuvb5ct9tprL7Pqqquahx9+2C5tHHHEEaZv375m/vnntwYNmy8Rlj3Y1OnebVErLj1vPIF3PpppLr39UzPwe93MX05c3Pxw7XnNkT9b2Nzw255merbs8cszZ78zIhbzvud8aI2K0YcsGnuse20koBmJNgKUdxEQgcYRuPjii80uu+xiMCB22203GzCd/yWXXGI7c2YteM8EyxvsYeAXF27Jwu2x8LUJ75188snm8MMPNzvuuKN1xs9CMV7efvttQ9y77767OeSQQ/Jnr732muGnoO+++659y+a6665rf+Hhx6Hr9iPAeyO+tUBn+zPQy79cqnjrw5lmz5EfGAwNX2bO+mq/xJTPZplzb/zEHPqThcy+P1zQXHTb7M26vntdt55Ap2y6sMLOZYkIiEDHILD//vs3RUL5FceUKVPsn68wMxK0WRgRrRX8M6vBLzxCWXTRRe0vPDAunDATwUwFcX7++efudmk+eXFXNVnsJy2Xcqq5bZZnvIBqcvamyv9N/cpgaBbdG6Hn+9cv1YhgGhKGZiQaglGBiIAINJpArJMnDvZKuJ9/tjZOfq3hfrERhsH7JUJhZoN9FJLyEHhh8lcbacujVcfURHskOma+K9UiIAIiIAIi0BACMiQaglGBiIAIiIAIiEDHJCBDomPmu1ItAiIgAiIgAg0hIEOiIRgViAiIgAiIgAh0TAIyJDpmvivVIiACIiACItAQAjIkGoJRgYiACIiACIhAxyQgQ6Jj5rtSLQIiIAIiIAINISBDoiEYFYgIiIAIiIAIdEwCMiQ6Zr4r1R2YQLdu3Tpw6ue+pBfJzx7dZx+zPfelvmOmqGz5KUOiY5ZDpboDExgyZIh9BXQHRjDXJB0jgvysJcN3XNiUrfOppbOexwmQj+RnmURnbZQpN6SLCIiACIiACDQZAc1INFmGSV0REAEREAERKBMBGRJlyg3pIgIiIAIiIAJNRkCGRJNlmNQVAREQAREQgTIRkCFRptyQLiIgAiIgAiLQZARkSDRZhkldERABERABESgTARkSZcoN6SICIiACIiACTUZAhkSTZZjUFQEREAEREIEyEZAhUabckC4iIAIiIAIi0GQEZEg0WYZJXREQAREQAREoEwEZEmXKDekiAiIgAiIgAk1GQIZEk2WY1BUBERABERCBMhGQIVGm3JAuIiACIiACItBkBGRINFmGSV0REAEREAERKBMBGRJlyg3pIgIiIAIiIAJNRkCGRJNlmNQVAREQAREQgTIRkCFRptyQLiIgAiIgAiLQZARkSDRZhkldERABERABESgTARkSZcoN6SICIiACIiACTUZAhkSTZZjUFQEREAEREIEyEZAhUabckC4iIAIiIAIi0GQEZEg0WYZJXREQAREQAREoEwEZEmXKDekiAiIgAiIgAk1GQIZEk2WY1BUBERABERCBMhGQIVGm3JAuIiACIiACItBkBGRINFmGSV0REAEREAERKBMBGRJlyg3pIgIiIAIiIAJNRkCGRJNlmNQVAREQAREQgTIR6DxlyhQza9asMukkXURABERABERABJqAAPZD5xdeeMFMnTpVxkQTZJhUFAEREAEREIGyEMCIwH7o+vrrr5uZM2eagQMHmoUXXrgs+kkPERABERABERCBkhLo1KmT+fDDDw2TEf8fgK78nFLoXgIAAAAASUVORK5CYII=;imageBorder=default;" vertex="1" parent="1">
          <mxGeometry x="600" width="530" height="496" as="geometry" />
        </mxCell>
        <mxCell id="7rPCSQm2qlbo8F4YJlpe-2" value="" style="shape=image;verticalLabelPosition=bottom;labelBackgroundColor=default;verticalAlign=top;aspect=fixed;imageAspect=0;image=data:image/png,iVBORw0KGgoAAAANSUhEUgAAAhIAAAHwCAYAAADzWYarAAAAAXNSR0IArs4c6QAAAERlWElmTU0AKgAAAAgAAYdpAAQAAAABAAAAGgAAAAAAA6ABAAMAAAABAAEAAKACAAQAAAABAAACEqADAAQAAAABAAAB8AAAAAAGNZ7MAABAAElEQVR4AeydCbxV0xfHV4OUKYQSUVJkyBASITJlDpEhUchMUTJEpkJkKBkaiJApocGQiMg8hShpIBoUlZKm+9/fzT7/c8+7991XvfJe77f63O4Z9tlnn+85767fXnvte0sNHjw4VblyZatevbptuOGGlkqlTCYCIiACIiACIiAC2QiULl3a5s6da1OmTLGyiIi6deta+fLljR0yERABERABERABEchFAN1QsWJFK12tWjWJiFy0tF8EREAEREAERCCNAMEHH4TwakKRiDQ4WhEBERABERABEchNADGhsYzcnFRCBERABERABEQgCwEJiSxgtFkEREAEREAERCA3AQmJ3IxUQgREQAREQAREIAsBCYksYLRZBERABERABEQgNwEJidyMVEIEREAEREAERCALAQmJLGC0WQREQAREQAREIDcBCYncjFRCBERABERABEQgCwEJiSxgtFkEREAEREAERCA3AQmJ3IxUQgREQAREQAREIAsBCYksYLRZBERABERABEQgNwEJidyMVEIEREAEREAERCALAQmJLGC0WQREQAREQAREIDcBCYncjFRCBERABERABEQgCwEJiSxgtFkEREAEREAERCA3AQmJ3IxUQgREQAREQAREIAsBCYksYLRZBERABERABEQgNwEJidyMVEIEREAEREAERCALAQmJLGC0WQREQAREQAREIDcBCYncjFRCBERABERABEQgCwEJiSxgtFkEREAEREAERCA3AQmJ3IxUQgREQAREQAREIAsBCYksYLRZBERABERABEQgNwEJidyMVEIEREAEREAERCALAQmJLGC0WQREQAREQAREIDcBCYncjFRCBERABERABEQgCwEJiSxgtFkEREAEREAERCA3AQmJ3IxUQgREQAREQAREIAsBCYksYLRZBERABERABEQgNwEJidyMVEIEREAEREAERCALAQmJLGC0WQREQAREQAREIDcBCYncjFRCBERABERABEQgCwEJiSxgtFkEREAEREAERCA3AQmJ3IxUQgREQAREQAREIAsBCYksYLRZBERABERABEQgNwEJidyMVEIEREAEREAERCALAQmJLGC0WQREQAREQAREIDcBCYncjFRCBERABERABEQgCwEJiSxgtFkEREAEREAERCA3AQmJ3IxUQgREQAREQAREIAsBCYksYLRZBERABERABEQgNwEJidyMVEIEREAEREAERCALAQmJLGC0WQREQAREQAREIDcBCYncjFRCBERABERABEQgCwEJiSxgtFkEREAEREAERCA3AQmJHIyWLl2ao0TR2z1z5kx7+umnbc6cOUWvcWuoRY899pj17dvXpk+fnnbGa6+91m699VabOHFi2natiIAIiIAIrByBUvPnz09tsMEGK3f0Wn7UTz/9ZI0aNbKePXtakyZNMl7t7NmzrVKlShn3/Vcb77rrLmvfvr0/PYKiefPmBWrKvHnzbL311rOyZcsWqHxRLbRkyRJ/T9yzbY8//ri1aNHCN/XDDz+0fffd1y+PHz/eatWqlfEShg8fbkOGDMm4L9fGq6++2rbZZptcxbRfBERABNYaAkVOSPz9999Wt27dNMC777677bPPPlavXj074IADrEyZMmn7zzjjDPvkk0/SttWoUcN4nX322Va/fv20fQVZmTx5sjVu3Nh+/PFHX/y1116zww8/PO3Qr7/+2vbbbz877bTT7J577vFOOK1AAVboOY8cOdI23HBDK106b4Bo2bJlhljBOfbo0cO22mqrfGudNWuW1axZ03CiW2+9teEwK1So4I9ZuHCh/fHHH1a1atU8dSAiDj74YF8W8VGtWrU8ZXJt+Pjjj6179+628cYbZxUjtGvKlCl22223eXb51UnU4PXXX7cvvvjC31/uO8/Arrvu6plvsskmGQ8fOnSoHXPMMX5fx44dbaONNrIOHTpYw4YN7YMPPsh4DBsfeOABu+iii6xr165G5GJl7L333st5XStTr44RAREQgSJLgIhEUbK//vor5WBlfbVs2TLlnGpak/fff/+s5anr9ttvTyufa+Wjjz5KbbHFFlGd1O+cedphixcvTm233XZRmT333DPlHGRamYKsOEcX1ZHfdbPv+OOPz1nlKaeckrO+a665JuVERVpdTnBFxzlRk3rrrbfS9hdkZdiwYVEdua6FcyxatChjtbDlnuVXB/fnpZdeyni8E5v+WCekojquvPLKaJl6nVhNW2fbE0884et78803U5TP9Iq3KdN+JzwztkkbRUAERGBtJUDPtUhdW1xIuDB0yo1zpy655JJU3Ck0a9YshbMJFhcSOEAczA033BA5CpyOy3UIxbO+U6Zbt27RcTiNk046KbVgwYKMx3zzzTep2rVrR+U5j4uMZCwL5+eeey7Pvrvvvts7NZxfplfccY0ZMybP8fENbggmakv8uOQyTnzu3LnxQ1MunyJ17LHHph3/6KOPppWJr/Tr1y++6pdHjx6d2mmnnVLcj0zXwnlDW+644448x7MBgbP33ntH5eJijWPPO++8aB/rLnqSVs8bb7wR7XdDPNFyOC/viIiff/7ZtzXUmVZJPivhfnfp0iWfUtolAiIgAiWHQJEWEm5sP7oT06ZNS4sA4LSCBSGBo4rb6aefHjkSN1QR35Vnmd40UYW4w8ERLV++PE/Z+AYc8CGHHBIdRxsyCQ83dp5iH+ULavRuQ3sOO+ywfA8bPHhwVJZjPvvssxTHhxeiINTl8icy1oWQckMAUTnKf/rpp3nKhsjDqFGj8uzLtoG6gyiAQ1LIhOMuu+yy6Py0k6hFuI84ceyHH36IRAB1zZgxw2+HO0ImXKcbMoqWeUY6deqUSkZsOD4ZbfKVZflPQiILGG0WAREosQSKjZDgDrk8hcgx3HvvvdFNyyQkiACED32cRXI4hIPZ5hLrUkQ+gvMJ79kiC9FJYws4u+Cg6BEnDace6sWZFdTOPPPM6Lj8ohG9evWKyhEVcXkRqd9//z3tNC7hMCrz7bffpu1Lrrg8B1/25ptvTu7yAiBEh+BWUOvTp090/mzRiLjjJ6IUjGuCX6tWrcImL3AC09DOuAhhX7w+Il1wSQ5xUDciC6GaNJ4b6okPoYRnShGJJC2ti4AIlFQCxUpI/PLLL5EzikcrgpDgQ5+hiPg625599tno/iIe3n777dSll17qIwTsz/SKDijgAvUiGJI2adKktHyLguYehF4/bWvp8kIy2Z9//pmKiw0cn0t49KKGZcb8iah8+eWX0TUyfFEQc0mJeYrhjOPRl+DA8xRMbHCzXyLWRCWoJ5O1bdvWtzNehuhDuD/9+/dPOywIwJA7cvTRR0dlOQbW4dhktClsj78fccQRaRGosO+FF16IzhuEBPuIfsRf3DOZCIiACJQ0AsVKSHBzwoc7H+DBksIhlOGdHmf8A75169ZRHaEcTvemm25K4UjCtlD3qrwTcg/hfOrNNqSQPIebrRA5Xo779ddfk0X8upuhETl2HBxO95VXXomugWNx/KFnzTqiYmUMoURuCnXwIo+BbbmMnIfg8DmORMZsFnIjiBoE6927d3TOCRMmhM3+PeRLECHBEIjkP4QIRjwiEeq+4IILfBs49vzzz0+Ro4IQoW1Ep+IWrjWbkAj7w/vAgQPjh2tZBERABEoEgWIlJNyXC0VOhaGEYHEhQULjgAEDUuQkxHuPwYHFhxlwcCRzhpyGeO8+1L2y70QG4iKCHIdsPfH4OXCWYeggOCjqymY484ceeihtKMNNQUw7d6iHHv/KGEImLrJw1ERachkRE647nJ93hhGyWSjHUE0wkjbZHheOYV8QNogHzE2VTZELE7jHhQRREYadeC7CeYheEXkhfyNT7kool0lIcI7nn38+7ZVpeCS0Ve8iIAIisLYSKFZCYsSIEZEToCcZLAgJet5xY0w8OIMLL7ww2kWmP733pBWGkGAogfyNcF7eiQoEsZI8Z3wdkRN60/HjWUYcrIi574VIawN1MKzhvkdiRapJwTzeJpaTkYFMFbpv18wzxBSuidklmQyxQJkgeNz3R0TX4L7jIe0QIh2hXQxTxS2TkPjtt9+iKZ8MczBMQnSC8/H8ZIquhPZmEhLKkYgT17IIiEBJJlBshAQ9xvjc//iMgWxCYurUqZEjYvw8l62KkKA37L4NMc/MD3rN9MzzM469//77o7biwFhnuCU4M94z5S1kqpfkT4ZR4seGZRjmmolCnThxeuzhON5x9AUREUnxQfQoOeSSFAacM54Q6r6RMu1+J2dWkLQa2pacAppJSBB1QDwyvZfpxOFY982lqbdcLgVCI2mhjIREkozWRUAEROD/BIq0kKAnj3Om9xd6q3y4E2aPf5lRXEiQX8CsBIY34mF1wv+5bEWFBAKBSMH111+fZziCdjJsksuYHRIfNuA4ZjgEiztMIi5fffVV2JXxfezYsWkOGKf68ssvR+3DoWcyeuTkTyBgMiUmXnHFFXm+xCpZD9/NEHfSXAu9/vCdH/EEUvaFL4AK9ZCjwPbkC+cfDEERPwfPRXKGSiYhQUQoPtRFzgSzMeJffAWnuIV2SEjEqWhZBERABNIJFGkhET7I4++Ig+QwQRAS8XLxZZwGofZcFr6vgGNzWTwJMH4ulolC5Oq5M56e/AIoQvXJaZ5ED0IInropkxyLJ6LB+H9IGgztwXGGsuQ5ZEsGRJyEY5LviIqQX5KNCb395NRL6oFR0hB48XOQxxA3hini+7kmRA4Ov2nTpmn7yCUJ1xevIy4kSKgk0gEjvhPDff21Z8UU17g4vfPOO30V7ivafXJuXPRwPOvxbXAJ2+LvmWbuxNumZREQARFY2wgUOSFBpCHuSFjmA58cB8a1kyKCGxIS8uLH4XDdD22lcBChR5zr5sUdVa7wP2P0wWGF89LGgjoSnGNcuPAdCSSTZjLKEoLnPERpkj1woi2hDbwTuSCyEI/aZKo3vo0ppvE6cOBEg3DABTGGKsLxCDuGRrJZ+NZRhID7vZK0YnAnykMZBEw4f/L7HzhHNrEW7ktcpCBqmKkRHx6jvdTDUEwwBGe4jpV5L8gQWjiX3kVABERgbSBQ5H7mcd111yUc4D7DC27vvPNOwQvnU5If+XIRD//jWc4JRz92lekQfgjrySef9D8q5YSM/2EwfjmzoMYvbPKDXfw4lstFMBc1yXooZV00wf8wmPvuBitXrlxa2TZt2vh1F7kwfn2SV7YftEo7MLbikletcuXK1qBBA3PO1TbffPPY3tyL/NhVqVKlbNNNNzWXE+GXsx3lRILB9/LLL8/zA2LUwQ+h8Ypb586dzeU4+B90O/LII/Psj5fNtMyPmTkx4Xc5kWknnHCCOWFhe+21V1pxWDshYk58pm0v6MqKcitovSonAiIgAkWVQJH79c+iCqo4tMtFSVbqF0iLw7WtSBvd9FFzybnGr8IiDjF+VdZN1/RCCaEgEwEREAERKBwCEhKFw1G1iIAIiIAIiECJJFC6RF61LloEREAEREAERKBQCEhIFApGVSICIiACIiACJZOAhETJvO+6ahEQAREQAREoFAISEoWCUZWIgAiIgAiIQMkkICFRMu+7rloEREAEREAECoWAhEShYFQlIiACIiACIlAyCUhIlMz7rqsWAREQAREQgUIhICFRKBhViQiIgAiIgAiUTAISEiXzvuuqRUAEREAERKBQCEhIFApGVSICIiACIiACJZOAhETJvO+6ahEQAREQAREoFAISEoWCUZWIgAiIgAiIQMkkICFRMu+7rloEREAEREAECoWAhEShYFQlIiACIiACIlAyCUhIlMz7rqsWAREQAREQgUIhICFRKBhViQiIgAiIgAiUTAISEiXzvuuqRUAEREAERKBQCEhIFApGVSICIiACIiACJZOAhETJvO+6ahEQAREQAREoFAISEoWCUZWIgAiIgAiIQMkkICFRMu+7rloEREAEREAECoWAhEShYFQlIiACIiACIlAyCUhIlMz7rqsWAREQAREQgUIhICFRKBhViQiIgAiIgAiUTAISEiXzvuuqRUAEREAERKBQCEhIFApGVSICIiACIiACJZOAhETJvO+6ahEQAREQAREoFAISEoWCUZWIgAiIgAiIQMkkICFRMu+7rloEREAEREAECoWAhEShYFQlIiACIiACIlAyCUhIlMz7rqsWAREQAREQgUIhICFRKBhViQiIgAiIgAiUTAISEiXzvuuqRUAEREAERKBQCEhIFApGVSICIiACIiACJZOAhETJvO+6ahEQAREQAREoFAISEoWCUZWIgAiIgAiIQMkkICFRMu+7rloEREAEREAECoWAhEShYFQlIiACIiACIlAyCUhIlMz7rqsWAREQAREQgUIhICFRKBhXrZJff/3VFixYsGqVrMajU6lUgWv//vvvbfTo0WnlH3/8cRs/fnzaNq2IgAiIgAisHQTKFpXLmD17tm9KqVKlbNNNN83YrIULF9pff/0Vldtoo42sbNkVv4T777/fqlataieffHLaeXDm66677krVmVbRCq5cffXV9s4779gnn3xim222Wb5H//HHH7bxxhvnW6awd+6yyy525pln2jXXXJOz6h49etjkyZNtyJAhvuzIkSPthhtusAceeMA23HDD6Pjy5cvbJptsYs8++6x988030XYW5s+fb3PmzLFq1apZ6dL/17rbbruttWrVKir7448/2vXXX2/HHHOMnX766dH2FVl444037LzzzrO3337bqlevXuBDv/vuOzvppJOsa9eudtxxxxX4OBUUAREQgbWNwIp74dVAYOnSpVavXr2o5vXXX9/2228/a968uTVu3Dja3qdPH+vevXu0zsJuu+3mHVX8+LQCsRV61oiIe+65x2rVqmXHHnusFw4UWbRokbVs2dKWLFliDz74oBcasUOzLr733nu+vgoVKuQp8/fff3tHeN9991nlypXz7GcDDgwRUalSJfvqq698meXLl9vcuXPtyCOPNFgEC07v5ptvtrPOOitszvl+ySWXeMdcpkyZPGVnzZrlnXC8vp9++sk4F0JtypQpPlqCIFhvvfXst99+89vatWtnu+++e1p97ENAnHPOOdagQQN78cUXI8d/8cUXp5XF+ffs2dN++eWXPEICQYXBpEaNGtFxy5Yti5ZZQES+//771qhRo7Tt+a0gcl577TV/fxFkb731li/++uuv+2eB9iAoTjvtNL+dc06bNs14RnnxfPCOiEF4fvjhh1alSpXolLR38803j9a1IAIiIAJrO4EiISQCZETB+eefb19//bUNHjzYWrdubQ899JB3qKEM77fffrv/8B43bpzdcccd3ql++eWX+UYS6OXSe33ppZdsr732st69e0cigjrLlStnhx12mO9h8v7YY4/Z3nvvza40Q3DQmw6WLeyPA/roo4+8EIiLgXAc7zje4GCJyMR72+z/7LPP7LbbbmPR2/bbb2877rijF06IDvYRQYkbTg6LR2qytfHbb781zkukJ24zZ860u+++O224ZcKECV4k4NyJ5sSjC+HYLl26+MUmTZrYo48+aueee27Y5QUTQx7cg759+9r+++/v911xxRXGK26vvPKKXXrppf58W265ZXxX2nKIVmywwQZp2/NbIaLDvWU4KW60nWvjfFtssUW0CzYHHnhgtJ5cePLJJ41XMERq06ZNw6reRUAERGDtJ+AcrPMz/625Xl7Kha1TF1xwQdSQn3/+ObXnnnv67W44w293PXu/7gREVK5Dhw5+m3N00bb4gnOsKddL9mW2dedwvfnU4sWL40XSll2EICrrxEnaPhclSB199NGp0J60nYkV19P19bhed2LPP6vOQaVcSNyXGTNmjK+Tenk5J+63f/DBB3mOdb3glHPQfr8TXXn2P/zwwynn2PJsT25wUQ9//p122ik1b9685G6/7oYXUuy/8847M+53PfVou+uh+zZt6xhzf3h3kYIU1+CGRaJ98E8a95/rok3Yyy+/7Mu76ECyaNr6pEmTfLkXXnghbXtBVzhvOJcTVBkPo4wTQKkvvvgi5fI/Ui5Ck3IiJLpGWHOsi+ykaO+ff/6ZsR5tFAEREIG1lcD/B6CLmGbaaqutrEWLFr5VJPAljZ732LFjo2GBrbfeOq0IwwrDhw/30YzQ699nn32sU6dOts4666SVja8cdNBB5pyLnXHGGeacaHyXOYfqoyVhCCJtZ2yFthEtIBIRHzIIRegNM2xDFIWIC0MORESIdJAj8txzz9k222yTMSLC8AJDLwzDEL2JG2F7eta0P5cNHTrUn//yyy/PGF3geKIHIXx//PHHG/kPDLs44eOjJww/TZ061Yf6iSAkzTl4Sw5HEIVh2CQeBSH6BGuiRnHjHjrRF73cH2F8tx9mYEMyKpNWKLHy+eefG0ND5Gw89dRT1q9fP1+CIbNbbrnFR4h4RoIR2SF6QrSsdu3a9sMPP9jZZ58dRckY0iKnh9wWohnZok+hPr2LgAiIwNpGoEgNbSTh8sGNEYLngzwYuQNxI1QdhhsYTsCBMVaPEyRcjdPt379/Wr5F/Pjkct26dY1X3DjHgAEDfGIfgiQ/wykxFECYOzkEgCM99NBDfdtc9MA74WbNmvnhFoSKi4j4sDvHhtB98lw4t5tuuiltM8mJQbTceOONafuSKwgZEjwZz8cpZrJevXoZYoMy5KmE4Q6GPDASMBliImESc1ENc9Eaf4zf4P474IAD/HVyvfBDODF7g+RGhNKIESO8gArlk+/J3AfKM7wTDJGBIcIKai7CYJ9++qlvL21maAfj3vKMkd+AiM1kMGD4iSRdXrfeequ/xxrKyERL20RABEoKgSItJIKjSPY4r7zySt/7o3c4bNgw7wzJfcARkHz3zDPP2L777uuTCBmvJ1kOIbGyRs+1c+fOPkET55GfDRw40HDCWMOGDfMUpeeKgMAB77zzzkYvG4fcsWNHO+SQQ3x5roNE0ILajBkzfD4J0QEiEnXq1Ml6KIKDGQ6ILBIiMzlhIiKIGhIi77rrLp9cCfNgRDySQuuJJ57wOR2Ij2BEMMinIILD8dwTZjkQraEdmc4djuWdWSLxSFMyYTXkg+QXYYrXxzIikGclGHkbzEhBwJFkmZ+Ru4O1adMmehaCEMnvOO0TAREQgbWZQJEWEmFIIznEQDIkSYfYCSec4MPMgwYN8kKCBL9TTz3VC41VvXGE3wlzE+GgB02vNb+pl4TJCZsHY3ogoiaZMBgXGAxlMMxB5n+IDrj8ED9rg2hKLmPWCEMcCIPrrrsu32mQRCKIWrjcAl8tAokplhdeeGHaaYgk0PMmakHCJzMYGMbAGO5Iigi2u5wIX5blYAglrg1mCDBmRCBe4BnuXyib6Z1plUl28XJBSGSajUI5ZlYgRpPnYggIMTRx4sToOy+IdjDbJFtd1FezZk3ejIhPiJBxjZmMWTfMxmGog2TNePJrpvLaJgIiIALFlUCRzZHguwXIBeCDOB7OToJ2yYl+EyFrjAz+/JyPL5TjP5wyThaHitNDuOB4kj3iUA0hcqZYIiI4hqEYxuCJECBqiBjkZy4h0ffYKcNQAr3c+GyNTMcyY4VzksuBwYohg2zG9E2GGBhyYRotvWtmrzDrhTyNuCFq+O4HIgacA0fIl0ohbALnePlsyww3UT+RFgQI00GZzUEUIFeeSbY6M213CY55NjMMwawfRFY8T4PprAyZMDOEqFCIiiB0EHjcZ/JAMhliiSgLggzeWBBY8fLM7EHgjho1yh555BEvPOL7tSwCIiACaxOBIhWRoKdMr56xdHqIGA4s2Zt78803/XcP4LAZ2sAYwlgVIwpA7z7kWFAXIoZQPL1qIgdJw2HwhUp8TwTOH8dFOJ72ki9ARKN9+/Y+dP78889bxYoV06pgyAWnjnPlXCSHMiyBww3DHOEAnOG7777r2VCOL0TCEDk4fSILmYxytI9jEFgMvey6666+KNMwEToh14HluNGr5rr4vgiuiahPyPnA2fJK3huOxzlzLpgxjEDSJHkjCAvEFo64IN/7EW9LpuWQQ0O7yOPgvEQpXn31Ve+8aXu3bt3Sogwff/yxr4roEsKQfBvub9u2bf39v+yyy/x1cl8yXRtDTgzXUJ76GRZJGknADMkwLMQzQkSEnJZM9SWP1boIiIAIFDsCRWn6p+vx+el8rueccs4x5cLqabNlXG/Q7w/lmB7qZnaknINNK5dcYWoox2Sbikl5l80f1X3EEUeknKPJOZXPiRh/jItCpJzwSZ7WrzsH6su4HnDafpcTEZ3P9Yb9FMK0AhlWnFCJjmHaK1MS8zPnwP101W3dtV977bUppnMmzTl1P80W5kx1TJoTF/6cTHt1SaspN8yRoix1Mq02bs6h++1hG3U7p55yUYkUjDjG5Ur4aZKUcRGbFKzZzov7GV9n6inr8ZcbjgjV+3cXMfHHUpbpptTDi3U3OyStLCvueyT8PtrjZvNEU4yZvunEWspFGlKwzWQ8Z264KqrfCYZMxfz1cS0u6uKn4tIumQiIgAisrQRKISRW5At9ip1Scg1mpgRDFIztM0afzfhGRXIh4l9IlK1s2M4x1BtC5GF7eCeSQJn69euHTf6dcXqiLeQixBMK0wolVvgWSvIMGJcvaO+WpEbC/Mk8gXjVDJPQy05GTChDjgHhfiIb9MCZScLzwrAA4fvqsQRFIin01Lk2jOgHSaQMqTAEQPJmnC1t44vBVsTII4kPMcGXPBRyObjPtIeICxGhMJMnWT/XQoSGZF3YE2VgFkow98eeMQLFkBd5I9TPTJtsX+VOPcwaYsgITuSu5Mc/nFfvIiACIlAcCZQIIVEcb0xxbDP5KnxzZMhRyW/4ozhen9osAiIgAiKQl0CRypHI2zxtKU4E+HKm+G+OEL3I9l0Yxem61FYREAEREIHsBIrsrI3sTdYeERABERABERCBokJAQqKo3Am1QwREQAREQASKIQEJiWJ409RkERABERABESgqBCQkisqdUDtEQAREQAREoBgSkJAohjdNTRYBERABERCBokJAQqKo3Am1QwREQAREQASKIQEJiWJ409RkERABERABESgqBCQkisqdUDtEQAREQAREoBgSkJAohjdNTRYBERABERCBokJAQqKo3Am1QwREQAREQASKIYEi8RXZ46YvLobo1GQREAEREAER+O8J1KlS7j9tRJEQEhCoUvG/BfGf3gWdXAREQAREQARWgsD0uf99R1xDGytx43SICIiACIiACIjAPwQkJPQkiIAIiIAIiIAIrDQBCYmVRqcDRUAEREAEREAEJCT0DIiACIiACIiACKw0AQmJlUanA0VABERABERABCQk9AyIgAiIgAiIgAisNAEJiZVGpwNFQAREQAREQAQkJPQMiIAIiIAIiIAIrDQBCYmVRqcDRUAEREAEREAEJCT0DIiACIiACIiACKw0AQmJlUanA0VABERABERABCQk9AyIgAiIgAiIgAisNAEJiZVGpwNFQAREQAREQAQkJPQMiIAIiIAIiIAIrDQBCYmVRqcDRUAEREAEREAEJCT0DIiACIiACIiACKw0AQmJlUZXsAOXL19esIIqVWgExLzQUKoiERABEchJoGzOEkWowJzZv9kv037O2aJNN61kVbeuFpW78dqrrMU559n2tXaw3+fMto8+eD/ax0LDgw62MqXL2Jeff2pz5/5hv82aabNmzrAfJ/5gF13Wzipttrk92KO7dbr59rTjwsqCP/+0CePH2W577GWlSpXym8d987X9/vtse+rxfnbfg/2sTJkyobjdfksn23W3Pezo406Mtv3x++9WvkIFK1++vKVSKXvphWct5f5hv/z8k1Xesuo/y+76q22zrV/mv0MOPdIqbrxxtM7C0JcHWb2997Uq/x6TtjO2csetN1qz08607WrWskWLFtlFrc+0ex7ok6e+RX/9ZQsXLogdmXlxww03snXKlUvb+fNPU+2bsV/6bTj40qX/r133qLe3bVG5iv322yybOWN62nHxlUqVKlnlKv9cf3z7hO+/s40qVnT7tvSbly1bZsNfGWxTpkyy3ffcy/Y/oFG8uA1+/hmbM+c3a3X+xWnbs63cd1dX28Xdp8aHHZmtiN8+6ceJtt56FTK2Mb8DFy/+20a8NsyOOrZpfsXS9n34/mh//+PPd1oBrYiACIjAGiZQrIQEH9gvv/hcGqK333zd9txrH+dQ/u9M99hzbzvh5FPtpUHP2vfjvjXKTJzwvdXdvZ4df9IpNmvWjKiO558eYLvU3c222KKKTfxhvK2/wQb28AP3WofrOttpLc6xzbeobNOcI586eVJ0THJhyuQfrfO17W3wq29HuzbcaCPrfscttlf9Bl6g0MZgp5/V2pW/ygua9tfc6M950/Xtbe/6+9npZ7XyxYKIYOXZp5+wE5ud5q/xhWeetCvaXxuqyvOOCLnzts729AtDLem444URSmNGj3JM9jAEwCO97vPXf0+322zp0qX27ttv2uFNjrHrOnexYUMGe0GUPJ51+AS74ZY7/DlHvTXC89qqWjUrt04522yLLXyRB+/vbptssqk1b3G2X1+yZLF/5/4MHPCYbVt9O78e/++XaT/ZvvsfaJdf2TG+2S8/0uteO/jQIyJHjFj75uuvrPaOdeyVF593PBvY68OGRMdxbfvsu58NGfxCtC0s7NNgf893jhM12KK/F9mg5562Aw9u7IVcKBfeq1TdKhJFjz7ygHuGdrdTTj8r7M76vmDBn1au3Lq2zjrr2JLFSwwxh5CYP3+e/TZzpm1TvUaa6ExWNHjQM9bk6OPThHKyjNZFQAREYE0SKFZCot7e9W3bGtulOXWcEE52/Q029JGEHXfaxbbZtrpniHDY1n0w00On919n512sxnY1bYcdd4oYj3rzDb/83bhv7K0Rr0Xbcca1d6hjNWvVtj3q7WPjvx/nRMk3vvdMb5/IQTB605w3bjihPZx4aHXeRXl66eutv7716vOE3XtXF3vh2ad8G6f/+oud3PwMXwVRjW22rWHDXnkxqpJoSYg8fP3VF3475wzbEFip5Sn7/LOP/b5uXW/yTC65or31fbinEyit/bWHCu+87UarsN569uGY91z0Zaa9PnyI61Wvb+ecd6ENeKyPVd1qa2vZ+gJfHL684nbaiUfZHff0iliHfdN+nmp7uGjAIHddRHp2rLOLTZ400f7443dfZL9/owSIl6223iYc5u8P504aYnDypB+Tm/36r79Mc9dUK9r3gxOLP02dbE2bNbemJzf3UZaZTjBhH3/4TxSqlrunYVt0oFtYumSJffftWLv/7jv8ZkQl1qP7nf49/h+C5YE+j3tBwHaiMAjQgtiLzw20J/v39UVDlKfJwQ1s3XXX9VGnu+5/yAs7CnRsd4mLas1xgmOxEb0g4kJE7v13R3lBRplNK21m/Z58nkWZCIiACPwnBIqVkIDQZx9/YI/3e8T3AAOxV4e+bEQAhg95yTu8y6+6xu/6ceKEUMQYFpk9e7ZN//VXP7yxiRv+wAi9Yww1NDzoEN+jRjQ0any4Va9R0wmHmXZvty6+DOcd/c5bdm+vPsbx9KIXLlhg9MAxHMKWrqdKNGP3Per54ZDzL7rc7+M/wtL19tnXTjq6sQ0ZMdo6drrFh/TPb9ncOrnePD3VYNN/nWbrr7+BnXzqGT78fe6Fl3oH89knH1nLVm1s7Fef25j33rVmzc/0h+Bk5s2dG4mh89x5a25f2w+T1HbCiWELojRtLr7CRVim+mhIq/MvMqI8OP2HH33Knhs4wM469QQvKJ4eNMw23mST0Jx/ndninA4TccCLyAMMeWcop/mZZ9uVHTvZZptt4YePHu/3cNrQzmN9HrQNNtwwOl9YeNKJmgMPPjSs2oD+fWyKExbct5+mTrF2l5znnTCRiQvdMBT3Y/KPP3gRiNjjGonSIMQ4P8M4S5cuiepjSGmHOjv7+8ZwAU75r78W2mlNj7Iud/ewnXbe1QuSe100g/uVyYjgxO9dpjJh25lnn2u8uF+IBJ6F4W+NCbvT3hFW67prKF++gr/GMmXL2q03XmOHHn6U7X9gI/+sLl+2PO0YrYiACIjAmiZQrIQE4/h//vmn7bzrbnZpu6s9K8RD2w7X+d41EYTvv/vWj+fTu8ahBBvy0iCfg7DMfejf1vlaq79fQ78r9ApZedFFEXDoGMMjDFnUcT3qw444yl504+s3dbnL9xLXceH6DVyPmpyILVxoHyFBWH//Aw82hh4GPtnfOt/WzZ52QuONV4dYk2NO8G3q0PYiG/n+575+/uN6rmt/ue9Bv/j8QN/rbODC+MHmuHyOIIbIB6j47/AN25K5Ir4H7nIZEDe9H3/Gtq72T2+//eUX2A233umHAD53IgQHdnOnf4YJNnZO3myidbnrfiPPY57LD8Fg8tqwl31EIUQN3nv3bePFUAeGA57lIjFEVzB66YiGbMaxFSpU8Ltx9pmMqEDS/v7777RNiLttXbRmwvjv3f2daC8OG+meifl2botT7LimzbyYYLjgkMOaWFnneDGGbRBPxxx/kj14/90uOvLPdc6fN9eJsXe82AjRF8pf36GtG045wIsI1nlmRo0ckVVIEC0o5yIKBbHXhr3i27KBi6AhWLD+fR/ybUI8Xtr2ah8NYjsCB6P+7nfc6oUy6+R+IDJlIiACIlAUCBQrIfFY717eOQPuu2+/ifjhRCpuvIkPobORnIaej/S3vfZp4J3M2ede6BMPmxxzvB/vRnDc6cLyGB/SCAMMpxWGN0a8Psw7XXr1M2fMiHrnf7uxc5zGZi4Bk/pm/zumTjSD8PRuLhLxwfvv+vrOaNnaHri3mx1x1HFGJAGREJIucZrd3PAJY+JnuQjDJx+N8ePl5DYQKmfYAufOsAkOGoHQ8tw23umxDVFx5NHH+fOE/xg/J+IRRATbiTjQY6a9hx15tO/F1nXRl333OyAcZrfc0NHnJ5x4yumuzDGOwyIf3SDvo2v3nv7YqPC/C4iNdpeeHzk9evq3dbsvWSxaJ4qyqUuaxOa4yNAN17SL9rHAPSInJWkIlfjQRkMn1rDPPv3Y9+x9gqoTKDVdIi3Ci3u+0UYVvbgjSRKhQMIr10ai58VuqAcb+cardtP1HXy+CSIs2MAnH/P3onvP3j6CNH36LzZ/3jwvrhhmwXgmyIkIxr1cp+w6YTXfdxJl4fvXwoXu2fsnR4T8ni2rbm0NnUBgqCJp77490kdxEKGH7LeHT8Q9/sRTksW0LgIiIAL/CYFiJSQuuLSdbbd9LRv/3Ti7pG0HD+yg+nXtqUFDfTie3t4ENywR9o398nM3Hj7dFjuBQOgcZ3zK6S3SQC9xTmDsl1+4WQ71/fYwdZCee1j+0Y2X4zywhc4BlIvNTHjHJSUSVkdE+P2ut03uAVa/QUM/LEGCHbMJSNwLduWlbfyMhetu6upnepBoybAI17DHXnv74yg7zYXwCYGTJDj33570Z598bLVquxkobvv6ztGSw0HyJMmMyfFywvuLneMKFpwpveBgN9xyp82Y8avj09+F/rf3ggNHhxDKZuRQZMqRCOURZR+5/At62dhdt9/sEwxZ/ttFYpLG/ZkUG4oK+4n2HHvCyWHVvyOMXnWRqF59B0TbiUoQ8SC/pNlpLWy5u3/c/5uvv9oPUdXZaWf3bHxnIcGzW5eb/OwH8mW+dQmaJI0y9EQiJsKN3BOGT0iC/NO9MJaxEEnwK+6/xS5pMgjEsC3b+0671DVe5D2Q0Ek+CqIgPpsleew8FzkpU6ZsNCOIdZkIiIAIFBUCxUpIdL6ufRQxYMw7GDkGFSqs5xMi2ca++x7qZ199+Zl3DoStERdHHXuCiyD8Zs8+9UQ41EjYGzjgUS8kLmn7T2+V5ExyJkjUJDJALzVM/VzgHBbDJhhj70wpJO8gGPVVqVLVr5KZzxAHDohppUzVnDplst9X3SWNIiJwQDgmogzkEeBYDmp8mO3lEjpxmPSmd3fDLM3PONsf96brSX/hEiqPP7GZj0qEaZG333KDneTyKRA85BEMdUM5iCQERv++j7ihoA6eka8k8V/pMqW9EDrP5WF8/OEYu+/u230Yn2gLU19XxHDeDDcRsXhl8PM+x4Pjr7nhlqguZidc2/6ytGq5RtqftOWOcZmyZdI2E2VAdNXYrqbfzn1gVk2YQUKkCGPaas/e/aNZGrSHqAVG+xZOXWBPPfGoXz/08CbGzI39XYIoSY5Yo0MO8+9Ehl4a9Jyd2fJcv578b9mypQbDpHFP+7kZHR2uuykSCogThtZ+dUmTQXBe1+FyO71FK//MJetgneeG5+zoxvv73bQ1ad99+7U9cN9d7jxlrHWbi91snD2TRbQuAiIgAquFQLESEkwBxHkww6Jt++vyABnupiny/Q3trr7eJ6jxfRIYeQoMHzCuXNaFoBnOOOHIRlbWOXqcxEWXX+lFAcs4JezP+fP9i2mQJNKRsIiR4Bcy9OlxE20I+Rbsx8kd0OgQFiNjhsId9zxgTzza208pZEdb18bQi53+yy/W5abr7MF+T9quLmROeYYocEIY36PALAISRhE5t7vhhnguBWU6XHejSzit6HMqcDqPPvWCMQ7faN/d7PNPP0pLHqR8MNpQulRp33sf981YO8b1/g9vcrR1vbmTD99fcEnbULRA7wimWjvs6HMXQpiemSREBpgGumzpMh/aRzjEje99YFgoacz4iA9tcH8QW3z/RTCGuYgIJUUPwx4hkkRZnotgTAXd2UUGDm9ybNi00u8MS/zgcjaIKgXjfl3f4QofLSJKEozZPPWdYGEoh4jXwQ12tzo77Wqdrm5ru9fb29q5fJ/4VGaOIzry2NODbPSokXa9K3dU7PtHQr39XfLqbXfe65/pG6+50rrd9/+IUyijdxEQARFYHQSKlZBgpgQ9Ucas+SKjYHwg42AqVdrc5wewj22ffPSBde/xiB/LZ+bAokV/+Q9pxslDEl8ZN26OMKDnTnIeEQsM54vTxhj7R2QwTEI0AkFCaLrHPXe4KZJtfPj+rq43+94g31dx7Y23+uPCf0QcWjZv6qMeTzz3srVodpx9O/Yr29IND2BvuSms5Epw/uBEECi7uemrzDRguh+9zWB8WRVfmkXSXXDWITKxscsV4VoGPfu0Y/JPRv8j/Qfap44FSYNJI9ICK2YH1NhuezekMtQe7/uwnwbKrAus94P3+/roxQdn/YvrUffofrvPTQh11qq9ozVO9JYpx7RUwvFMbUQEkjjIdFzuWXCyDG289MIzoaroneGb+Bd3vfHqUJ+XQjIl3/fB0M9XX3xmp57RMur1RwdnWGDIivPyHQ75GUM7YcpoyJEI6wgvpvaG4YiDDz3crrnyUp+bwxdkMQ2VYRLEAs9HuEbOR6SJdiNyiF4xjMIsjpNOPd3uds/QLHdfwzMQ2keUh0RgolFd7+qRZ8ot5ciZ4QvUuD6iczIREAERWFMESs2fPz+1QQHnwK+uRo2bvtiqVPwn4THXOfgw/WH8d2nDCXzA39DxSi8ImM1x0MGH2ozpv9pd7rsU6JkxO+LDMaNt/Lhv7c8F832vOH4evl9in333t/feeds2r1zZNtt8C59gSCic2RlMwbzmqkv9GDvTLXFaOF8+4JlBgqP47JMPvTip44ZCgrONn4Nv1AxTTvmCqTeGD/Ef+pSptNlmRv5H6D0jUtqcc7pPuuT7JMiHIEJBQiOOgu+RGDniVf9lWz0ffizP91TQi2eaKr3//Roe5CME8bawzHBNxYqb+IRR6nuo5z3ui73qe7FDWDzu/PiOCcL3XDOh82xWZcstfQ887MdR3tCxnetBN/UzV8J3b7Cd77HA0RKFIC+EXIqTTsk7tPHmG8PdDJE50XdaICyIzMCKmRgTJ4z3XEl+jLc5tIF3vkeD8ggjhAhCBuY33totIxt6/SRgEsnCYP6x+zZUZnIEu/LqTmncGVr4/NOP/bPGN4qS05LpOUDEwBvxQ8SIOsM3c4a6k+98xwhJwEccdWwkHJNlEGpEvFLuHpHbEp61ZDmti4AIrF0Eps9dbHWqFMx/rq4rL3ZCYkVAxHu8K3KcyoqACIiACIhAcSBQFIRE3gyx4kCugG3M1kMt4OEqJgIiIAIiIAIikIPAWi0kcly7douACIiACIiACKwiAQmJVQSow0VABERABESgJBOQkCjJd1/XLgIiIAIiIAKrSEBCYhUB6nAREAEREAERKMkEJCRK8t3XtYuACIiACIjAKhKQkFhFgDpcBERABERABEoyAQmJknz3de0iIAIiIAIisIoEJCRWEaAOFwEREAEREIGSTEBCoiTffV27CIiACIiACKwiAQmJVQSow0VABERABESgJBOQkCjJd1/XLgIiIAIiIAKrSEBCYhUB6nAREAEREAERKMkEJCRK8t3XtYuACIiACIjAKhKQkFhFgDpcBERABERABEoyAQmJknz3de0iIAIiIAIisIoEJCRWEaAOFwEREAEREIGSTKBsUbn46XMXF5WmqB0iIAIiIAIiIAIFJFAkhESdKuUK2FwVEwEREAEREAERKEoENLRRlO6G2iICIiACIiACxYyAhEQxu2FqrgiIgAiIgAgUJQISEkXpbqgtIiACIiACIlDMCEhIFLMbpuaKgAiIgAiIQFEiICFRlO6G2iICIiACIiACxYyAhEQxu2FqrgiIgAiIgAgUJQISEkXpbqgtIiACIiACIlDMCEhIFLMbpuaKgAiIgAiIQFEiUCS+kOr777+3UqVKFZhLKpWyHXbYocDlVVAEREAEREAERGD1ECgSQqJMmTK2/fbbF/gKf/jhhwKXVUEREAEREAEREIHVR6BICInVd3lrvubp06dblSpVCvXEn332mRdaG220UaHWG69s9uzZ9ssvv9jUqVPt6KOPju9a4eUJEybY77//bvvss0++x86cOdO+/vprGzNmjHH+bt26GaISmzhxog0dOtQuu+wyvz5//nzfvg033NCvJ/9j/3bbbWfrrLNOtIs6KlSoYFWrVo22FfWFWbNm2aabbhpxWJPtff/99+3PP/+0ww8/fE2eNuO5XnrpJTvkkEMs2/2ePHmy/fHHHxmPjW+sXr26bbzxxn7TN998Y/3797c777zTr3O9PHfBttpqK9tzzz1t/Pjx/u9gzpw5xt/zzz//bBtssIHdcMMN9tBDD/nnmnJJW9nn7e+//7Zhw4ZZ06ZNk1VmXR89erRtu+22Vq1ataxltEME1hSBtVJIjBs3zn9AZBouWbZsmW2zzTbGB0xhW58+fWzAgAH26quvWvny5aPqJ02aZNddd5099dRT/oOpefPmNnLkSCtdumApKjfeeKN17drVdtlll6jOwlzgg2zw4MG2ePFie/PNN/0H5eabb75Cp1i0aJEx5LTuuuvayy+/7Ieq+KDjw5gP64YNG0b1wefuu+/2H858+Hbp0sX2228/++uvv+z555+3s88+2+bNm2fffvttdMwTTzzhP8Rr167tt/Fhj8XXBw0alBbZeuCBB2z33Xe3s846y5fN77+lS5f6ttLe8EIMzZ071xApiKu6det658X9wCpVqmS77babb3vghXML+xE1W265pR1xxBEFunczZsywc845x8444wz/Cu3lnpQtW9YOOuigsCnf93feecfvjz9fy5cvN+4R92G99dbLc/ySJUv8MxZnxfPAeeP1rM62wHr99de3hQsXWqdOnWzvvff2ghRnDse400QEILCDffLJJ/6+JUUQf2v8vffq1cvee+89gzHXv8cee3ixxjrG3yjXiUDgvnPOL774wl5//XX/TIZz//TTT1nv5Yo8bwg2/lZ4RmDPM4OQ4LlHYNeoUSNfMfnMM8/Y8ccfn8YksNC7CKxpAmulkPj444+ND5pMhuOih0rPpLCMD9zu3bsbvaiHH344TURwDnrZ9PbDMo4q/uHsd7j/+ED58ccf03rV7JsyZYoxnMMHIOfCeWY6PtST6/25554zemedO3c2WLVv3947/0ceecR69Ojhe8S56kjuHzFihN122222YMGCaNdbb73lnW2tWrXShMRhhx3mnSvXu9dee9kxxxzjj+HD+4UXXvBCIqrk3wUYdujQwc4880y/hQ/de+65JxKEp59+evIQK1eunBcreXbENiCiGjVq5NtNJADxs8UWW9hrr71mlStXtpNOOslo/yabbOKPwslxXQghHM4bb7zh24FI5LkK++GI4exoGwIpiB6/I/Ef9+Piiy/2YgHnFzfEb9u2be3cc8+1Sy65JOe9R6gle+usE/2hnZkEad++ff1zdssttxivYLS9Y8eOYdVWZ1u4t7/99lv0DLVs2dI/i9yPs524DM6cxtCu+vXrRxEFrom/wVNOOcW3FYGw//77++MRqAhB7k/Pnj398mabbeaddbgwxBf3EkMI8/dGhwRD1HDdF110kRcjtINIF52FnXfe2Zfhv4I8b6HwwIEDDeZY+Jtp0KCBFxe0k8hHiEByz/nM4G+f55W2ECUZNWpU9LfK9fCMyUTgvyCwVgoJelXxnlUcLB+K8Q8k9uHQ+OAJYfV4eXqqyfLx/Z9++qnvRdJbpUdMzylp1BEPuSf3h3U+7K+66irfCwzbcK4YYdWaNWsadT399NM5HWQ4PtM7Pf0w/FKvXj3vJBECnHtlDTHAa8iQIT5MSw8wbvSI+SDkw5ehj7Fjx/oPRcogbLBdd93Vv2f6j2gH4i+EuhGEiI6QW4OTTBqs6PXlZ+wnirT11ltHZe+66y4vdBBGOIdMhhPjg/7kk0+2q6++2m666SYvIkNZerzsJ4qAg6J3m0lI0DNFlHAt1157rSVFBPXRy2b/eeed559T2hUMrvfff79dccUVYZOP8EQr/y4gcGGXSURw72HLvaP3jsEb55sM4a/Otrzyyiv+GUG8cY38TcUNkRaPpjz++OPeoeJ44YtRB4aoR2g2btzYi3iiYvT0MZbhTrSFaBN1IuARHFizZs38cBsOm8gXQpNl6sSh82wTOUEAfPXVV/4Y/ivI8xYKIwp5US910k6G+DLZhRde6P9uEC88r7T7mmuusaOOOsq3jWeAl0wE/isCa6WQyAaT0C4q/sEHH0wr8uuvv/reIBvp/WP0TDH+cJNKnz9aPrj69etnIYzMB3EmIUIdwYGynJ8RHg8fhJRD4FxwwQU+avDoo48aTj9ujKdzTdnOizNgeIcP2rgxvhqcEZGN1q1b+w/HE044Iert8kHLBxwfWtmM64JTGEKiPTjDOnXqGL1JnA5OgfFf2o/TZTttRjTR68dC75n6shnXgtgjtBxsshsnz08o0HvLb3+oB4EWDMeBQ6VXn01EhLK8w49eMAzjH+bw40XEh94jQyxxgy3n4VnEIeEUMomIcAxREXqxXHPcEGHkkuBssl0r3Ai7E41IGsfTk7/vvvu80yRPgOcJp0bE5cADD0we4iM0q6MtnIioGH+DiCOiQJdeeql/Xmg7z8vbb7/trxNmDAMcd9xx3glz366//nov6qiHffDnWeM64gnaLCNoycnh3jDcw99EeA6CyGW4bdq0aV5MIRY5N5ERnnGeVaIbcSvo88Yx/J2Tj4S4QyBhRCH4W+CcnA9xi4WoB/XfeuutXtCwvZETOORuyETgvyaQ3Uv81y1bDeenR0EIMNnToRcWHPh3333nQ/1hPd4MHAUfHkQe+KPmQ4UP8NNOOy2rM+d4nAbj6dmMD7t4TgXl+KBiyIEPCpIW6bkkjV7ms88+m9yctk4PNO5AmGqLY2FsPxhDDQiLDz74wI/3s50PVoYSchlDSLSRD21CsIRneUeAnHrqqXbHHXf4sVzC5eGcOFVejFljOEk+FEP0Jds56YXBGmOs/sorr4yGNjINZSHEChIJip8PB3riiSfmuR/xMsnl0IuPt5/QO88IDg9nHCJA9GBxlghQHNW9995rw4cPjyIBybrj69QR6mE75uqttgAAQABJREFU94v7Rog8m4igl8yQCfciGY1ADNMWRB5Om8RWxDEOGXHBccnnMrSnsNtCvQgi2oOjhhnvRLkQq+SNtGvXLrpOhhk+//xz/xw89thjPjmXOlq0aMGbX2cICtHAc0IHgqgN0ReeTwzBQoSSc/G3Hf8bQ0wQueP+BcHLMTh5WCFAksxX5Hnjmvi7R0QEAU1SKOKBvwU+p5JGXhVCg+sm4sXffhjKSZbVugisSQIlRkig/vnQvvnmm6Ne94qCpvdJuJrEKJwAHyQh9yG/ugjlZxsewWH37t07LWeDnj3DDPRWCHtffvnlPmyaPAdCg1e2fAl68fFeMseTVHnsscemfQhyHUQLXnzxxUhIIC4++uijfAUSTio4GqI2RFTo2eIs+dDHQnjZr8T+47ppH4Y440OdpMRsRlia3jshaIyhDe5DGC7INLTBB3u2aE228+AgQk8wW5nk9hAyRyyGWQCMs/OsIC7oRd5+++1+yIGQOEIWkRYECEJiRQ2HCGOGVEhKzGRcP+KL3jqOP9ljRswReQmMEJw8iyEyUlAnVRhtQYgSIUDUIHgYXgrJlHQAks84EUDuPyKAYQGusXPnzpFoJq8Bh8w+jPIII0Q9+TUMiYVnl/3Uz/nC8xQXFfwNwS5EOXjOOV8mIRFYUmd+xjPACxGBoCBRG97J64zXQTIqAj1EAFmXiUBRIFC6KDRidbeBXgmhZ8KgOMhVMaIQBx98cJ4PkWx14mwZg8+Ucc/YOUKgTZs2/nA+sIiE0E7CmThlPqz48EgKAg5gHy963ZlehObjH5Yksj355JN+DDjZXkLr9Lz4sMT4QOTYTPWGbYzZhg81uNCLZeiBxEAEEGKLRLmk0Q56vfQUMT5EP/zwQ9/7S5YN67+64SccwL777utfbCeZLr4eyoZ32Gf6YMa542gyMSW8TbQg075Qb/L93Xff9cM5ScdCORw4uQYhYkL9559/fiQiknXlWsd5EOVBRDDbBSaZDEFDzxtRytASDhTeOMS4xR0f9zLkCVAmnmQZPyYsF2ZbiGrx/DF8x/XRDp4Lhh2S95C8BiIsCF+eNZYZMkNMsswL8cE+roHnACPaiJBjBlDoUIR97OdvY7IbOkKY8TfIs4Xh8ImO8IySHIwRqUAoxm1Fnjc6NiSXMvwXhBsdBqIN2ezII4/07eO5x5o0aZKnKNFSPuuI2HDvZSKwJgis1REJogV82DAEwLQ6/lAzWcglyLSPbbn2ZzuO7YSdcbyIj7gxHZRQJVESEvcwHBJjw/Rek8JjRRxb/DzxZYQJQw/J8XrK7Ljjjr4njhMNsyjixxZkGeHCcMUBBxzgP3yJcsRD8aGO0OvlnBgh3ZCcScQkafTavvzySy+yQsgXh8yHcPV/p/Emw/bUQWSBoRwETTB6koS4GS4KIijs4x1BxVg1ya2E+jMJIcrRJpwOIXPKE5JPGk6b8xN6j7chWS7XOvUwgwBHCx++1ZXnOozpx4/nOWHKIs8QDgfBhCCkjThbHCu9/biA4HiuhR494oBhI575+PTbcI7V2RaEGOcluoX4YZ1hpqQhBniWuRYiDpk6B+zjeyi4n4hQjO+PQACEvAKSe3kWmJ1D9IYIIMNsRBARK0FUswwvkpwRgRjCjPJxW5Hnjbq4PwyNcs/4m6Q9iB+EDJ8P4fsvwjlYRyjwuUG5JBuEDMND/H0RXYEj9ctEYHUTWGuFBA6NPyL+KOnZ5PflSJQLPcYAnF5IMBKfGKPNZKFHQyg0+eGMUybJjbHMsC8IAhwRToEPsWCIBxwOwgMjJE4+A/W0atUqFFupd8Z2CUHTG8tkOFU+eONJaZnK5dpGHgRDFRUrVvTjvDgoesfUH3IuSCBlf2CXrJMwNx/ioSdK75IITRAR8fKMGcOUHmxSGCA0SNYjSsL5cOoMqXC/iQIly1MvvUwSCck9OPTQQ/34PM44+fzACodGj5khl9B7DW1jO4Zz4Z6GL9YK++PvPDvxUHp8H2FveqI4Lq4H4ZlNBHEc4X4EKZEuIiHBuC4ENeFznDTDWxhim+8o4XsYmBVCDgqRJiwpolZ3Wzgn94S/AxwpgpS/G/6GaCezKXC4PBcIVPIMSCSOi1WeBcQI20gc5ZkhqZWkX2ZnELVArDOshGMmcgZ7juHvDiHFUBXCgucQQ8BxHMMeiH62k0NBnkLcVuR543nhXsKav02mHjOLg9waoiW0ISkkiFYgQBiOYnpx9X9FdGgDrBB6DM+R/xKmLIf9eheB1UWglFPbqaDQV9dJctWL8wrT+HKVZX9By/Phk5yxkKl+PiDzMz64smXw86FC0lsjNx6baYYDvaHklFBC6/EPv2znJhTLMABOgB53cKzZyufanknsxI/hQ3hVz0F9OG5mK+D8+HDD4QaHGj8fH9Z8qQ6OLRhfDMSHKc8kH6yEqREghGvjv69CDgnhfYZTEAh8qDLGHh/KoU4cAG3hHvMs4NTDl0eFc2Z7JzRMLgbsV+ffCE6J3ncYn0+2h3bgFDI9X8my9J4pF8RAcj/PI+I13GfuOY4SLoitXLY62xLOzXOK4OM54r5xT2kbzjd+7xB7CLZ49A5Rx7RQ/r6IWiAYyNNBfBEBIMcGoYVAR8xz/XFjSIDePPsQUrxgRYQK0cHxDHOEfKB4e6inoM8bwgVnz7mIbCCakp8T8XaxzOcZ9woRmElUU4aIG7ku/L0RhQ0dGPbJRGB1ESgSQgJHkKl3mO2i+SOMO5Vs5bRdBERABCDAZ8aKfMaImgiIQMEJFAkhUfDmqqQIiIAIiIAIiEBRIlAiZm0UJeBqiwiIgAiIgAisTQQkJNamu6lrEQEREAEREIE1TEBCYg0D1+lEQAREQAREYG0iICGxNt1NXYsIiIAIiIAIrGECEhJrGLhOJwIiIAIiIAJrEwEJibXpbupaREAEREAERGANE5CQWMPAdToREAEREAERWJsISEisTXdT1yICIiACIiACa5iAhMQaBq7TiYAIiIAIiMDaREBCYm26m7oWERABERABEVjDBIrEr3/y4zwr8j34fG9+tWrV1jAqnU4EREAEREAERCBJoEgICURERfeTvmmWcmul0rZEK3PdT0fLREAEREAEREAE/nsCRUJIpGH4V0AsW7bUyrifQ8ZSy1P+1/tKl8k9EsPP8vLT2/wMMD/NzM/pfvXVV2mnYGWPPfbI87PNP//8s11xxRX27LPPRj+zHD+QOj/55JPoJ3y32mor/xPZlOnUqZMdeeSR/qeK48ckl+vWrWuff/75av95X35+GQ6vvPKKXXjhhclmrPA6bf7rr7/8z02v8MGr+YA/nLC89dZb/c9NX3/99Wk/JT537lx75513/E8vZ2sGx/IzzvwcNT8rzU9JX3LJJf5nx/nJ6J49e+b5Ce+77rrLNnbi97TTTvM/3Zysm5/95qfNZSIgAiKwthMoUkICweBkgxvmKP1/EcHP/5Yu5YITpQr0U8A//vijvffee/bmm29aixYt7M8//7T+/fvbueeeG93Lt956y5YtW+aFxMyZM+3vv//2+/r06WMVK1a0adOmRWXDwkYbbeQd8wUXXGANGza0b7/91jp27GjfffedL/LSSy/ZBx98YEcffbThRFq2bBkOzfN+6aWX2jrrrBNtb9q0qTVq1ChaZ2HOnDn29ddfeye466672m677VZgx8T1jBs3zh5++GGrVKmSr+PAAw9Mq39FVnCu3bp1s0MOOSSrkIDHiBEjvHjLVnfp0qU9l3LlymUrknU7Ii/bT0HDnnuCaIAZInHBggW2wQYb2BdffGFPP/20NWjQwBAcv/zyi9WrVy8SgJzwlFNOsSuvvNIzp23vv/++XXfddfbII4/4c86aNcsLic0339wLjR49evh73a9fP5s9e7Y99thjedpdv379At+vPAdrgwiIgAgUIwJFSkggGJLjGSnnxEqVKeOReqGRIyhx8skn+57lDz/8YO3bt7fJkyfbwoULbcaMGdFtmT9/frSMg5w0aZIvg7PC2rZtG+0PCzgbHNDee+9tvXr1Mnq+iAEiDMH22Wcfv44Dy88QNWX/jbZQrmrVqlFxnPYzzzxj999/vz8fvWmc1T333ON71URMyvzLIxw0YcIEu/zyy23IkCHegR5++OFePCE+iJLgAFfFXnjhBe+g4TZy5EhfFcsIoFatWvl1HHD58uXTrit+ztdee80zRtytjHXp0sWLt0zHIrowrrtZs2ZGzg2RAsREsLPOOss23XRTq1Kliu20006RkEBoIhSeeOIJf9wZZ5zhD7npppvso48+8stEm7bYYgujDTfeeKNNnTrV+vbta59++qkXKPfdd184jd5FQAREoMQRKFJCgh4nRs6EFxCuB1vaOc2wvSBDG0uXLvUheBwd4X0iD0QIcKrBgmBgHSGB0WslkkEYG2NIgN78fvvt59f5b+LEidEyC9Szww47RNsQEOutt57vteL8OZ4yDAvEbcqUKZHDrVGjRjRUQpnHH3/cCwLExJIlS7yzQkTQmybc/uSTTxpOMW7jx4/3jo4e/4YbbmgnnHCC0Vu+/fbb48X8MtEWnCnOs2vXrnbvvfd63tOnT/di4dBDD007hqGi7t27eycaF02tW7f20ZtQePvttzdewUaPHu1Z7Lnnnn5oqXfv3t75IjaCrUhbEG/Z7PTTT/dRBa4bq+6GFMaMGeMdPqyGDh0aCYdQB+KSe4UIefDBB42IE1EVjIjRUUcdZUSfEH177bWX58o+hBD3bNiwYT4SQeSB+5TJ4lGnTPu1TQREQATWBgI5+vf/wSX+oyWceEicO7me2B1WCUcfc8wx3kHQG//4448NJ/n6669Hr+AwwjEMA+BUGaoIhmiIC46wnfoYtnj55Zdt7NixPpxPSL9mzZp+/fzzz/fbyE/ACLUPGDDARz2IfBx88MHewbGMgxs+fHio2ofdGY7AuW+zzTbeseHEMMbjiYLg9IKwCgfSpn333TesGo4VR0cYP2mIkXfffdcLDzhwDRh1IKbixvDQxRdfbLfccotnSpt4hQhP48aN48XTljkHIoSISps2bYwePpGAuK1IW+LHxZcZmoIxDj1uCEgiCThzzs/9JccDsch6hw4dfHGuh6EvciR4dhgCYugCEYbgow6WYYHVrl3bizu2kydBhIJjwouoFa9VGUryJ9J/IiACIlBMCBSpiISfAvrvTI0QfVi+bLmLSji947YTpXDd53zRkihHeJuQO1EFhjZefPFFO/PMM6PjSMIMhsg49dRT/SoRBRItMXr0lStX9sv8F3q7JG/ecccd3qmTnLfzzjv7MjhvhAfOkWUSMYMxHHLZZZeF1eidIQNyOoJ9+eWXfliGc2DkXOCUguHECNfT5i233NJvJgLDsAECIxhTY2nboEGDfHvCdt4J3XONjRo18kMThO+JNCC0EF7BaBcOFKcaxEzYR9QGnoibbMaQAT132nr33XenRXbCMQVtSyif6R2GDCkFHpRBaCEciLogvmrVquWvDaFE2ebNm3s+lEXskECLUW6zzTbzkYgmTZr4/BeEIddP7gzG0A7DSxjiMUS0/Ab3H1zIr6hTp07YpHcREAERWKsJFCkhAekgFsL3SqTpBrfCvxUxeqZEHAhRb7vttn6YAYFwzjnn+JkdhKpx9IS2ccrz5s2LqscZhnVyFzAcFkMDvHC+OPFgQRQwFECPl94uRq+fMfik4cTi+RE4XcbiMQQDQoioRTBmjWC0Ndjbb7/tExzjww7sI1eE3jIzNuI5FeQRfPjhh37I57zzzvM9dqIvOFOiBsG22247f20Ml8Tt+eef9xEAZjrkZ0Q7cMYkQWazgrYl2/HwRkCRrxA3BNmoUaPsqaee8sNMV199td/N+YgixI2hFsRD586dDR4MSSHAqJu8GqIxHEckieEO7kmIRMTr0bIIiIAIlFQCRU5IEHGIS4VSzpH5UL6fvZHu1DLdNJwtSXCEpYk00DO/8847vZMkM58eI3kI5BKQIMgwAtn+zz33nHcoYXYHIgInT5Jl3BgCIKsfp09ZhjV22WUXH7FgKIGweciz4DhyKA477LB4FdEy0QaiDMFw3uQCIFpwgsw0iH/xFsMVnGv99df3h8CF3APyAJIOn9wOZm8gGuJ5HoiQ0ItGYDBMQZieSA7JiHFL1okTJbpAG/OLRiDcECe77757vLo8yyvSluTBRJqIOp199tleCMb3c14ST2n/iSee6Pkw1JC8Ho5huIUXQgIjCZbhHEQQYghxEaJC8CZfJYhLf4D+EwEREIESTiC3Z17DgIhE+N6/+9DG1k0t88mAuYY0QjMRD4Sw6YmTZY+DJCKAs0UYMGxAVIFhCJLkwtBEOL4g74S3q1ev7mdD4MwY6vj+++8zHsrwBA6dMXyuCyHDuXFshP7pTYdoB2UQQuR4MKQQcjaIqjDFEQHQrl276DzkaTCDgKGcpJEbgDMkapLNCP3DiXYwHJPNSEhkiACeCBemV2YzEiiJxlBvrtkr8ToK2hYEHjkNxx13nJ9qG4YZ4nWxzPAVYoakW/gwpJEcognHhFwY7iHiBhGC+Pz999+9wGSZV4gIheP0LgIiIAIi4DpgRQUCvT2GNZilQRQiCIdFS933SLivXPACwzlUvy+fRjPbgUgDxvAA3w2BMx04cKDfhnhgNgfh6RtuuCEafmAnsx9CkiTHMDQR8hV4Z5wch5qMUiAk6MkmHQ0RCqZx0ib24fgRNITSGdtnyuajjz7qcxYYtyfMzjpheZw153/ooYd825lhQF3BGSI+GC5hiivRlUxGAiHHJ43wPW0huZDcD+rI1FuHH+KBSATXTK4JQzrZjOgM0Q2cPJGZglhB20Jd5HYwpMIQFVGfXAmNiD1EHF8qxYwSniHaiHDo7CIQCB1yRLgPXB+zNJjSijhhyixMeC4Z8qIekjXjs07i1xeiFDxbYVguvl/LIiACIrC2EigyQoIP3/B9EfEP4lLOQQdDZOSyICIox/g2Dp6hDKZi0rPHCdFDZcggJETiHNjPN2Ayvo4RuscphFkVOC2GKJIigrLsI8mSHi1fSBVs8ODB/ouOEAT0bsMwBVMsGUrBUTF+T95BMM57/PHHh1U/Lt+oUSM/BBJ39izjWOOsooP+XWBYh7H9pCFwGP4husBQSTZjCIX8ABxsaHu2smxn5gg5C7mGNOJ1FLQtHEOkhgRHppTmd92hfu4rgpCZI0Q8uP8IoR133DESBEyrJTETxiRWEm0i74TtlIcz5yLCcc0114Sq83zxFvkozB7hXofnKiqsBREQARFYiwmUcqHf1IqEoFcHC/1o1+qgqjpFQAREQAREYPUTKBJCYvVfps4gAiIgAiIgAiKwOggUuWTL1XGRqlMEREAEREAERGD1EJCQWD1cVasIiIAIiIAIlAgCEhIl4jbrIkVABERABERg9RCQkFg9XFWrCIiACIiACJQIAhISJeI26yJFQAREQAREYPUQkJBYPVxVqwiIgAiIgAiUCAISEiXiNusiRUAEREAERGD1EJCQWD1cVasIiIAIiIAIlAgCEhIl4jbrIkVABERABERg9RCQkFg9XFWrCIiACIiACJQIAv//Raz/8HL1Wxv/IXydWgREQAREQARWgUCREBL8umJF96uXaZZya6XStkQrc90vM8pEQAREQAREQAT+ewJFb2gDAeFs2bKl/yy4/1PLU7Z82fJovSgvTJ8+vdCb99lnn9m8efMKvd54hbNnz7axY8fa0KFD45tXannChAn20Ucf5Tx26dKl/ue6f/zxR/v444/tpZdesvvvv99at25tl156qS1f/s89Hz9+vI0YMcL/bDr7O3ToYDfffLOv/6GHHjL4rIqNGjXKPvjgA7vtttsy1rVgwQLfpnCO9957zzp27Gj8BPq5554bNvv2UpZX8n5NnDjRl48KF3Dh77//thdffLGApf8pNnr0aCPKJxMBERCBNUGgSEQkwoUiGJxssFKlSluZsv80LZVy66VLueBEKfPLLnqRy8aNG2c4RiIdSVu2bJlts802Vr169eSuVV7v06ePDRgwwF599VUrX758VN+kSZPsuuuus6eeesoQGs2bN7eRI0da6dIF03E33nijde3a1XbZZZeozsJcwFkNHjzYFi9ebG+++abts88+tvnmm6/QKRYtWuTvz7rrrmsvv/yyZ7/tttvanDlz/L1o2LBhWn333nuvP+eGG25oW2yxhRcSNWvWtBYtWtgBBxxgO+64Y8Tn999/99y++OILe/311+3555+3atWq+fpwmNm4cK//cNEr2kAdvM+dO9c7ec7LfcDuuOMOO+KII+yZZ56xDTbYwAuCTTbZxNZff33P/dZbbzWEABbuZe/eve2VV17xgqlu3bp26KGHWq1atezBBx/05fjvq6++ipYfeOAB23333e2ss86KtmVb+PPPPw2O66yzji1ZssS4/02bNvXtnjlzptWoUcPKlCmT7XB/Hccff3zEKGtB7RABERCBQiBQpIQEgiE5npFyvdJS/35oeqFRAN9L7/b999/PiAeHULVqVevfv3/G/SuzEQfcvXt336N++OGH00QE9fGhT+81LOPQMokInAa9cxxI3KZMmWI//PCDrbfeet7Z165dO+Px8WPyW37uuefsm2++sc6dO3sH3r59e+/8H3nkEevRo4dtuumm+R2ecR8RA3r09MaDvfXWW1apUiXvYJNC4oorrjBewTp16mT77ruvHX300WFT9I4w4foRiBhlEQkXXXSRER1AVFSoUMFz33nnnY0oxcCBA71w4Fq23nprLyDgeNBBBxllEAzYzz//7F+hB9+3b1/DWe+2227WoEEDmzVrli8X/uPcCAuEIOLgpptu8o6eKMqvv/5qxx57rMEzHqng2HLlykXnDHVle6fttAMLPGkL4oJnl+vbaKON/P5LLrnEXyfPIIIQLlwTUZZwHzfbbDMvvvwB+k8EREAECplAkRISRBwwIgleQLgee2nnhMP20mUKoCLc8fT6svX8CEmH3qw/mfsPBz5jxoyMvTzC78ny4TjeP/30UzvnnHOMXumgQYNsyy23jO/2y9SRFAd5CrkN9J6vuuoqK/tvNIYyYajkhhtuMHrs1PX0008X2CllOs+3335rVapU8bvq1atn9L4RApx7Ze2YY44xXkOGDLFhw4ZZr1690qpimAJnFyI19P6DMKAgwxq8EIHBEB/09Js1a2ZjxozxTpJhjkaNGvllyiPKOBfRA5wuUYCjjjrKjjzySH8vcL5Tp071z0O/fv28iOBeh/O8/fbbPhpBJARR0rJlS9tvv/18E2CdNKJOw4cP9/cAIdS4cWMvJHhG5s+fnywerVMXbSmIIUJ4IQq4Ps7B9WeyCy+80DNFSFE/z84111zjGcAJ7mGIKNPx2iYCIiACq0qgSAkJfzH/JlmiKdIGJv7dvioXTPidnlo8/Ex99CQvvvhiXzW9VoywPMaHM6H0uPHBTJgdx/TOO+/4XUQ4soWb4w40Xk9ymeEEwuXBEDgXXHCBd3qPPvqo4fTjRm+Za8p23jAURC82boyhEz3AiIzQm8YZn3DCCVGkg/A6TiwuauJ1sMx1wSkMIdGea6+91urUqeMd8uGHH24nnXSSFxa0/+STT/bbOZbhiCBmWEeEHXzwwf7FOkYkASN3g942Dn7atGm255572tVXX22IgLPPPtufk7b07NnTl2foKm533nmnXXbZZbbXXnv5YSfq++6772yPPfbwERMc9mOPPeaFCBwQKxh1J41oBUMNRENee+21KH/hjDPO8FGMZPmwTvsLKiR4BhA/DL8sXLjQV0EUAqHJ9XPtgQ3RFYz6iZQgrjBERIi6+A36TwREQARWE4EiJSS8Q/pXPYToA0mWftltJ0rhvNZKo+BDljAv0YO44XiCA8fBEJoO6/FyCAicFU6PD24cDT3C0047Lasz53gcMiH+bIYYCD31UAbHSDtwBuQs4OySxjDKs88+m9ycto7DJjcj2Pfff++jL4Tugx122GFeWJBwGHrjiA2SGnMZQ0i0EeFBmJ0QPO8IkFNPPdXnHzBef8stt6Q52uAAQ/2UYWiDoYdMhvMnkkLUAQceDMdKRIVwfiZH/ddff3mxd8899/hDyIUgEbSzG9bhuO233947ZUQXvX4iWQgMrqlixYrhNP6dex4EJ8NLsKrh8hUYzuB5+fzzz/OIzlABorAgUSnKI854JhARPAfYxm5WE+IBgcAznDSGWhAatIH281yccsopyWJaFwEREIFCJ1CkhARXF8RC6OWm6Qa3wr+VMXp4JPiR7Z8pP6EgdXIcY9P0SHEiOK6Q+5Df8cxiyDY8gsMmcS+es0HPnmEGeqR33323XX755X5II3kOhAavbNeDc0yGtUmqxPHFnS7LRAuYHRCEBOICh5st2kFbCNcHAUTUhojKfffd54cX2rVr55uLAyc0H7cXXnjB52LEtyG2EHrdunWLbzaGErC4kOKacOrMjEDAcF6iCPFrCpVwf8gVCE6c54phomAwIprAUAgihWhVKE/EKW7U37ZtWz+cxXauA+FB20mGRAhlM4REfizjxyF0eSEiEBQwQBRku88cSxIp4i383bAuEwEREIE1QaDICQkiDnGpUMo5bz7s3X9u9kbplWJCoh6Rg+OOO85wkKtimcLd+dWHs2UmB+HopL3xxhveqSEWMBwk0y+7dOniHdOVV17pnQ8OIikIKJ/JcbI9m/3222/25JNP2uOPP56nCHkFRBBIJkQs4fRyOb7gnKkMLqeffrqfdoizZZomwwTMyEgaCZWHHHJI2mbG9RExiJy40RYYkgPx7rvv+lklOFmGeT788EM/XEF5REBIQIwfz7AOjn7y5MlWvXr1+K5omboZ/sBRIwioh7YjkhhGiRvtJi8mbhxP1IcE1mxTNbmGTEKAHJiQtBn2I3oZIiLKQoIthphs1aqVjzbEzx2WEULkney///5+U5MmTcKu6J1IGs8Xzw1Jois6MyeqSAsiIAIiECOwcp45VkFhL9Kj8k4T8eBs3dSyf3pZbvuKGr1RPqRPPPFEn3yWyZlTpxcq+VSea38+h/rsexwu4/9xYzooPWOiJCEKgKPEAd9+++1+WCHuyDMJiXh9BVkmWsDQA9MQk8Z0S0LnIecjub8g68xMIGGR6Zs4e6Ic8TyIUAcOmmGF+AunxvBPfBvLMKBnTiJj+G4Glulxk3dBDgaGWCCCkzSSEEmk5Hspvv766+TufNdpU0ETUMmzQbASOeE5Sw6LwJZhpbgRRUEccI0hksB+kmkRBOSAkLyK7brrrj4aQgSKIYykMfSBUCBPAuOZjxtCBhFB9ItzJvN+4mW1LAIiIAIrQqDIRCRw1gxrMEvDRx7+FQ6LlrpIhJsN6QWG+5AuaFQCh0YUYu+99/ahYfIMshnlktNFcYTBcAyEvzMZH9AYDiTu+NmGU0bIMF4d9gVBgHNkmKFy5coU9UZ+AKIi9PRxCswwoB4+/FfFyCVgZsYTTzyRsRr40tvGGa6KkXtBHgmOlLF8IgHhOz2SORewQADQE0ckBEbJ85PgyNAAwxgYORKIAvIU6tev77eTQ0FuQCZjdgU9eyImOHSGWoj2BItHdkiixZGTeIohEGhj0phGTPQhRCCIaCCEuAZEYph6GY4j8RQxwzRT2CAqGNbi2WvTpk2akGCIBIGJCOK+URezOGg/Q3PwQDjEjdwI2s13mDCFt3oi+kK7GA4iysE1ItJkIiACIlAYBEq53l3qv87u5sMtz1dkh6sjMJEIRvAV2TiEXEZEIjljIdMxjEPnZzg6etuZDOdGkmKjRo0yznDAESWnhBLOztRTT9ZP4ifDEYTaSZoMoe9kuYKuZxI78WNx7Kt6DurDWTK9EgeMAyP0z/0KkZdwThwbXwrFO4xIyMx0v/gSKoQXwyS8aCPRHIaE+N4NhgGIHhBxyS9cz71ieiiiIlNUBifNsEt8dgxijiEUhsSY+YGRR0GSJm0mMTJEQqibpEuERCZD/MCF543rhEem9iKqcfZ8Yyd1E+FJPkPJ+nnWEVgMDWVKxqQ8ERCGYLgXTFnOJtySdWtdBERABPIjUCSEBI4nHtrNr8Hs44M2W/JirmO1XwREQAREQAREoPAIFAkhUXiXo5pEQAREQAREQATWJIEil2y5Ji9e5xIBERABERABEVg1AhISq8ZPR4uACIiACIhAiSYgIVGib78uXgREQAREQARWjYCExKrx09EiIAIiIAIiUKIJSEiU6NuvixcBERABERCBVSMgIbFq/HS0CIiACIiACJRoAhISJfr26+JFQAREQAREYNUISEisGj8dLQIiIAIiIAIlmoCERIm+/bp4ERABERABEVg1AhISq8ZPR4uACIiACIhAiSYgIVGib78uXgREQAREQARWjUCR+Blx/WhXwW9iYf1CZ8HPqJIiIAIiIAIikJ1AGfcTzJ2z/UR29sMKd4/7KXP/M+Lly5e38Fp33XWtfIUKGdf52Wl+WjubjRs3zh555BE78MADfZG+ffsa2+rWrZvnEM59xhlnGA56wIABtvPOOxs/t83PU0+bNs3/3Hfnzp2tZs2axs+tv//++7bNNtv4eqZOnerL8bPg8Rd1VqpUKdo3YcIE43r4OW1s1qxZNnbsWHv11Vft/vvv9z9rTf1x4yfElyxZEv1ENW168cUXbfjw4f4ntatXr+6LX3LJJf4nrTkfNmLECF83P0PNz7OPHDnStttuO6vgWHbq1Mn/tPcOO+zgf4qb9nPdTZo08T/nPWXKFNt00019PZn+++ijj4yf4s72M9UcM3nyZOPnsgOjTPUUxjZ+svsP93Py+bVlRc7z0ksv+Z8A33///aPDjjrqKDvllFPy/Nw2z9K9995rjRs3Nhg+88wz/mfme/fu7Z8Xfko8+TPlEydO9D8fHn5yPDpJjgWedeqrU6dOjpL/3z169Gj/a7oVK1b8/0YtiYAIiMBqIlAkIhLh2vh5cIyfFE85B1eqTBm/7rezz20viOGAcTIY7/fdd593kK+//np0eNmyZQ2B8eijj9r48eOtS5cufh9iYdddd/XOGqeJQ8AhU+fChQutR48e9uWXX9pFF11k/fr1s3nz5lnVqlWjeufOnWu//PKLr3vQoEF+GefesWNH++2334xtlMfZNm3a1Nq1a2c77bRTdHxYwFEdccQRvgzbyjgWOE8cyvPPP2+NGjXydb/zzjtesNDGzz77zLf14YcftgULFthll11mPXv2tIYNG9omm2xirVu3tltvvdUmTZpkzZo1s9NOO82LJ5wVAuCCCy6wXr16ZWwPbaDNXNv111/PqhchpUunj47BZsyYMf6cvlA+/yGwEFLc30WLFnm+iLD69etH5wiHUwa2G2+8sd+EQKpcubIXeAgznpkqVaqE4v4d8cX9nzNnjv3+++/+nTq4Zzj05s2b+3I8F/fcc489/vjjnjEiDoPpwIEDvQik7iBMEV8wo6233XabFxSIQrjyHB177LFewB1yyCG+Hv574IEH/LN01llnRduyLfDcITzXWWcd/9zdeOON/jmg3TNnzrQaNWrkETfxuhA2xx9/vFWrVi2+WcsiIAIisFoIFCkhEb/C0v+KiOXLllvpMs5Z/SsucokJxEGfPn28I33ttdesQYMGtscee3inGa9/xx139Kv09ohU4KQxnAEvnG/ScD7UTxQAp4ptvvnmab3v2bNne2fLvquuusroiRJ9OOmkkwzxgnPHzj33XO/Md9llF7+e/I9oSK1ataLN33//vXf2OL/gAPv37+/roxxihfpbtmxpb731lt9er149e/fdd30khYqquygGkRqiJ23btrWrr7466tHDA5GBQKJ3Tm8WZ40jJvqDU8N5Pvvss36Za4Jbhw4dfBsRYzh0hMuMGTOsa9eu9t577/l2EQ1p06ZNJALCRcGuRYsWPiJDGRw5YiiTs8W5nnDCCb4NOFnEAYYQISoBEyJL2EMPPeQFAGWIsGy99dZehBBxOeigg3zUCcGIwa1bt27+mcFRL1261Asav9P9h3hEkCxevNhv+uCDD2zo0KGG+CDqgmgietWqVSvPHfHBvUOYxI2oXzhnfHumZcQLzxmGIMR4jrluRCjXFyJyPItcJ+3j/tBW2jBq1KgougQfxKdMBERABFYHgSIlJOhVJi1tm9uftp4s7NaPO+4430PkA5+e2aGHHmrdu3f3H7ah98yHKhECHCs9RRwmPVUcTe3atf0wAB/6OK+ksZ0oxv/auxN43abyD+DrTshYMoSEikQqMqXoIiXRqESRJpnpT0nKkOY5KZqkQSoqcyHRJEJJmcpwDZmSOfO99/9+173Psc9733POe67T8Z5zn+d83rPfd++1117rt571PL/1rLX3Vo6f/vSndbri5ptvriNE0xMczE477dR3GkfH2HMCQs7y3HzzzesInONFPBAAjhsB4pSEy5XlPe95Tz1PZELkglO56qqralTC1MWxxx7bdx1fEIBtttmmOhlO2lQNB2/kfv755xcjbZEIjsfIHkkQVZHv0UcfXZ2qSAdnROwXNXjggQeqg42pGfsQkWa4XVifIBEEYZKP9lDOH/7wh5Wk1IOz/ynDuuuuW53goYceWsvDicZ1mmmRuHPOOafu4jA5alM2ph7axZQEjJdZZpmKHzyRE3U1daWMF1xwQT1t/fXXr072pJNOqvVXjogk0BvTFzH1BweYwZksuOCCZf/9969kRsQIsUB26ADcmyQRQaED3QiS6QM/baUMCEsn2WWXXer0HyImf7qkTDDQlqInPimJQCKQCPyvEOgpImE6w+QGhz+9ZXgntYzihImmOWbW8HeNTAyBBAdqvQBHx8m84AUvqGdwpEEkTDGEcNxGc69+9aurcxFWN2o30mb8m3LhhReW0047re7iKE13cFaXXXZZJQDyRwA4HMJZiQ44bn2CCECMMEVA9tprr+psEBAOzFbYWvRBJAPBET5XDwQAmRDmtqbBdIjR9dZbb12d9Kc//enqxFz3DW94Qx2Rijxw8BwMJ2d9hZA3p8k5cXjC9dttt111QMokv1gnIUTv05R11lmnfP/73y9rrbVWP1JnVE9EgYiIDlJDOEOj9E5iymHvvfeujlc05KKLLqqRjpjCiHM4cO2ibIgGYmJrqkV7CuOLepD29Rmf+cxnKrFZe+2167oU0RSkSqTq2c9+dkE6ld+0xIEHHhiXrFtYEvVVTgQFkbROQhRHmREG0RxiDQ0yevDBB1dnbs0PQX66JRKiZMgP8iQiQkQhYABHeiTKQhAjIn9lCJKDRHQbAakZ5L9EIBFIBOYSgZ4iEhNajjhiEkhECDLhr1s54ogjqiMWDTjuuOPqadYIGLUxzhx1iBAxh8DIM9rC1iIV1kZw5tYV2ErnXIRD2B4h4MCEjTkZxzlBBCMIi2sYOctPPqYHQozEOabmqHXjjTeuhxEQI1Ll9bE4UuRCeFvkQjieQ+Ok9thjj3oOMsBhO95aQFvL5xrICafM8XBuHJQ8icWTRq4cX4hR9kBihKyMRvZw2nLLLfsl5aCJNEEi/FYuBK9dRFeMqJED+CiXqRiOUtshLSHqKgKCWFlPEYI0WNOCgHUSpM46kphqEN1Rb1jQibPOOqtvPQZSJYLVFFEQBAxRoyNG90iEMiMUpnp8V5d99tmnEkIRGNEl0YEQpLPZ/rG/03aFFVboWzMSUyrRhghCpwWmMQ31l7/8pRIk5eoUrel0vdyXCCQCicDjQeAxS/d4chnJc4UkJjyWYUQm7JnRcmTIxmDCyVpsSDh7Dt5iS47Z6NoIzlx6hOWtdUAgOCejOg4BceCQOQIOGNEwd/+KV7yiOkTHiNtWOWrTJEaLRtccl0WMxIjQ1Il1AELoFiIaUTanPmrCxj9REKNK0xIhnCcnazpFXjH1YBRucaS0Rt3qZdRuPYZpF/Xy4cRC5BVhffuaTjnSxFZaI3JTQeosqoOkIAYwRUKCNJmyQQBI1D/yQV4222yz+Fm3pnne//7310+M+iPBBhtsUD760Y/WuxViHyIR0RFrGbQVx9x+bqSPrYgFRx9OHIbNqANsrOtAArRh+/oMdSWIm6iAayN/1iqYMgpnzfnTN1EjYrorold+u47pj27E2hMfJEL7ICWuE1h3ysPUHH2NqT+/UxKBRCARGA0Eeo5IzJjZulvDX8vgkxqZaK3Yr1MeXRhiYWGjR0acQzWtEI7baBvJMP3ACQqNG/Uy8hyGESYSQYxCOWdRBnnKqynSiVBMmzatThfYupZ8OW+ODllh3E2zGBG7BiJhSsGo2Kieo0MMTFcQo+fllluuEhS/3a1g8SenRUxNhJiK4GSI8pn7t/Xh9NVNZKUZUjfSD4fsvMEiEEa3HGQQJw7eCJ2DU8dwbMp48MEH17stkK7YL3+ijlF+aaNtP//5z1eMTPu4G0Ekw6JJZdZGMGyWXV0tQjQid5wEmRgojM/hw137rLjiivWc5j8EIUSE4pRTTqmLZD/1qU/VSI5Fi6Zr4q4ekRPkxXQIIoT4mSpCtrQx4mkRrLUeTZGuHRfHTT8hm4ccckjfccQLYbNoMtrHNJgFnaZjOol6WBMUt6+GPjXTumOIzsHU9TpFiZrp83sikAgkAt0gMPjwvpscRjhNNbYtZxMyuUUs6q/HdsWhjlu3TVqER8yJc5xu2eQQRQyMsi0s5DQYdxEJdwtYEyFkbbTubgNOTBRDuF4ekSdHKOqANHDqyISohxEzp+a7TzjLiHwgFEiGdQ0W4kUI3fdwivLmLN/2trf11e3SSy+thr+T0Zcnx4dQiGJw1somQsEJIUa+i6YQ9RJFaTpPI9f49F109hf1cP3mmhKHLD5srmEwErdw1F0qSFH74j6jamRCtMgCRmINBWICexhyyhwy0sYpx10KNXHrnzIgEW6zlEYEAbbWOoh2yLuTiOSI4pgCijttOqWLfQiJdTWx5iH2x9YUUrSpffTDepV3vOMddT/yKTITUaM4D8FoTqnZr+2RA5GK0Bf7TY0gBEib9iWmbxBSOImctIv2QBSi3O2RGrqORFgz45owTkkEEoFEYCQQ6JmIBCfqM2vU9tjcxvTW7Z8TWg7TdAcH1TS4nQBoHucUjHrd4cCZiQQQzpTTNfJHMNwmyXBb+2BNhdErRyXkbeTNWUnLKVkUyVlzXELkRuBGiaY4PGugORK0OJPBdg4DL8Ru1M2pRLRCndVLVMTIl0OWB0JkZIoEuKWzfTRrKkFURF5EPvI3kiZGsub8zakTUQTHrMtAQIj1CfKO61t42hThdQ5fBAMpU0flFLZ3N0bkDWekRRnlhYQ1xVoKRA3WpiyaYqpJBAkR4yAPOOCAeh3t1hR1sx7CVI46G327q8WzOERxON0gZ83zfFdneCABzrXQVPsOJKIO6gNjbd0U5yJXxMJKxy381M4xpWaxL904uBWliQeFmRZDZuieCA9SYXpHG1gk2tRb02Dan76JYKk7Uqv88BO9aRI5ZRE9QkAQLcS5PfqCrGgXBFN/QKRTEoFEIBEYCQQmtEboMwcKC4/EBbrJg3FbrDWi4gybBtW5zX3x/e6WwwkH2il/6xyM7I2QORuGecMNN6xbzv3MM8+szsDozPQGgmGBplEbg23hntX8HK5FbEZyIhJGvkjBMcccU2+L5OwimqAcnCxhsK1RkCdSYOTNwXJApkoiMqI+hGPh7ITgjbwtfkQijFg5IqH+dlyMhEUYPEQqnpDJkcYcvSiKxZbqTjhFiyQ5M3kZvSoHp4k47bjjjtW5fO5zn+ubVqkntv6J1CAtysfhc2IWmHZa9Mehw6r9zgmYNKcpIm9bRE19ODu4W1zaKa3yIg0wkk50ZzgCA9EbpAKmTXG3ikhV9AURBbdy2gZhifTaBXmAhUWl2hFuyJKIF2LEUXPoTREREfFCak250ItOkSb5cfZIpGgN3XV30GAi4oOIIn2d2sW5UW59RwSl2zUbg103jyUCiUAi0BNEwiit3VEO1jQM7RP11D5hfOQjJRFIBBKBRCARSARaEwa9EJHIhkgEEoFEIBFIBBKBsYlAzy22HJswZqkTgUQgEUgEEoF5E4EkEvNmu2etE4FEIBFIBBKBEUEgicSIwJiZJAKJQCKQCCQC8yYCSSTmzXbPWicCiUAikAgkAiOCQBKJEYExM0kEEoFEIBFIBOZNBJJIzJvtnrVOBBKBRCARSARGBIEkEiMCY2aSCCQCiUAikAjMmwgkkZg32z1rnQgkAolAIpAIjAgCSSRGBMbMJBFIBBKBRCARmDcRSCIxb7Z71joRSAQSgUQgERgRBJJIjAiMmUkikAgkAolAIjBvItATrxEfSy/tmjfVJGudCCQCiUAikAh0RqAniIQ3f3qNeFO84bP5RtDmb68RT0kEEoFEIBFIBBKBJx6BnpraQBZ8yMwZM/rQqftm7+/bOciX++67r1x//fV9n+c///nl0ksv7fvtVeADiWudeOKJpfVW1DmSTJ8+vfz2t7/tt//iiy8uZ555Zr99j/fHbbfdVpT573//e/n3v/9dP//617/myPaRRx4pPj/60Y/Kl770pfrd71NOOaV87GMf6/sdmDYzOPfcc8u1117b3NXvu3p+8YtfLA899FC//V//+tcrPv12tn7cfPPNfbs+/vGPP9aOLTxvvPHGcsYZZ9T87mqQQO0AvxmNtu7LZIgvl1xySbnyyiuHSPXYYTj+6le/emxHfksEEoFEIBEYEQR6IiLRqSYTJ02qu2dMn1EmTmrxnVbUopKL1nYomTZtWjnrrLP6Jfv5z39eFllkkcKBbr311uVNb3pT33EOjQNedNFFy8SJE8sPf/jD8uijj5all166cODbbLNNTSvdkUceWS688MKy995717RPbkVSdtlll7L88suXVVddtS/P5pfvfe975W9/+1t58MEHK0GR91FHHVXmm2++ZrL6XZo3v/nN9btrkYsuuqi4NucZcs8995TXvOY19ecdd9xRtyeccEK/3+E4P/rRj5aNNtqoIFhTpkyp1/3sZz9b9thjjzL//PMXxGXy5Mnlec97XmRf1ltvvfK73/2u7LvvvmX11VcvX/va1+px5Ib8+Mc/rttNNtmkvPvd7y7vete7ymtf+9ryyle+shKrF7zgBfV60rmu3xtssEG/KBNsd9hhh/LXv/615jXYP2To7rvvLvAmv/71r2v7POtZz6pES/TqaU972oBZqOOXv/zl8vKXv3zANHkgEUgEEoFEYPgI9BSRaE5lRFX67Ws5i36/I1Fj+61vfas6wMau+vX8888viy++eLn88svLoYceWi644ILymc98ph7jMD//+c9Xh2cHp33IIYdUp8ihhiAa3/zmN8v//d//1fMdW3HFFauz/fa3v104506y5pprluc85znlSU96UpFuueWW60gijJo/+MEPVmf3oQ99qBIWhMj+V73qVf2yVpZzzjmn7lNnRAihIUb/f/rTn8qHP/zh+jv+iVqceuqptX72HXDAAdX5LrXUUmXTTTftRyQuu+yy8r73va+m/e53v1sxQ3yuuOKKstNOO1UMHOfIQ5Zccsly3nnn1Z+I06tf/eqK6UARG+RloYUWGrJNZYiMvO51r6sREuQnyNNhhx1WllhiifKWt7ylvPWtb63XPvvss8vRRx9didvDDz9czxEVIVOnTq1bhEo7tuNaD+a/RCARSAQSga4RmNAK4c9ceOGFuz7hf5GQkbdGQsTBxIaowPTWqH1Sy9GQmTNmTXnUyETrtzUST3/60+uxTv9EHYTMQ4zst91227LYYovViISRczMiEelie/XVV9fROqdriuOBBx6oo984bnTcJDQ/+clP6lTCaaedNmi5RBGM2EUORDv85iCXXXbZmjXH9sc//rFGCZ7ylKf0OUDO1mj7lltuKQcddFDZfPPNoyhFWd/2trfViADC0RTHkAQRmLXWWqvv0MEHH1wJ0I477ti3zxf1XGCBBWrdjN5PP/30Oh1hqgSZCHnZy15WfvOb31Rituuuu9YIyhZbbFHTiC6YVjnwwAPLS17ykrLllluWn/70p3FqJVCuQf7xj3+U3XbbbdhTQ6ZbTLs885nP7Ive9F2g9QUO//nPf8qCCy5Y64MAiVK9//3vr9hrP1Eh5YiyNM/P74lAIpAIJALdI9BbEYkWgYiJiyARqjJhYisS0Xdk6Mrdf//9pZ0cGcHb94pXvKJurXeYNHv6xOjVSNtx+5yP3AjHE1GC7bbbro7yTz755Lpvzz33LEbgBJF4wxveUL7//e+X/fffv+5r/uO4kACREIQgymbKAvmISMbnPve5YhrEtWPaopmPaAgHGKIOr3/96+uUguhIO5E49thjK4lAJkKQrJ/97GflxS9+cSUtb3/728vKK69cnT2y8I1vfKOsscYaZa+99iprr712Pc10CwIjUmNqw3QHvNRntdVWi6yLyAjyIVrwyU9+si9CIlJw++23V4KEvPiQcOb1xxD/rK1QNlElxMr0k+1NN91U8za19N73vrfmol2ibURmEKeISDgnJRFIBBKBRGDkEOgpIlGrJSQRbKL1tRmZmNFynBNaZGMwsXCP42sfaRqVxj5RBmnCqRhhr7LKKjUCINIg5M7ZW2PAMYqQEM5KuJ7DlwdnZRHnU5/61LLffvvVMLn1AuHEnMPxcric66233mpXnbpAUu68884+Z21/XOef//xnOWf2tIX9IeEM/UYigrQgMUjJF77whUqUHDf9YLpCBCSiN1dddVXZZ5996hSAdRic7M4771ydszysZ3jGM55RcYgIhOgHEmAKw1aU5gc/+EGdSkGKELQQ5TF9Y/2HaRW4HnHEEeWkk06qU0cWkCJyIaYdTFN0I9ruuc99bsVd24UoL+Kz0korxa5+W9M3cNFG6qLdrJVJSQQSgUQgERgZBHqOSMyYOaNGH2LqoEYmWiP6OuXRihYMJZyY6YF2EYpvOq0///nP5VOf+lRNtsIKK9QpAgsSEQ6LAK05MAVhvUFMJSyzzDLFJxb8cUpG6hYtcqCmGL761a/WEbCMRQisI7DewjTG8ccfX0ftHKG7IozsrdmwANA6ihBExqddIoJivzped9111cFLazGhBY8iGdZCICntwqHGwkhl4eTJL37xi1r+SC8/UQyRFhEHZEgkQB0RFOsLREBEWawRCbEWQqQCQRMN4bDhGG0Z6WIrIgHvbgSR2GqrrWpSWJreUA4EaCARCTJ1pD5xHWVOIjEQYrk/EUgEEoHhIzCntxp+HiN6hlF58+6MyS1i0XJFrYUSrcs0IhUDXZSjFDUw8o7RsrsFQqwD4HyskwjhKK2jMIInHD2HuOGGG1ZHFOmaW6Npd2686EUvqiNvx0x/uP7hhx9edt9992KBp2tzutYpKBPhFNddd9363R0hbqmMOzTsNMo29dAuFkCGvPSlL63XVgbCWXPgPhxsJ7HugVNFHNwyetxxx9U6IwhNQVgsbBTl+MMf/lAjLKZERHvcGvvGN76xfpePkb6pEeLOGLd+Oi4iAUMLIQcSUZWBBMlZf/31+xEsUycWq8oTiSJBJmK6qJkfTBC5uOvGMWtTmmLK5CMf+UidzkLorKVJSQQSgUQgEegegZ4hEkaPPrPC+48xhumt2z8ntJwfEsGRDTS6bVbZaBU5sHixXYzKp85euR/HrInwMXo2chXGjzsgIk1slUFakQpTGKY0Qizuc5skMiEyIHrBAXP2RvQWHxIO1F0ZpheE3tuf1eCuA7eYRgRFeiNrHyQppEkALC60RsN5JEhUpLUNgvHLX/6yWBuBBMT0SDOd70EafLdw0lSHKQ1TPUiQxY7WiXDsEdmxL8psOoWThsFAwqlrJ/WP8xA0hAGxat6qaVrFtZTdolnlsb4EWdlss83q9FEzfVwTxo7DWX3bcRF1svAWaTTNg0A1cY18cpsIJAKJQCLQGYGeIRJNgmBxZciM1ug4fknTTBdpBtq2jz6li/UCzXPc0ZySBgIAAEAASURBVMCRbb/99uWFL3xhvT2Tc/OQJSSg6XxMZXDswvicsAhHrLWQp2kPYX1O27UQBo8AtyhS2Tk+z3VAWExtkHCi8jXfz6mZ8jAq5/zcUulOCCSiebtlPXn2P6NujnDFFVesRAcRUIdOeK2zzjrFbZPWXHCaIiLWb3iOhGgNZ37wwQfXOz1MP3D2FkzC4wMf+ECt/3ve856ad0wtIFemdYi1EciAKYggT7OL2W9jSsk15Y3cIR7WpbhjRXSjWVdETKQGUYOr9RzKAFfTROe01pS0EwmRpWOOOaZGX9zhoS3axbWsHYGb68cUSHu6/J0IJAKJQCLQGYGeIBIiEcN57LX0g0ksWuSM24XzbHcWfgvzc0ZumeRQTD9YHxBOXj5C/Y67Y0BoXXSj3Tlx3u5uCEe48cYb9ysCh+tWSdMgUc5IYFGmyIJRMUceayJMj5hSEAVxPbcxmi4h5vuRFgQkRPmkR6Q6LUK0lsPCR/hY56GOHHo8kAr5kC+CYSoEaUImrMsQtSHKrnxImAjFJz7xiX53lMDPWg3TPAOJ61jTIsqBbCEKnu3hbpF2bPwWpUAaRCdEghAWYm2LT7sog+iFNSqmSdrzlN66C5Ec5RB5Cczb88rfiUAikAgkAp0R6InnSHQuWm/uNcpuRih6s5S9USpRkXDenD/H3mktQ2+UNkuRCCQCiUAiMDcIJJGYG9TynEQgEUgEEoFEIBGoCAz+UIYEKRFIBBKBRCARSAQSgUEQSCIxCDh5KBFIBBKBRCARSAQGRyCJxOD45NFEIBFIBBKBRCARGASBJBKDgJOHEoFEIBFIBBKBRGBwBJJIDI5PHk0EEoFEIBFIBBKBQRBIIjEIOHkoEUgEEoFEIBFIBAZHIInE4Pjk0UQgEUgEEoFEIBEYBIEkEoOAk4cSgUQgEUgEEoFEYHAEkkgMjk8eTQQSgUQgEUgEEoFBEEgiMQg4eSgRSAQSgUQgEUgEBkcgicTg+OTRRCARSAQSgUQgERgEgSQSg4CThxKBRCARSAQSgURgcASSSAyOTx5NBBKBRCARSAQSgUEQSCIxCDh5KBFIBBKBRCARSAQGRyCJxOD45NFEIBFIBBKBRCARGASByYMcG7VDN91006hdKy+UCCQCiUAikAiMJwSWXXbZJ7Q6E+69996ZCy+88BNaiLx4IpAIJAKJQCKQCIxNBHJqY2y2W5Y6EUgEEoFEIBHoCQSSSPREM2QhEoFEIBFIBBKBsYlAEomx2W5Z6kQgEUgEEoFEoCcQSCLRE82QhUgEEoFEIBFIBMYmAkkkxma7ZakTgUQgEUgEEoGeQCCJRE80QxYiEUgEEoFEIBEYmwgkkRib7ZalTgQSgUQgEUgEegKBJBI90QxZiEQgEUgEEoFEYGwikERibLZbljoRSAQSgUQgEegJBJJI9EQzZCESgUQgEUgEEoGxiUASibHZblnqRCARSAQSgUSgJxBIItETzZCFSAQSgUQgEUgExiYCSSTGZrtlqROBRCARSAQSgZ5AIIlETzRDFiIRSAQSgUQgERibCCSRGJvtlqVOBBKBRCARSAR6AoEkEj3RDFmIRCARSAQSgURgbCIwuVeLPX369DLj2qvLxGuuLZNu/FcpM2eWGUsvXWass26ZvPRSvVrsLFcikAgkAolAIjBPIdCTRGLmww+VGWecWWZ+/7tl5l/+WsrVV1ciUZZfvsx81RZlxuteWyZssnGZMN/8HRvroYceKvPPP+uY7zNmzChPetKTOqbtZufMFomZMGFCv6Ty/e9//1sWX3zxfvsf7w/53nvvvWWJJZZ4vFnl+SOMAHJ7zz33lKc85SnDzvmRRx6p7TpcfXHNSZMmlYcffrhMmTJlDj0cdkHyhMeNwH/+85/a79ttQjcZ33HHHWWRRRapbdlNemnowMSJs4LH9Gi++ebr9tRMN8YQeDy69URWtTeJxK/PLpMOOaRMvPjiUh59tA+fiddfXyZ++1tlxkUXtnYfVCa+6lXVyPYlaH25//77y4EHHlg+85nP1M73ox/9qCzdimS84hWv6EumU1511VXlX/9qRTpmy6Ot6zDWCy64YOwqz3rWs8rTn/70cu6555bf/e53Zdttt63OQIK//vWv5aKLLirvfOc7a3rnPfOZz6zXP+aYY8pKK61U9995551lscUWq2UJR/SmN72p2H/UUUeV5zznObUOr2rVhUybNq2ceeaZZffdd6+/h/sPaVIXdZw8ec7mVUfCOfl0KzBYZ511+hnATgSr2/yGSgerT3/60xXfpz3taR2T/y+vrw20zTOe8Yx67SuuuKJceeWV5S9/+Uv50Ic+VM4777xy22239ZXr+pZuLrroouXJT35y375VV121PO95z6u/6dopp5zS165f/epXW0G2mX1p3/Oe95QHHnignHjiieXuu+8u//znPythWb5Fnh37whe+UHbcccfSjoV0yvGSl7ykL6+hvtCRI444ouy2225DJa3HTzjhhLLmmmuWFVZYoav0T1Si7373u+W5z31uWXfddUekCLfccku58MILy5ZbbtmX33e+853qyJdbbrmyxhprlLPPPrvvmL51zTXXFO3elDe84Q19RODoo48ub37zm6tdkTc9CnnBC15QNtxww/Lb3/620Ld//OMfdRC08MILlx122KF+P+uss8ouu+wSp8yxve+++8r3v//9QdOcfvrprTHZ8mW11Vab4/zmDn2QLbFVNx9ERt3b5e9//3tZdtlluxpYXXrppZVMRd+CATvrM7eifyH4Tft9dWsAqm+w03NjT7X1JptsUvWev2j2V+XUT9dee+2qI9rc4PWzn/1sede73lV15Lrrrqv64NyVV165vP71r++r3lC6NXXq1Nr+bE6I/A0wF1hggeq7Nttsszj0hG/n9DRPcJEevfW2MvOEE8uUJon42c9mlarVIRELBOPRVrRixqqrlEnPXqVfiX//+99XY8IJbbfddrWRGXfKiu1xsEiGDud3CGUz2tx4441jV+0YfjDSRh8MKmOqM7/whS+sjubrX/963TICiIQ8Lrnkkr7OxihwJjrugw8+WI0EIvHvf/+7kob111+//PSnP61On1ESjSCcFfn4xz8+rFHoaaedVhgK9VxooYXK6quvXt7ylrf0kYZ99tmnKjyDYISLYDVJVr1o45/Oo3yIxLOf/eyy1FKzppUYOoSJM2p3bo3T61ckDPFqFwaKk2x2/kjzi1/8otx88821IzLOysGgwjlEOzKGDP1go0PXOeyww/qRIHkwkhzky172ssiyb6vdtGeIOqrvVlttVXUHOdWhQ37zm99UBxLG0X4EUrkPOOCAfu2qvE2jomzaQ3noqrwRBNciolTy0abtctNNN1WnMxSRMBL+85//XI2tdtd++gRCi1i8+tWvrlnT37vuuqvPgcCOvtPd0M2nPvWpZZlllmkvyqC/zzjjjAHbKNp2gw02qHnMTXtde+21ta/Djq4S+epfwyHM9cTZ/wLbJpHQpiIC2sK22d7sya233tqxP/3qV78qv/71ryuGbBMM9UXOl3DEHA8iQThVbST/sD/aqZMO1BNm/9NH5KPs9FMfYgOaQreiz8LI4IutaBftrtwcmI+62bJJtk254IILav9k20LYWKJMTUGgVlxxxT7skHODnsdDJJAn7RTE3fX0JX12lVVWqTrt93B0S1/QLwkc/L7hhhuqzdEW2geRcOzyyy+vxNJg4KSTTqp25ec//3l56UtfWmCivk0ZSrekvfHGG2t/1R/POeecsvfee/fZsb322qsSJPZrKJ1oXvd/9b3niMTEC/5Uyi9O6xeJKJtu2r/+yERrymPCNdeW0iASGPPJJ59cHefFLbJh1Ed51ltvvWpUNN573/vemhci4BMigsCwGj20i3xe9KIXFY3HUWs4bDSMCAMb353LyG6xxRY1G+Wg4Fg8h+AaIUY0jASFwy59MNDHE5GQt86knljvN7/5zXLkkUf2G31+4AMfqIRAR1A3xtZoul0YAlETBmT//fcvSy65ZF8So3Ujv09+8pOVDDQ7MONE+WMKQCdiTJoKz/AYxXciEQwhMoS4aDPC+OnUTSJhhM4JIxpGac2QL8cZ0whIBgPNgYYwKEYcTRKhvqarbJVfOTiH5z//+VWvlCdGu/JmpGAcAk8Od1orqqTNI+0nPvGJuq8ZkYhzbKNcjJMpOGUjnLw6H3744RUH7YiAatvAG9btRr2e3PYP9vTP6EgZCWy1S3OEyaiff/751QnJN6Ja9Nh5ymbUP1wiEU6lrVj1pz6hHPRQObttr8iLI0Toldd1fLQb50xf2h1ZnNdpC0/nwoqDuP3224vBCSdnSgJh/MhHPtI39ahP/Gz2QIfOEcSZTGvpQURGX/7ylxcfkaWISEgjT8LhR4QL5j7anh7SAyTwsssuq6RPnzXalhfRB2EQekCH7ZM33Q0iwRbQH9eCsfZHFlyHQ9x+++1rfvEvBhkwESkje+65Z991Ip3t5ptvXj71qU+V17zmNZW4GRQZDGy99dYlCGKUX0SCzUSmiH6j7/rAc7i6JQ9607Qv9BRG7HaQZOmGo1t0gD2Wj4Hgi1/84vKlL32p2hq+5oMf/KAsq3Do+g6hB4ganxCRZvuHq1tIC/3TPjvvvHPVQXX54x//WP0QH9T0Ya7xREnvEYmW02rRviHxmNxq3GIRZkOiQxuVYNjAN4Iw1UH23XffRupSGR3DPVSIz5TG1772tdoxMUO/GQkjH0aBoeEUI/Sro8a1KKMOppNTCM4iRIf605/+VI3WRz/60ToKZDTIHnvsUUkQRYyOGOd1u6XM8mH4GNd2gxrrMMJxRb5hRH/5y1/WXZ///Of7OWk7dUgjZlifeuqpfY7NMYaU0YA/0Ql9Qlzvxz/+cXnjG98Yu/q2WPhXvvKV8va3v70aAdchRnHYfVNc22gfmUA0wmDCmQF/3/veV8vHwDCUTdF2SGazIxo1iyYxykRH/dvf/lbbF1FxLcQhRnMMjPZHmL797W/XvBgubRoEQ7kcY9wJ44OEcQyICeEsiPLA3JQakb/zGW9tAC8kkzMIgWUQkdjXaUv/TE3RASN0o0JhW3phpBWCWAW5oscIHxFaH6qfRB6dtp0IunT0hHPWVuEIum0v58NV+yPl+mXkYVQowtOu884ZTIwoP/e5z9U2pYvsCAfPtgiPIwMidDEg4RBha9SJgJgyetvb3lYvgUAqA0EG5ae8dFm+iBNHTg8QvBVnj1qF6ZFjIk/Ejk4YdHBsBilBIqQxUkXyODdt6xpf/vKXC5sSRFA6ZJo9VC4RHPomusDxffGLX5RkDpEn/SXvf//7O5IIxzh/4fuPfexj1Z4ZmEnfJAUcLV2HsXpE32YTg6gi381z5N2twJpNdR39i31rRpPk061uwU4/049f+cpXVt1nF2KtnWuFrslXH0KEYI9UwBTGBivEMVHI4ejW1Nb0hnZESLSDvoJoiTSJoItozW20rRZqBP/1HJFoaRcvNWtxZVR0drg/ftZtiyW3KF7fLkAz+uHM/WZMKMLrXve62tBGkDocI2AUpqGNLMNAaigGO0QHpezOMfqNsD6F0tk5LPlHeNJ5WKffRvBEp+UUIyLBqYfoQPIhHIxzQ6QTAYlRfewf7paxYOiMrsPRfu9736sGzrUZJ9dwbcaMg9UJ4UhpdWydYCBxPEbe0jCWDO1gc5JGNwwap9sURuAb3/hGdQgIFaNkDYrOKSqirO0iotEcGThurly7IhqdhDE7/vjjqx6EMZOOs/MRdeIgdHykSgSHAeFgRRXe/e53V4fB0PzkJz+pIytO14dOGWERHX6bbbapIxhlOfjggyupdAzGjhHTPtpIGyAGQeyCdHIwyAI9FUJttgeD1vxdM+zwz+jzhz/8YV9UQRLOiKNVtugDcSqCoS+EIVbG9jSRttst42qUFVEl+ieSwPEO5jwGai86YuQtP7pBD0zjma/moPXfEFEPo+Sm8Y9jtjBHlkQeEH+//+///q8OQugYe6JtjdLpg7Y3eDj66KNrNvSJ0ye+E+0neqCd6bF6KAf7gESc0xqUwJSeGXk2dTHaXj7KYvSunX2Q8nBojvve/M2BIlZIabSfdHBhB0hEG3yHSXOazj6CSHNk6soWcK6uI3IRdnZWylJtoTqoo0FU+3Hp3vrWt9bk+ieisdFGG9Xf9BBBEz0JsbZtWmuw1sQkjtnCJ2ys3/RKxAW2HHl7BFWaTjKQbnHS3/rWt2o0Iwg/+8SeEvrQJGl8Q0RNlUF/lpaNY2/5HHrUrW65lvYziBRZY1PpJsKlbWEpQvmOd7yjDkw61W009/UckZj+9OXKzBb7ntwaifVJh0UlM4xwWwYwZo11sA9/+MM1FO88HUMYCPtl/I08zcdTzAip9eU/+4uGN8IM0cGcb/RMUXfdddd6SEc2HcG4IxURQncQuWC0jfgI52KE6hxOSX4hFIIR+cMf/lBH0DESdly6Qw89tC7caXawOHc4W52uyVwxXQ6EUeE0YaOzIFqMDYPMsOvwwxEkQujPiMnopJMgKgx6TP000yiDUYwOw6nCX8cjjLHOOZioJwOEEMUak/b0MD7ooIOqIWpGSZrptFcYPeUI7OCmTVwHOUU8bRlZRgeOIh+chRHXprOn5BgSEQ2EiC4ZXaoLB04fETnOQn2NVBkfRsmW3iE19FtaOtSMQNC3KF+zDu3fXbNJYpFUjmEg4eTptToj5KIjj1c4fjplZAwrkafXvva1NVIyUN6DtRfcGOiI4HDW2gFGdImzCjGq0x4w7iTwb07vxeLB5tQbnLXbWmutVY27CA89FrVBQBEJxCiiLwYR+jfHQifpBeeDfOp7yLR+JsLlw3GH6D/woiMROdS/zPe3OzEEzfoL0wgExpw/sorkxwAILspHmuuiEIB2m4gkiaII56tj9D06z/FbVEgnQ+i4srLBTQcbx9u3+lUIZ07vm0I/tOtARCIiPXGOPog0aZtuZTDdapbHYFHbIJIRjTS4bNbfd21MTD2IJMND9BF2TXvYjW4hEPpJ6Bx7bf0eu4bIhR42bUG39f5fpOs5IjHjmSuVmWu2FtS1Gq01bK51nv6jH9btpBesOQuDVmec/qotyoR11u0jEg40WbnfjIDOpCNwXkZZOvlAyqnDtzsXeQi76lQhnDwlwaItymsSCZ2fhFL5zgjrxD5NkZYRIAy7xZwWiFIeRp9TZdx0ah2vE8tv5tfpu7AsZ9Ncw+E744I0IDpCp74bMc+NKJvpDKxZGNCnk5g6wLIZPKFi2EYYXXqdA4kg2khn4sQ4bgSEkWga9ppw9j84GpEIMRoRNZ1CpGMwhcEZKcbYaHa//fbrF/5mrOlJjEI4hwiPM/zC0tpfPYgtIwZnhNA1jBqU2ToPhMQxxohYXxD6Ajf1dE3z8SIdpm9CJ2xNP1i9H23PgDVHjxxgJ32Wp/ODhLqWsgr7Kn+Uz0g+6lcLOPvfiq0oCCzVl/4wiO1iDhzh4aAj2tWepvmbY+BoRJo4PrrOUQ0k3bRXkAh5KKN2M5ozNQCD0Cd926dboc/NsimLPkJEUPRROmmqCT6wjSmi0A1pfbf2yeCCXsgTGaAH9EK7hNBfURFtxmZoJ05WWnUzhSqvdh1AZJqO1ToF59HdICGuwdnLK+by47rqRoebom7IO1th3Zn+RFdEUJAORCicI7umbvpTNyRCPuGo2UBOOtopyhBYx++htvpEs18Mlb4b3dLGysZG6r8GBxFF1DZNf2MAI/KMxLEvCFdEL9rL0o1uOceATj+Fr7Lob64bAwJtM1jkt/26/8vfPUckJq70rDJj+7eXGddM67v989EDZt3BMAkSLRIxo9VQk1rPkpi49Kw7CAYCiIHk0HVY8/kMDCbNQQ80MhkoL0rEABAOxWhH/gy8TqSDE+lcKxg/g2buNqY2lCGEoTOCYuAsjGIghEVDWSPdtFaIj5MWEelk0CNdc0sBERDzm50cMANm1Ikdd4oONPMa6DvDaa6OU2BMjbo7GQCd9gc/+EEdJQkLY/VwMy+LyTcNdlwLjspuRGVtgKhSO/tWR/jqmAijaIBwdoyeIi/pjBKMBDlmhpYYnZmz1GHDCInQIDfhnJWjScJ0aGVWLte0kJexbk7vyNt5zXUZyq9c4dgZYw5VXoy+EQxSQFdtie/KAeNoI5g3yRQDj2g0RbsjTHQyrqcfwAApprfC9vQK2aGvzbuV5KWsh7RuwRZZYyQZ/6aoH8KlzU2BcDCBWTNd+3ckSr7m5hlbIf7284bTXpE/p8kROxf5se4CtnMjcEeQRDBJ6Jl+TOgAQbZEjbRPtL/BRUjoh6iDyBLRDmyDdjEFZioPlvojp0UvtJ8yELrhO6xdV9/hxENfpXEuohIiUuPTjMjIW76cUERLIz3nROc4TGQY0TdFRAwu9BnHRJCQXVi3D7ikVa52Qqls7e0bJB35MTXE8bb3WfkNR9hzEb92cQ24RRmGo1vKhUQ5X73gFMQVAYqFsq65Y2vqO0ibvsTpN9soytWtbkkvGssniEJoN23qu4gqvNhV7Rb6GNd4IrY9RySAMvEVm5WZLcLwSOs20EmtOzjmP7U1+msZ1Edb4b4ZrWjFhBbRmLzJxoPiBWzCSDK0HLbOG4u6OGzGhgIauWHpjHTMbzoXYeBUODTsksO01bmFnZyLlVMgBlKoTPiyU1hd3hQxhAOwQCvmCe0XslImyhHOxH5pMH0LPjmAGJ061i46DHIQ6yvMH0eoNdIy4gSjZgDVpZPodD6dhHNhdEQ2RCCQgU4KzSBzahwGpxMGgxHeaaed6jwfJwRrghjIm+FEqBhqEmHb+qP1T0dm5FxTHWE+0Dy7UKz0wuCuFcJRIBJImsiB0CWiZ6SsDM5h7C1YbQpCw7AYxbl7IsLCjGY4BO2F9CFryoWM+M4wSc/hmLKQXn7S0BGEMyISjA4HROcQNIaSQY/rKZNyiGTRbzrIWaiHKQMOIIQDYpSMNOmha8KfAzKlJfoTbeMcoXERJNM8HGj7aN75ygOj5mg4rjfYlgFG3hApeASxi3O6bS/pYab89AxxgquyNVfLR77dbpFe/R7+ImfaSbs0cZcXTExPwrPpQKPPGHXbr77Kpx/Kj40xynTc1IfoGD2QTl6+x7XYGP1Zes8nYGNEK5oRBGRWZFR/QB7kq23kF31f/2IT6WX0a3kTUQqOD8Fo72cir/Zz/vTX1J48m06S3phGNmfPpjiHTiAvrhXTk/Vis/8hT0bvdDamEZvHh/udHRNxoU/KBlNYwdNi+8BrOLolOuiD8Opf+gtc6Rx/EdMcympNDmzpiT4mSiR9u3SrW87T5hZrss9IREgQTiSUz+hE6iLtaG0ntDrJzE6hzdEqwGDX8UwJt4NOdCdHy0FaP2HqQ9Sik9OSF6Oi8Tnb4447rja6jmJU3lR+TpCSc7zBVtvLokNyPDo/p2/UbVSHeXN0nL1zlYUCcSqiE83OSHHcGuU+ZwYJy203nM3rWtQWC/iMrqOzS4OkKE+nsH0zj5H6ziHBrJODDoPXHB0PdF3Ea6AwH6fJmIToPDAwmm/WPY43t87VwQZqv0gLd23ZKT/GRvsxhq4thEl3OGxOlrHQtp1ERMVip6ibDi68y5FZO4EEMcIMD6fOELsrBB7tzpfDQTYQGXXiSGB7dGvExoFYZCmq4dkWrtkUDo/eqQtiR8c6tYu6uT4cpIkRVDOv+A4LxJmTarZPHLdlMDnIqa11FIOR2+Y5ze/w4Hja8++2vSIvGOsXneocaYaz1b+1O5zgTpDCJtGK/BBNmDbXViEKysR5If5EJNQCPu1OvxE+GAfpkIYeI88iGYQOwEZ6jlEkg1N2nimQ5nNO5GvAZFEyuwQLDqaTkznnnHPq4KTZH5zjd3tfUj6L2I1+6Yt2Dn2vhWz8Q1S1KdsgL31O+RGadmE/lXc4axra82j/TW/YBHWJPs23Nf3bcHXLNUQuOXM6hsRZ58Qu7tiKQqiffeoTglCI9Gl7bWUtUgzehqNbSA/f1STFbIB+R7StwVGzHaMMo73taSIx2mDk9RKBRCARSAQSgZFCQHQJsZobkoscIiVjQTovYR4LJc8yJgKJQCKQCCQCPYyACM/ckAhVGiskQlmTSEAhJRFIBBKBRCARSATmCoEkEnMFW56UCCQCiUAikAgkAhBIIpF6kAgkAolAIpAIJAJzjUASibmGLk9MBBKBRCARSAQSgSQSqQOJQCKQCCQCiUAiMNcI9CSRcLtMPJRnrmv2OE/0DIHmPd6PM7uuTnevtvuOm+Ipco+nHO6p9nyB4YpnZng+Qcr4Q6Bdx8ZfDf83NfKMhF4Xtwy65XA0xbMZmjbG9Zu/R7Mso3Ut9RvvdRwOlj1zkyrl88Y2H0839EQ9D9sYSLw0a+rUqf2e+DVQ2qH2c9Qe5NIUDxbyQKjmrTueDsfZN9+j0TxHHTz22oNCPPDHw0o8PMQ+3z1UxkNb4oFSHk7iiXDxhDQPrfKwKo9h9UATT2z0EizvJ2g+VKV5zaG+T2s9BtkTCj1VUlm80yHqpDweMNPpyXKemuZhO0O9D2Go6z8Rx9XTC5U8GCrEA2PUVztoQ7dWDfRgnTjH1sOkYBZPCGwee7zfkTWPV/bwIm3QfHrdcPLWxh5I5SFY7UInkWI6SA8YfQ8War6CWF9ybf2J0EM66dY1uMEqHuZGZ71rotPDmVzL01c9MXSgx1N7SqxHng+GvYdceQhaU+eRWmXR9zwgKZ5Q66mFHviDHHnIU1MMSDwUSX/yMDcPjPOgMQ948iAkD3zywCkPFPKBn6ffeuR3PIrew+2irF5N722YIRyJd7XEw7jom6eAesJiCLw8Wropg7VXpPNQOnawHWdPVvS48vZHmsd5sIB/+4OoDEg83Iy4voeaeWqiJ2GG+O5Jm0QfYava34ERaZtb/cPTLPU5eXsQoN8epNZJPBjNe0M8GdQD1OieT/uDldhlfSS2+i8d8OC29rSdrjPQvnhpFlswlNBpb83V/+PdGp4Cqkz0jV19POKhb/pjPMp+sLw86MyDsWDba9IzREKHxqYZL08I9PQ/RjxEh2p2Ku9XaH/+f6Qd7pbB8fTKplBUTxFr3svr8bv2K9tAwil4kpu6EI+udQ6jyAAy6PGkMsbfo48ZbQaC0npKnifWeeRqp3dQNK/LSFHEeBKex1B7JHgQlWZa3xk+xtMT2ojHIDMw7cIQePSxx04zqsrvCYdzK8hQs+0iH52R8Yr3SMT+ud3Cz+OuEQmP9GWkQhBTHd/T6LSrp1XG+1EiTaetMnJCI0EkkFX5cZIcF8ejrJ5eR2+6KU+UUT5eGMW4qQ9Hqp20W/PRyDBBIBhNzthLfjhJ3zkrv6XxCYGVpyh6OiA91HbxuG066/Hb9tEffYexp++iX8invuxcwug39ZF+IyIknES7bnBwSHyTSDD+SIBrIga2DCpbQdSbQ/M4Y0LHERIEyFs4vTxLX/E4d1hx9oyy+iAVsA994Qz1pai7F/4RmMfj771zIp4MihgRTyLkfEVT4z0d9pFu26smbv1TH841Hu0c+xEpznS4Eu0Ee+8i0T7Ixo6t/kCCaNYfrX/x5F9Egt56VDss1YMdMcihe35rd1vt7n0ne+65ZyUKHoPuuo41yZTz2CH2y6Ok2SDt3e7YHfcadvrhw+7SGSSy+VRPZdZH6Yh0+gF9VE56G6Qw6uaadMvTikMC06bOOab88jagCoGbp4PSMXULvVQ+HzqJsPNf7Dp982TTeGooPSTwhLO+iOTCIfQrrmVAicjCzOsTiAGttEhfe9+J80Z72zNEggMIwMNRAz9Ep48XYcW+gUY9cbzbrVHLbrvtVo0Q48oQM4ChjN6n0XzsNSdFocNYug7lJYxO0+lodKMHhGHF1vslKFE4zlBe5xnpUAqdQb4U+OCDD67XEaXhdHQKr8olWLFrGUUhKPbrOM6JF2O5ltEm8Thn7wXQUXRiAu8mkcD44xXEYcjlxRhywurVrHPNpIt/3hUSnaiZnBNlLEZCYHnUUUdVowevdgPs+kEK1SHaq/3aHocb6RyTr7YwkuZsRZqaL+NqP3+w32EIPE6ZYUaGOXJt227ABssnjjHgRo7Kp1z01iiv+Uhz9YxHanv8Nn0kzmXkOonyiJQ5l2NkyIJIIDwhXnDm+vRWX3QeCWLrGvqWfiTKwcAyvBw8Y05v9SPvC4iXXjmuXNqPIfZOBnkjNww2QsvoxqhMeuQEMZMHB0enRAb0pcBcuYz6EA35IwF0wii6+b4b6dTHIAXJ0NeD4Hl/DVISEgMdUaWmcCLt+xzvpr2a+ein7e844XTaxbU4tyBCjms3+hVltw+O9M57VbSV70bbBJFo6kNg7VjUR1vBDD7IL+fGRjuXGBTQQ/bSOy+8ZJDueJ9NU8Imxj52K6Kksc9WfnGuNlZW772xv13Uny6wafqpPs5RNzGJc7yywKPGRX+lY0fZUzYeNoQP0q/oAOHwEWK65xHZBmyhs+wYsuVa2oz90AdcJ94V1LR/+gSySX8QIm1K31Zs+YdOop20J/Hd+fzT3NjiTvmPxL6eIBIaAlCcKePlhShDTW3olCNFJAJISsjAMKIhRlhCw03xvo1jjz22diT7KZw3ilLmdtHJglXLn3jNNfHbW/YoPieuY05thZeRGSMn5ACrb5/aYFwpv7AupaLYnBtF99toCwHw4iEG14iUw9IZGfCYxnFdBoGo59Gt0Cf8ncPwhxgpcELahVOK1wfH8aG2Az1P34i6PdKhXspCdBqGNDpMpzAiDI1E49XNIiid9IIzaxKEgcoMx2anNzoma665Zt2GA6s/hvnPuwUYICJk7hXpRtbxVtnhZKedEFIGEHHgJLULw81AIZAiaAw0YkXoqWf+07MIYXe6JodBR10jdBZpIPHbd69NDqEfMeXnPRDRZo47hz7TTdMDHAIju2NrNHxOa2SHUIRRZmCNxLUBm8DxcxCxPoGhRpiEx0W6CEfKIJtiYPg5EKJPBbnxW304LYYbqSZC7EgIcT7CpLzsj/bSPq5PbL0/gR4hLNGWsZ5L/oSjjcFQ3dH61217qRvbRt/Yjnbbw1lpZ2kCY/1f/26KPgBb6ZU1RP+nF0RULt7yiXwZ/YbAKAgpMuXTSUzt0DX9AkEwem8KG9MUfVV70UXtG+TFVNtAjlS5OHLYdyIG8leXgd6J07y+7+oFQy+N09aICfsd9ZXGS7qUL2wlPWBH6SH9FnlBErRBM7KhXdhltoo/MJhDaEWo+BY6pI1FoemR9DDjA9lXOhjEFnb6tfR0ij7q8+w8nXNuNzZNff7X0hNEgnEY7stHNMhIg0iRKGOw0AA/nEj8pjwYZHRCxnEgERqMiASjSLGi0yMMRKelQIwPx2nqAwkYSBgIkQijWJECjiHCxxyUaZowNIyqDwNidMYw6fRhhDgAdaasSALlD8PYvL4OLHSprUZCdExEoZ0ciNxoB47k8MMP75vLbhok3zktnQ/zh50RLGfUiUQo70Cjnva6xAjCfjiqrzBzOxnS+ZGecB7t+cCfwYk5ZgaTUQrSQHentkgj4xT75CHsPJCot/aJNS1G9hw8I88RIJDxYiEETXrtTD8ZIeHlHVvOWx2NOE27dRLOFyHTBjBoRiTMwbcLHeLMYt5elKtp8BlB7SoNYVRjVAk/+hsC65gykEeQFXWkLwgJ0f+9jhxhjoiL/fpQRKMQoiaRMCXCiXEeiIdycl76Dn1qhsA5DNeAtdFfiJfwSQdfzlD+IkzWM7ATyItoCPLNsVqPEdJNe0mLIE1rTa/oB9qJNJ0cos0RcmD6P5LcPoiBqwiiSG+TSLAboo6mY9RRpE09YNDsO3CMdqgFGOSf63OC7dGTTqcY0WsH1+Oo6SRSqx3aRR+i0/q49OwBnWYfI3LQfk43v+mFSJo6IszsR7vEYE8/ENXh0OmMKI/ra182oH16XXvTW/pO9Etp2F14wkq/o4P0K+wwMk1v4jznKqfBHdsFC5EhGMAZHuy2vtUL0hNEQscUCosRBgBJvDnPd6Py9jm0aATHH6/oXBxl0/BEnhTZyLQ5zxfHhtpSWOcLkVMW0YQIDyMslIFjZwxNPxAOkZEkOrkRJWP7zne+syqakUq8QVReMbqSPjChsPGdEwsnRKEptmP2UWjKa7RIkBvGsF0Y5zDi7ceG+9t1GWSjfwSmKQxmGE11Vrb2dtepvOXVMREb6bXfYIKsNR1FpFV/rwwXXg9SIH/7tJWRkhFGu3Aum266ad857cflobOHnH/++dVgNZ2mkcdHPvKRGvKPKQfOOMoR58YWbtFOHC6jghho/yClnH7MgTfPi+MMEx0PZxtpmlv9j8MlRubKFnVBANuFg+RElR3x4NyaREJ6TsvoX92CRNgvv2ZZGE0EmdFs6gYnp61C5NM0osiMUR4HzFkRfSeiE37LM6ZXRCHkyTmI2nAq+iKRL+emr9AD+YTIQ7/Vr0UvtCfMRVlcH3FUBiF+UZdoy+G0F50TwmcXXEcdot31W3oZBAuZ5VSbUbQoqzZB3hCPmDqjt/RIfUV+rMPyGnprJ0QIYRy4ajMEhT7Evsg7tkcccUTfupR2MhNpmlsYEfVi75Ch9qik4+wle6vebGHYAOeZ7qAzyBRRHw7e9HcnHGqixj/kBLZ8ymCDUWWgy03nHjZV32d724mE9IhSCNJMz6Jcvuuzruuj7HTS9LFBS9TT+dJGNNFv9UYAm/3H/l6QniASgBAmjFBhN1MbzolO6nuIEZ5G1uAcOGVrGqRI177VWXQmDsAoLxqLQWQwzI+GSCPUFqHcTsY10lJ8hlhZjVpInMcodRLMNaIcHOUBBxzQrw4MgJEKA8Y4NwlXRA10fNc+8cQTKytmFJUbm2XsGcAwkBFWVhb12mmnnfoVy8jtnFYUJIiEzqIDdGLy/U7s8AMLRwJgNthdOR1O7dulAx588MF9v4f6op7Ci6FfkZ7T4ozhGB2d8UQaGW/Y2ypzu8CxmxGY85xv6qX5qmn7XddIzMgmsG22hTQDCR0wGkeizPcydgx5kMTmeRwEw0sHEVBODyntJEaJJHQUCfWJ353O4bBMSyIUpH2+m3NyN4comxFaU+ho0/A6JnLDASJ3RtSuHX3MiFrdQ/RzThqGCISoRYThtXsQN7qvLxj1cazqyYBL206clVdUzpZN0MdMM7ou3RVBsrYi1kgoC2xdw4cONZ2P48NpL+mJ6JKyqQddU0/TEnDmkPVDNi4GHbPOeuy/MiEZpmJjrQTbhkQgk4gTMgtjd2lJ2yQM6mrq4qCDDppjejWuwjZyfnSPnUPYkTp9ayBhT9g3+m9htwFFOOg4RxtpG/pKfw2MLIBVbxE1di6IhPwsOI4pgcij01abIoLuyhuMRDiXTmkDDp24jjITZVDudkHYmn2liWekNS2u3yPe+pa1XdrZ9doHOyIc6q/t6ZspZ3YTEeolmdhLhRlOWXSEMC7O04EZSHNw4SAxRnPCOk63onNSUEaPomjcdqH0GnznnXeuH6PKGM000+pM0prKMA3CiDnPdx8MuhsJJxdpTV8Y0Vv4tfrqq/eFz42yOMFYzKnsFPbQQw+thg+7VSZhOw7SfoY2RpvyV155Nj/RYeP6RlwYtJFRt4J4SG9eUpjdnGS7w+k2r+GmQ5yQnhgNOZ8hQkY4WLepwRjZYuBMYyBnyteO/XCvLb3V/4xW+/SIY0ZjDP3cCJ2jr/RdGFv+7aSZo0au6R5BUk1P0ItOt+dpG449dJSxMzqP383oQZQZtrCUJ8PZbgxN6RkJc776aVPoIxKP6An5wlzETVqjTMfpbdwZQWdFSULU2ciWkXcdv8NBIAOBB72mczGytwrf8YgERX6xNUfOeekfBhVGx50IZaTnTA1gpk6dWp1MOJ84bttNezXTq5MPfNTfQERdRSPUh1PjVMK5Nc+N73BsEn59QLQjcJBOuekQkhaChCCprsNWIAcGPpwZnbNGhWhrdVVG63U4PlESjpHucdryClEfETN3/ogIKLu+2C5sr2iFaAknCl8jcm2mLCJJIXRO+YPIxn5b+sP2tEs7oXW8mU5b6zeIUkjosd/q1Mk2BMkxhd3ML/Kw5bcCf8SDrTEYiChTpIUhkgEHfRYZdU34sf+O94r0RESCEaEgIQjAtddeO8ccLgcaSmkUZCqEwlEWCwkpJaMTYTxhpaNboVzOgdJ247gwVmsJKBpFkFd7gzH+zXCc45Sd4YnyqQtlwmib++x3DR/l7iSuHwYXY0WOOHtGj6Iateo8RlRCk/DjLOVn5XGMauMOD9cwUmUMt9lmm2qg4cdIKFuzfAyCcjfFCIsBCMH8GWujTJ2gaagiTftWGxhpOle5wtg30zE8zVXxymI0FNNNzmt27Oa5On4nQx+LmJq3VUk3rUWG2sOqRn1GKqEnwrbaqYlP85rdfFcHIwrrJTrlY/7aqEzbxXW7yTfSiJgx7kaPnLz6Is5GiLBGHERWmmQxsNdfXNfoPIwi49nptmPp6Dc8Im2UAflwHkfnbh961RS6ZvpFtCD0Oo47ZpTF4bulMpyiRcCMrXxFEjgoDg9RYBtCRAyIBXlwpi/0SDmNak0xEBhJo6/6yI8+Gtk1ByTSsjP6SQjnqx8GBrG/udVH1ENa1+aE9c92Gaq92JwjjzyynmY6TFtqO1ERZSCiEKZQ5MW+EGF4eq2Nmu2DvPggZwR+bC0sOGTEXkidvtB3zoweNvMWGRIh8qHDbE88/0Z5ffRRtgk55fAMNJTHdeMuNjaSExRViSkBW07RwEX9ENcmEdU+iDgM4Kp92fxYJK5OdMfg6bDDDuubttPvtLlz2J6ITEXZYWyf/GGmrZSXQyf0ji6Kilgn4bxpLZvRXI9TE7b9U3fRa0RUlIRtNOB0fgj9MmXGZ2kbok1i7UWkQ9D0XwMN+Wpj017KZW0LMtdcvxPnPRHbCS2WOTMc7xNRANdk/ILh+q2jU4RgbfYRLDaMFOU1j8s4SYehRkhzVupZ/ykHx8yoxrnN4/GdMWd0NDgGriMRHc5ISYMNFIrXQbBl+esQYYTcSiicTQkIcsIIKKuVzjrsjq35sriWeX4dCfOl3IQDjwWO8okOWA/O/scRMIaMwUBCCRkluBk56PSnnnpqdRoR9nSu0Ur7in5tY9RgNNiUCP01nVTzePO70QxcgxQ0j8V3ZdP2TUMYx2zhO1Abci7yZ8CbIk9GIhyUY+E4m527eU58F+Fh3DiHaKM4Npwt5zlQueVDRzuRjG6vAVtGieGEHQNJx9r1gT4iTzEPK0IkgkUPTXXAiA5aABvlofvsg1Go0SXDa+qrWR/6wSnRTW0wkGgHYV+61xS6HuTGfn0upno4IrpH9znBKFfzfLotNK8vqRsizKYw0nEHCXzoQoi+wHjTdcd8gpREmuYWtpwMbA1Q6ITrItOmmJB5kZxwWIi9ARGHxxE3Zaj2grX6cpDaiAOXN2dpMBHTqk2nxrHQV45HBLQ9IoI0mdZwjpG7qA576cO+0FHOjZ2kN/oTLAeK2ER92DE2jW2MhcWO0StrRJr9Ef5sGxsZYh+9ohuwQ4wiihRp1IvtZOfZ4WaekcYWaTDlq3/TJ3oLj6ZuRXppkD+RDDolb/WNa9MNeqnfw0ub6VNNOxJ5DbRVZqS2Xd+lV046w77oS8pqcNo+mHBd+NA1BEsZelF6gkj0IjBZpkQgEZg3EOBEOY2hiOW8gUbWMhEYPgI9MbUx/GLnGYlAIpAIjAwCRoTNCMvI5Jq5JALzDgKPrYKZd+qcNU0EEoFEIBFIBBKBEUIgicQIAZnZJAKJQCKQCCQC8yICSSTmxVbPOicCiUAikAgkAiOEQBKJEQIys0kEEoFEIBFIBOZFBJJIzIutnnVOBBKBRCARSARGCIEkEiMEZGaTCCQCiUAikAjMiwj0LJHwMBcPlUlJBBKBRCARSAQSgd5FoCeeI+GJZJ7M6GmW8XAYL4nyNLl4aqIn5nV6cmXvQpslSwQSgUQgEUgExj8CPUEkPC7U41mRBU+X8xhljxclIhMeo+rRpUkkxr9CZg0TgUQgEUgExhYCPfeIbM8U9yx5z/j3WuB4a+HYgjVLmwgkAolAIpAIzBsI9NwaCW/09EIVhCLXSMwbSpi1TAQSgUQgERi7CPQUkfAWRG+p8zpVb/pMSQQSgUQgEUgEEoHeRqAn1kgERF7nuuqqq5aPfexjxau5O71y2itVvRbc62abr7+OPHKbCCQCiUAikAgkAqOHQE9FJFR71113Ldttt119N/1WW23VD4mHH364nH766WX33XcvN910U7n++uv7Hc8fiUAikAgkAolAIjC6CPRURMJtoGeccUaNOKyxxhpl6tSp/dDwql93cNx1113l7rvv7hix6HdC/kgEEoFEIBFIBBKB/ykCPXfXxtlnn11WXHHFstJKK3Ws+FVXXVV+//vf1zs61l577Y5pcmcikAgkAolAIpAIjA4CPUckRqfaeZVEIBFIBBKBRCARGAkEem6NxEhUKvNIBBKBRCARSAQSgdFBIInE6OCcV0kEEoFEIBFIBMYlAkkkxmWzZqUSgUQgEUgEEoHRQSCJxOjgnFdJBBKBRCARSATGJQJJJMZls2alEoFEIBFIBBKB0UEgicTo4JxXSQQSgUQgEUgExiUCSSTGZbNmpRKBRCARSAQSgdFBIInE6OCcV0kEEoFEIBFIBMYlAkkkxmWzZqUSgUQgEUgEEoHRQSCJxOjgnFdJBBKBRCARSATGJQJJJMZls2alEoFEIBFIBBKB0UEgicTo4JxXSQQSgUQgEUgExiUCSSTGZbNmpRKBRCARSAQSgdFBIInE6OCcV0kEEoFEIBFIBMYlAkkkxmWzZqUSgUQgEUgEEoHRQSCJxOjgnFdJBBKBRCARSATGJQJJJMZls2alEoFEIBFIBBKB0UEgicTo4JxXSQQSgUQgEUgExiUCSSTGZbNmpRKBRCARSAQSgdFBIInE6OCcV0kEEoFEIBFIBMYlAkkkxmWzZqUSgUQgEUgEEoHRQSCJxOjgnFdJBBKBRCARSATGJQJJJMZls2alEoFEIBFIBBKB0UEgicTo4JxXSQQSgUQgEUgExiUCSSTGZbNmpRKBRCARSAQSgdFBIInE6OCcV0kEEoFEIBFIBMYlAkkkxmWzZqUSgUQgEUgEEoHRQSCJxOjgnFdJBBKBRCARSATGJQJJJMZls2alEoFEIBFIBBKB0UEgicTo4JxXSQQSgUQgEUgExiUCSSTGZbNmpRKBRCARSAQSgdFBIInE6OCcV0kEEoFEIBFIBMYlAkkkxmWzZqUSgUQgEUgEEoHRQSCJxOjgnFdJBBKBRCARSATGJQJJJMZls2alEoFEIBFIBBKB0UEgicTo4JxXSQQSgUQgEUgExiUCSSTGZbNmpRKBRCARSAQSgdFBIInE6OCcV0kEEoFEIBFIBMYlAkkkxmWzZqUSgUQgEUgEEoHRQSCJxOjgnFdJBBKBRCARSATGJQJJJMZls2alEoFEIBFIBBKB0UEgicTo4JxXSQQSgUQgEUgExiUCSSTGZbNmpRKBRCARSAQSgdFBYPLoXCavkggkAr2CwK9+9aty2mmnlUceeaRXipTlmEsEpkyZUrbYYovy8pe/fNAcvnLiveXTP767PPjwzEHT5cHeR2CB+SaU/bZZrOzx2kV6prAZkeiZpsiCJAKjg0CSiNHBeTSuggxqz6EkScRQCI2d48ig9uwlSSLRS62RZUkERgGBjESMAsijeIlu2jMjEaPYIKNwqV5rzyQSo9DoeYlEIBFIBBKBRGC8IpBEYry2bNYrEUgEEoFEIBEYBQSSSIwCyHmJRCARSAQSgURgvCKQRGK8tmzWKxFIBBKBRCARGAUEkkiMAsh5iUQgEUgEEoFEYLwikERivLZs1isRSAQSgUQgERgFBJJIjALIeYlEIBFIBBKBRGC8IpBEYry2bNYrEUgEEoFEIBEYBQSSSIwCyHmJRCARSAQSgURgvCKQRGK8tmzWKxFIBBKBcYrAfFMmlCP2fGpZ9qmT5qihY/M3PnMkyB0jjkC+tGvEIc0ME4FEoB2BiRMnlkMOOaT8/ve/L6effnr74RH77TozZswYdn6bbrppWXXVVctXv/rVrs99xjOeUZ785CeXSy65pJ6z0UYblWuuuabceOONXeeRCQdG4CcfXrIss/ikMmXyhHL/g7Pa9ENH3VXua33f/bWLlq03XLAcfcZ9ZfFFZo2Hb75jevnPPTPKtO8tV8+JnJd80w3l38ctXyZMiD2Pbe+8b0ZZecd/PbYjv80VAkkk5gq2PCkRSASGgwDnvsACC5TnPOc5/YjEcsstV/71r5Ex5LvssktZaaWVymGHHTZsZ77CCiuUZz7zmcOpUtlss83KaqutVvbZZ5963tZbb13OOeecYV97WBedhxLffvf0stEaC5TJraDDry9+sCy20MRyyseWKjNaLzCdOJsUnHzoUhURv08+74Fy+In3lP2+fWc/lJ77jCnlMz+5uzxr2Sk1UrHpmguU9fa4ufzgg0uUyZFRvzPyx3ARSCIxXMQyfSKQCAwLAVGCZZddtkyePLmsvPLKZb/99iuLL754edKTnlTz2WuvvcrMmXO+3nqZZZapjvqss87q6npnn312WWWVVcoHPvCBcuyxx5Y//vGPXZ0nkeu3lwHxWX311csaa6xRTjrppHLHHXf0y+/RRx+d4xz7UkYGgV2/ckdZYenJZcH5J5Q3f+zfNTrxt28sW97y8X8X0YqX7XNLOWj7J5fLr3+kTH3+AvWiO2y2cHnVOrP0Kkrxs9/fX3bYbKFywHfuKu9/06LlvMsfKqIXj04v5YGHhh+9inxz+xgCSSQewyK/JQKJwAgisP3225e11lqrEohmtlOmTClXXXVVuf7668u0adPmcMaR1rmbb755+d3vflcefvjh2F23naYwrrjiinLggQeW/fffv2y33XZl4YUXLmeeeWa/83bfffcaEfnnP//Zb/98881X5p9//nqeKYsll1yy2Bdy1113lRNOOCF+1u2kSZMGLHu/hPljrhFYebkp5ZTz7q/n33HvjPL9s/5bfnTAkuXhR2aWF682f9nkhQuU6259tFxy7cPltD89UH5xwQPlofc8pczXmg4J2WiN+cufrni4PPLozLLUkye1XsF9ez205GITy1+veSSS5fZxIJBE4nGAl6cmAonAwAhcffXVlURce+21lTgstthiZeeddy7f+c53uprO+M1vflOJxEtf+tJy55131mjDiiuu2OfkP/vZz5YbbrihXwHuvffectBBB5U99tijXH755f2OmYYwtXLbbbcVROLNb35zXRdhnQNyQ170oheV//znP+XPf/5zPf+Nb3xjPXbiiSf2y8sPRCMjEHPAMmI7lmw5fesftpm6UHnJ6guUK29sRR5esEDftMan3vWUei3HyeEn3lu3Ky87uVhwSQS6Xrn/beUdr1y4fGHnxSvZeOYyk8vaq8zfWqg5uRx79n9ruvz3+BBIIvH48MuzE4FEYAAEzj333OITcsstt9Svpgusi3ja055WyQHnfvTRR5dHHpk1Onze855X1l9//WJqg7z+9a+vI38k4eabby7WVdx3331zkIiauPVPPl/4whfiZ92KMOy0007lgQceKMcff3zdt8QSS5Tp06dX0mDKZZFFFulb7yCB6y666KLliCOO6Bh5WGihheaIlNSM89+IILDzqxeu+fz2kgfrFMcW6z42ZbHstjeWD2+3WHn7KxaeY7Hkwk+a2EckZLD6ClPKh9+6WDnnrw+Wu/47o2y53oJlvVXnK9fc/Ej5+qn3jUhZ5/VMkkjM6xqQ9U8E/ocITGgtlef4LWS0oJFstdVWZcstt2ytop81ajRtsfTSS/ctUoyFj0iDKIaR/5577lnPNWVBvva1r9VtN/8QBusyXM9CzLiro5nHO97xjroeIvJbb731yiabbFIuGwgTAAAH60lEQVQuvPDCctlll8XuftunPOUpxZTHQIIwyeeoo44aKEnuHwCBSa0bMXbaYpF69IOtOzXeuslCZdsFJ5ZDj7m7fG2PxfvdheGODNMWyAU5q7Uwc4HZEQm/L/rnw2Wl7W8sqy4/pRx/4JJlUmuB5WsOvK1cfHX/6TJpU+YOgSQSc4dbnpUIJAJDILDbbrvVqYNI9tBDD8XXcuqpp9bpDmskRAWa4pgPeeELX1je9a53laWWWqqsu+665cUvfnH5+c9/3kc6mud1+m6dxdvf/vZKIg4//PCuzzNlgUB897vf7ZRtjVSIVsStn+2JrLMQAbn77rvbD+XvLhAw9TD/fLOIZjP5ta0oAnFL50ARiX23XrQ81FpD8Uhr3WtrCW357HF31/UUO7YWYn6jFYF45dpPKl/aZfG66PKDbXd4NK+V37tHIIlE91hlykQgERgGAn/4wx8qWbjyyivLddddV6cHrEuw5qHbZ0lw1O6meMlLXlIspjzllFPKr3/96yFLYdpkhx12KMsvv3y5//77yxe/+MUSUytDntxKcNFFF9XPQGm33Xbbeui0006bI4nnSbgV1DTKJz/5yTmO546hETj/iofKGz/67/KzVgShk/zjO8v1PT/C9/semFHW2vXmvqQHfveuYnHmN9/31LJa6/bPH31oyXLdbY+Wex+YWabue0t9kNXFRy5bpzo+9aMke33AzeWXJBJzCVyelggkAoMjcPHFF8+RAKnYcMMNy9Of/vSuogOmIW6//fZi3YRIRPsCyriAaYtnPetZNYLx/Oc/v5h2QEBMTRxzzDFDLoo0vWIKRR4WiRK3p1qnoay//e1v41Jlgw02qOVBbKzVaIrpEHdz3HTTTXWdRjMK00yX34dG4Hd/e7A+ROq01rMjLJ588OHHbhHe+4g7yq5bLVLWf+78xff/PvjYMTmfcO799eFUiIRbQpGK5nPKtt14oXLptIfLbq08kkgM3RZDpUgiMRRCeTwRSARGDAFEgpiy6PYJkMgD8tHpls8omIWP7tSQhvM+77zzijst2h19pG/fusXUeoa99967/VAlJEEkTGe85S1vqVMWRx555Bxp7Tj55JPLGWec0fFY7hw+Apde90i55c7p5cobHrtV0/qJF60y6/bcWEux8nKTy7d+MYvYnfvlZVrPiJhFLt600ULle7+6r2zcuuPDLZ+eTbHDyxcuf2w9T2KNleYr6686fzmvFQFJmXsEkkjMPXZ5ZiKQCAwTgQcffLCuPbj11lu7PtODpUwXWO8gwtBJEAZ3aliTMNgCyE7n2ueZFvvuu2+9iwQpEc1ASORl0WfIPffcU6dJ3ELavrbD9Im06pgyMggc/7v7ywe/dWedgpDjOrPJw/2tB0mde+lDZYHWOgrfiQdMhfy4dVunOzQIIvKrPz9Qvrzr4uUtrVtFL/rqMjXtESffW3z+ek0uugzc5nY7oXVL1UwPbklJBBKBeQMBI/exJu7ksM4ipTMCX/nKVzofmL13ia37P29j0MQ9fNDdHB4q5cmU87rcfvzyPQNBq1lSEoFEIBHobQSSRPR2+4xW6aa3ggxJIkYL7e6vk0Sie6wyZSKQCCQCiUAikAi0IZBEog2Q/JkIJAKJQCKQCCQC3SOQRKJ7rDJlIpAIJAKJQCKQCLQhkESiDZD8mQgkAolAIpAIJALdI5BEonusMmUikAgkAolAIpAItCGQRKINkPyZCCQCiUAikAgkAt0jkESie6wyZSKQCCQCiUAikAi0IZBEog2Q/JkIjHcEpkyZMt6rOE/Vr5v29ATIlPGDQK+1ZxKJ8aNbWZNEoCsEtthii9KN8+kqs0z0hCKgHbXnULLfNovVx0kPlS6P9z4CSIT27CXJR2T3UmtkWRKBRCARSAQSgTGGQEYkxliDZXETgUQgEUgEEoFeQiCJRC+1RpYlEUgEEoFEIBEYYwgkkRhjDZbFTQQSgUQgEUgEegmBJBK91BpZlkQgEUgEEoFEYIwhkERijDVYFjcRSAQSgUQgEeglBJJI9FJrZFkSgUQgEUgEEoExhkASiTHWYFncRCARSAQSgUSglxBIItFLrZFlSQQSgUQgEUgExhgCSSTGWINlcROBRCARSAQSgV5CIIlEL7VGliURSAQSgUQgERhjCCSRGGMNlsVNBBKBRCARSAR6CYEkEr3UGlmWRCARSAQSgURgjCGQRGKMNVgWNxFIBBKBRCAR6CUEkkj0UmtkWRKBRCARSAQSgTGGQBKJMdZgWdxEIBFIBBKBRKCXEEgi0UutkWVJBBKBRCARSATGGAJJJMZYg2VxE4FEIBFIBBKBXkIgiUQvtUaWJRFIBBKBRCARGGMIJJEYYw2WxU0EEoFEIBFIBHoJgSQSvdQaWZZEIBFIBBKBRGCMIZBEYow1WBY3EUgEEoFEIBHoJQSSSPRSa2RZEoFEIBFIBBKBMYZAEokx1mBZ3EQgEUgEEoFEoJcQSCLRS62RZUkEEoFEIBFIBMYYAkkkxliDZXETgUQgEUgEEoFeQiCJRC+1RpYlEUgEEoFEIBEYYwgkkRhjDZbFTQQSgUQgEUgEegmBiffcc0+ZMWNGL5Upy5IIJAKJQCKQCCQCYwAB/GHilVdeWR588MEkE2OgwbKIiUAikAgkAolAryCAROAPk2+44YYyffr08tznPrcstthivVK+LEcikAgkAolAIpAI9CgCEyZMKHfccUcRjPh/fN0f0ufAFu8AAAAASUVORK5CYII=;imageBorder=default;" vertex="1" parent="1">
          <mxGeometry y="560" width="530" height="496" as="geometry" />
        </mxCell>
      </root>
    </mxGraphModel>
  </diagram>
</mxfile>
